SplineFontDB: 3.0
FontName: MerriweatherSans-BookItalic
FullName: Merriweather Sans BookItalic
FamilyName: Merriweather Sans
Weight: Light
Copyright: Copyright (c) 2013, Sorkin Type Co (www.sorkintype.com) with Reserved Font Name 'Merriweather'
Version: 1.000
ItalicAngle: -7
UnderlinePosition: -88
UnderlineWidth: 201
Ascent: 1638
Descent: 410
LayerCount: 2
Layer: 0 1 "Back"  1
Layer: 1 1 "Fore"  0
NeedsXUIDChange: 1
XUID: [1021 631 1661839179 11847937]
FSType: 0
OS2Version: 3
OS2_WeightWidthSlopeOnly: 0
OS2_UseTypoMetrics: 1
CreationTime: 1367324040
ModificationTime: 1367308442
PfmFamily: 17
TTFWeight: 300
TTFWidth: 5
LineGap: 0
VLineGap: 0
Panose: 2 0 5 3 6 0 0 9 0 4
OS2TypoAscent: 376
OS2TypoAOffset: 1
OS2TypoDescent: -150
OS2TypoDOffset: 1
OS2TypoLinegap: 0
OS2WinAscent: 12
OS2WinAOffset: 1
OS2WinDescent: 0
OS2WinDOffset: 1
HheadAscent: 12
HheadAOffset: 1
HheadDescent: 0
HheadDOffset: 1
OS2SubXSize: 2726
OS2SubYSize: 2517
OS2SubXOff: 0
OS2SubYOff: 315
OS2SupXSize: 2726
OS2SupYSize: 2517
OS2SupXOff: 0
OS2SupYOff: 1468
OS2StrikeYSize: 102
OS2StrikeYPos: 512
OS2FamilyClass: 512
OS2Vendor: 'STC '
OS2CodePages: 20000093.00000000
OS2UnicodeRanges: a00000af.5000204b.00000000.00000000
Lookup: 1 0 0 "'aalt' Access All Alternates in Latin lookup 0"  {"'aalt' Access All Alternates in Latin lookup 0 subtable"  } ['aalt' ('DFLT' <'dflt' > 'latn' <'AZE ' 'CRT ' 'MOL ' 'ROM ' 'TRK ' 'dflt' > ) ]
Lookup: 3 0 0 "'aalt' Access All Alternates in Latin lookup 1"  {"'aalt' Access All Alternates in Latin lookup 1 subtable"  } ['aalt' ('DFLT' <'dflt' > 'latn' <'AZE ' 'CRT ' 'MOL ' 'ROM ' 'TRK ' 'dflt' > ) ]
Lookup: 1 0 0 "'locl' Localized Forms lookup 2"  {"'locl' Localized Forms lookup 2 subtable"  } ['locl' ('DFLT' <'AZE ' > ) ]
Lookup: 1 0 0 "'locl' Localized Forms lookup 3"  {"'locl' Localized Forms lookup 3 subtable"  } ['locl' ('DFLT' <'TRK ' > ) ]
Lookup: 4 0 0 "'locl' Localized Forms lookup 4"  {"'locl' Localized Forms lookup 4 subtable"  } ['locl' ('DFLT' <'TRK ' > ) ]

StartChar: .notdef
Encoding: 65536 -1 0
Width: 1845
Flags: HW
LayerCount: 2
Fore
SplineSet
220 1416 m 1,0,-1
 1625 1416 l 1,1,-1
 1625 0 l 1,2,-1
 220 0 l 1,3,-1
 220 1416 l 1,0,-1
583 232 m 1,4,-1
 920 595 l 1,5,-1
 1271 231 l 1,6,-1
 1386 347 l 1,7,-1
 1031 709 l 1,8,-1
 1386 1060 l 1,9,-1
 1265 1179 l 1,10,-1
 923 817 l 1,11,-1
 577 1180 l 1,12,-1
 461 1061 l 1,13,-1
 812 705 l 1,14,-1
 462 370 l 1,15,-1
 583 232 l 1,4,-1
EndSplineSet
EndChar

StartChar: numbersign
Encoding: 35 35 4
Width: 1393
Flags: HW
LayerCount: 2
Fore
SplineSet
326 365 m 1,0,-1
 112 365 l 1,1,-1
 118 463 l 1,2,-1
 342 463 l 1,3,-1
 414 926 l 1,4,-1
 192 926 l 1,5,-1
 198 1024 l 1,6,-1
 430 1024 l 1,7,-1
 483 1357 l 1,8,-1
 609 1357 l 1,9,-1
 558 1024 l 1,10,-1
 946 1024 l 1,11,-1
 1002 1357 l 1,12,-1
 1129 1357 l 1,13,-1
 1074 1024 l 1,14,-1
 1307 1024 l 1,15,-1
 1301 926 l 1,16,-1
 1059 926 l 1,17,-1
 985 463 l 1,18,-1
 1215 463 l 1,19,-1
 1209 365 l 1,20,-1
 970 365 l 1,21,-1
 913 0 l 1,22,-1
 790 0 l 1,23,-1
 843 365 l 1,24,-1
 453 365 l 1,25,-1
 391 0 l 1,26,-1
 267 0 l 1,27,-1
 326 365 l 1,0,-1
858 463 m 1,28,-1
 930 926 l 1,29,-1
 542 926 l 1,30,-1
 469 463 l 1,31,-1
 858 463 l 1,28,-1
EndSplineSet
EndChar

StartChar: ampersand
Encoding: 38 38 5
Width: 1534
Flags: HW
LayerCount: 2
Fore
SplineSet
979 64 m 1,0,1
 827.125 -17 827.125 -17 622 -17 c 0,2,3
 268.753 -17 268.753 -17 148 188 c 0,4,5
 105 261 105 261 105 349 c 128,-1,6
 105 437 105 437 132 495.5 c 128,-1,7
 159 554 159 554 204.5 603 c 0,8,9
 277.438 681.549 277.438 681.549 437 771 c 1,10,11
 343 968.895 343 968.895 343 1137 c 0,12,13
 343 1317.55 343 1317.55 459 1432.5 c 0,14,15
 574.55 1547 574.55 1547 754 1547 c 0,16,17
 912.545 1547 912.545 1547 1008 1447 c 0,18,19
 1092 1359 1092 1359 1092 1245 c 0,20,21
 1092 1067.16 1092 1067.16 934.5 939.5 c 0,22,23
 845.059 867.005 845.059 867.005 753.529 818.503 c 2,24,-1
 605 739 l 1,25,26
 794.759 410.829 794.759 410.829 999 223 c 1,27,28
 1130 347.661 1130 347.661 1130 553 c 0,29,30
 1130 631.6 1130 631.6 1106 694 c 1,31,32
 1021.35 691.772 1021.35 691.772 984 672 c 1,33,-1
 993 777 l 1,34,35
 1022 806 1022 806 1129 806 c 0,36,37
 1173.75 806 1173.75 806 1218.5 806 c 2,38,-1
 1356 805 l 2,39,40
 1399.5 805 1399.5 805 1443 805 c 1,41,-1
 1435 694 l 1,42,-1
 1254 694 l 1,43,44
 1268 645 1268 645 1268 586 c 0,45,46
 1268 306.571 1268 306.571 1094 145 c 1,47,48
 1190.03 82.7576 1190.03 82.7576 1330.33 82.7576 c 0,49,50
 1339.55 82.7576 1339.55 82.7576 1359.02 81.5379 c 128,-1,51
 1378.5 80.3182 1378.5 80.3182 1403 87 c 1,52,-1
 1388 -6 l 1,53,54
 1204.49 -50.7592 1204.49 -50.7592 1040 26.5 c 0,55,56
 1007 42 1007 42 979 64 c 1,0,1
554 833 m 1,57,-1
 701 913.5 l 1,58,59
 950 1055.54 950 1055.54 950 1229 c 0,60,61
 950 1378.34 950 1378.34 839 1428 c 0,62,63
 801 1445 801 1445 744 1445 c 128,-1,64
 687 1445 687 1445 637.5 1421 c 128,-1,65
 588 1397 588 1397 553 1356 c 0,66,67
 480 1270.49 480 1270.49 480 1141 c 0,68,69
 480 981 480 981 554 833 c 1,57,-1
277.5 462.5 m 128,-1,71
 260 420 260 420 260 357.5 c 128,-1,72
 260 295 260 295 290 242.5 c 128,-1,73
 320 190 320 190 371 156.5 c 0,74,75
 470.716 91 470.716 91 623.358 91 c 128,-1,76
 776 91 776 91 889 146 c 1,77,78
 757.476 272.044 757.476 272.044 683.738 374.022 c 128,-1,79
 610 476 610 476 569.5 541 c 1,80,-1
 490 674 l 1,81,82
 380.347 606.865 380.347 606.865 337.673 555.933 c 128,-1,70
 295 505 295 505 277.5 462.5 c 128,-1,71
EndSplineSet
EndChar

StartChar: quotesingle
Encoding: 39 39 6
Width: 524
Flags: HW
LayerCount: 2
Fore
SplineSet
328 1687 m 1,0,-1
 502 1687 l 1,1,-1
 348 966 l 1,2,-1
 240 966 l 1,3,-1
 328 1687 l 1,0,-1
EndSplineSet
EndChar

StartChar: parenleft
Encoding: 40 40 7
Width: 854
Flags: HW
LayerCount: 2
Fore
SplineSet
241 269.5 m 0,0,1
 221 377 221 377 221 492.5 c 128,-1,2
 221 608 221 608 238 738 c 128,-1,3
 255 868 255 868 301 996 c 128,-1,4
 347 1124 347 1124 406.5 1232.5 c 128,-1,5
 466 1341 466 1341 533 1429 c 128,-1,6
 600 1517 600 1517 661 1582 c 0,7,8
 777.061 1705.67 777.061 1705.67 845 1741 c 1,9,-1
 912 1695 l 1,10,11
 798.965 1621.28 798.965 1621.28 655 1408 c 0,12,13
 539.081 1236.27 539.081 1236.27 461 1012.5 c 0,14,15
 420 895 420 895 405 796.5 c 0,16,17
 380 632.333 380 632.333 380 487.167 c 128,-1,18
 380 342 380 342 411.5 208.5 c 128,-1,19
 443 75 443 75 487 -23 c 128,-1,20
 531 -121 531 -121 578 -183 c 128,-1,21
 625 -245 625 -245 657 -271 c 1,22,-1
 575 -319 l 1,23,-1
 561 -319 l 1,24,25
 457.691 -244.388 457.691 -244.388 363 -80.5 c 0,26,27
 279.1 64.7111 279.1 64.7111 241 269.5 c 0,0,1
EndSplineSet
EndChar

StartChar: asterisk
Encoding: 42 42 9
Width: 1366
Flags: HW
LayerCount: 2
Fore
SplineSet
240 960 m 1,0,-1
 526 1090 l 1,1,-1
 672 1147 l 1,2,-1
 538 1205 l 1,3,-1
 278 1344 l 1,4,-1
 365 1471 l 1,5,-1
 598 1295 l 1,6,-1
 707 1200 l 1,7,-1
 701 1350 l 1,8,-1
 708 1653 l 1,9,-1
 856 1653 l 1,10,-1
 805 1350 l 1,11,-1
 768 1200 l 1,12,-1
 897 1295 l 1,13,-1
 1164 1467 l 1,14,-1
 1223 1339 l 1,15,-1
 939 1204 l 1,16,-1
 794 1146 l 1,17,-1
 923 1088 l 1,18,-1
 1177 953 l 1,19,-1
 1089 827 l 1,20,-1
 862 999 l 1,21,-1
 757 1096 l 1,22,-1
 766 950 l 1,23,-1
 759 647 l 1,24,-1
 608 648 l 1,25,-1
 660 950 l 1,26,-1
 696 1096 l 1,27,-1
 568 1001 l 1,28,-1
 299 831 l 1,29,-1
 240 960 l 1,0,-1
EndSplineSet
EndChar

StartChar: plus
Encoding: 43 43 10
Width: 1366
Flags: HW
LayerCount: 2
Fore
SplineSet
601 536 m 1,0,-1
 629 717 l 1,1,-1
 468 712 l 1,2,-1
 243 712 l 1,3,-1
 257 833 l 1,4,-1
 483 833 l 1,5,-1
 641 824 l 1,6,-1
 658 1005 l 1,7,-1
 685 1235 l 1,8,-1
 821 1235 l 1,9,-1
 795 1005 l 1,10,-1
 765 825 l 1,11,-1
 900 833 l 1,12,-1
 1155 833 l 1,13,-1
 1141 712 l 1,14,-1
 885 712 l 1,15,-1
 754 717 l 1,16,17
 754 694.6 754 694.6 749.5 647.8 c 2,18,19
 742.5 576 l 2,20,21
 740 551 740 551 739 536 c 2,22,-1
 710 295 l 1,23,-1
 572 295 l 1,24,-1
 601 536 l 1,0,-1
EndSplineSet
EndChar

StartChar: comma
Encoding: 44 44 11
Width: 503
Flags: HW
LayerCount: 2
Fore
SplineSet
96 168 m 1,0,-1
 175 265 l 1,1,2
 264.542 224.797 264.542 224.797 308.5 133.5 c 0,3,4
 343 61.8462 343 61.8462 343 -26.5769 c 128,-1,5
 343 -115 343 -115 320.5 -188.5 c 128,-1,6
 298 -262 298 -262 257 -323 c 0,7,8
 174.603 -445.59 174.603 -445.59 33 -501 c 1,9,-1
 -22 -434 l 1,10,-1
 -20 -416 l 1,11,12
 119.864 -346.068 119.864 -346.068 167.5 -194.5 c 0,13,14
 184 -142 184 -142 184 -72.5 c 128,-1,15
 184 -3 184 -3 157.5 52.5 c 128,-1,16
 131 108 131 108 90 127 c 1,17,-1
 96 168 l 1,0,-1
EndSplineSet
EndChar

StartChar: period
Encoding: 46 46 12
Width: 503
Flags: HW
LayerCount: 2
Fore
SplineSet
198.5 -17 m 128,-1,1
 152 -17 152 -17 126.481 7.0463 c 128,-1,2
 100.963 31.0926 100.963 31.0926 100.963 79.3641 c 128,-1,3
 100.963 127.636 100.963 127.636 125.481 155.318 c 0,4,5
 167.714 203 167.714 203 219.357 203 c 128,-1,6
 271 203 271 203 291.023 177.116 c 128,-1,7
 311.047 151.233 311.047 151.233 311.047 132.023 c 0,8,9
 311.047 50.0785 311.047 50.0785 278.023 16.5392 c 128,-1,0
 245 -17 245 -17 198.5 -17 c 128,-1,1
EndSplineSet
EndChar

StartChar: slash
Encoding: 47 47 13
Width: 854
Flags: HW
LayerCount: 2
Fore
SplineSet
-75 -362 m 1,0,-1
 787 1597 l 1,1,-1
 920 1597 l 1,2,-1
 57 -362 l 1,3,-1
 -75 -362 l 1,0,-1
EndSplineSet
EndChar

StartChar: zero
Encoding: 48 48 14
Width: 1278
Flags: HW
LayerCount: 2
Fore
SplineSet
135.5 276.5 m 128,-1,1
 111 361 111 361 111 457.5 c 128,-1,2
 111 554 111 554 133.5 645 c 128,-1,3
 156 736 156 736 197 814 c 128,-1,4
 238 892 238 892 295.5 955.5 c 128,-1,5
 353 1019 353 1019 422 1063.5 c 0,6,7
 565.427 1156 565.427 1156 734 1156 c 0,8,9
 952.087 1156 952.087 1156 1059.5 1022 c 0,10,11
 1157 900.366 1157 900.366 1157 688 c 0,12,13
 1157 401.345 1157 401.345 981.5 195 c 0,14,15
 899 98 899 98 785.5 41 c 128,-1,16
 672 -16 672 -16 549 -16 c 128,-1,17
 426 -16 426 -16 345 23 c 128,-1,18
 264 62 264 62 212 127 c 128,-1,0
 160 192 160 192 135.5 276.5 c 128,-1,1
999 675 m 0,19,20
 999 1050.04 999 1050.04 714.904 1050.04 c 0,21,22
 500.895 1050.04 500.895 1050.04 377 857.5 c 0,23,24
 268 688.108 268 688.108 268 464 c 0,25,26
 268 210.252 268 210.252 429.5 121.5 c 0,27,28
 485 91 485 91 577.5 91 c 128,-1,29
 670 91 670 91 752 142.5 c 128,-1,30
 834 194 834 194 889 277 c 0,31,32
 999 443 999 443 999 675 c 0,19,20
EndSplineSet
EndChar

StartChar: one
Encoding: 49 49 15
Width: 911
Flags: HW
LayerCount: 2
Fore
SplineSet
183 960 m 1,0,1
 376.567 1004.67 376.567 1004.67 599 1162 c 1,2,-1
 667 1143 l 1,3,-1
 502 0 l 1,4,-1
 349 0 l 1,5,-1
 486 958 l 1,6,-1
 360 908 l 2,7,8
 288 880 288 880 201 862 c 1,9,-1
 183 960 l 1,0,1
EndSplineSet
Substitution2: "'sups' Superscript in Latin lookup 11 subtable" onesuperior
EndChar

StartChar: two
Encoding: 50 50 16
Width: 1249
Flags: HW
LayerCount: 2
Fore
SplineSet
621 1038 m 0,0,1
 443.167 1038 443.167 1038 253 875 c 1,2,-1
 197 962 l 1,3,4
 315.519 1088.42 315.519 1088.42 512 1141 c 0,5,6
 583 1160 583 1160 671.5 1160 c 128,-1,7
 760 1160 760 1160 830.5 1132.5 c 128,-1,8
 901 1105 901 1105 946.5 1059 c 0,9,10
 1035 969.527 1035 969.527 1035 827 c 0,11,12
 1035 515.132 1035 515.132 456 197 c 1,13,-1
 277 103 l 1,14,-1
 1058 132 l 1,15,-1
 1037 0 l 1,16,-1
 87 0 l 1,17,-1
 62 102 l 1,18,19
 691.504 413.507 691.504 413.507 834.5 688.5 c 0,20,21
 867 751 867 751 867 811 c 0,22,23
 867 1038 867 1038 621 1038 c 0,0,1
EndSplineSet
Substitution2: "'sups' Superscript in Latin lookup 11 subtable" twosuperior
EndChar

StartChar: three
Encoding: 51 51 17
Width: 1100
Flags: HW
LayerCount: 2
Fore
SplineSet
55 -200 m 1,0,1
 131 -210 131 -210 200.5 -210 c 128,-1,2
 270 -210 270 -210 338 -198.5 c 128,-1,3
 406 -187 406 -187 467.5 -165.5 c 128,-1,4
 529 -144 529 -144 581 -112 c 128,-1,5
 633 -80 633 -80 671 -38.5 c 0,6,7
 752 49.9605 752 49.9605 752 163 c 0,8,9
 752 403.354 752 403.354 453 407 c 1,10,11
 443 402 443 402 417.5 395 c 2,12,-1
 363.5 380 l 2,13,14
 335 372 335 372 309.5 365.5 c 128,-1,15
 284 359 284 359 275 356 c 1,16,-1
 288 487 l 1,17,18
 628.512 568.581 628.512 568.581 731.5 718.5 c 0,19,20
 771 776 771 776 771 832 c 128,-1,21
 771 888 771 888 757 918.5 c 128,-1,22
 743 949 743 949 716 971.5 c 0,23,24
 659 1019 659 1019 581 1019 c 128,-1,25
 503 1019 503 1019 453 1007 c 128,-1,26
 403 995 403 995 359 976 c 0,27,28
 293.769 947.832 293.769 947.832 206 884 c 1,29,-1
 159 996 l 1,30,31
 265.54 1098.28 265.54 1098.28 461.5 1143.5 c 0,32,33
 533 1160 533 1160 605 1160 c 128,-1,34
 677 1160 677 1160 736 1143.5 c 128,-1,35
 795 1127 795 1127 840.5 1093 c 0,36,37
 940 1018.65 940 1018.65 940 879 c 0,38,39
 940 751 940 751 826.5 637.5 c 0,40,41
 724.444 535.444 724.444 535.444 572 481 c 1,42,43
 741.619 481 741.619 481 838 389 c 0,44,45
 926 305 926 305 926 176 c 0,46,47
 926 28.2079 926 28.2079 818.5 -91 c 0,48,49
 666.63 -259.411 666.63 -259.411 384.5 -311 c 0,50,51
 297 -327 297 -327 234.5 -327 c 0,52,53
 140 -327 140 -327 42 -315 c 1,54,-1
 55 -200 l 1,0,1
EndSplineSet
Substitution2: "'sups' Superscript in Latin lookup 11 subtable" threesuperior
EndChar

StartChar: four
Encoding: 52 52 18
Width: 1240
Flags: HW
LayerCount: 2
Fore
SplineSet
23 72 m 1,0,1
 365 625.5 l 1,2,-1
 729 1256 l 1,3,-1
 767 1256 l 1,4,-1
 873 1188 l 1,5,-1
 296 259 l 1,6,-1
 188 101 l 1,7,-1
 712 114 l 1,8,-1
 776 621 l 1,9,-1
 923 649 l 1,10,-1
 856 122 l 1,11,-1
 1119 133 l 1,12,-1
 1103 0 l 1,13,-1
 840 0 l 1,14,-1
 793 -375 l 1,15,-1
 648 -375 l 1,16,-1
 697 0 l 1,17,-1
 50 0 l 1,18,-1
 23 72 l 1,0,1
EndSplineSet
EndChar

StartChar: five
Encoding: 53 53 19
Width: 1104
Flags: HW
LayerCount: 2
Fore
SplineSet
57 -221 m 1,0,1
 107 -231 107 -231 186 -231 c 128,-1,2
 265 -231 265 -231 376.5 -204.5 c 128,-1,3
 488 -178 488 -178 575.5 -126 c 0,4,5
 770 -10.4114 770 -10.4114 770 182 c 0,6,7
 770 312 770 312 703 386 c 128,-1,8
 636 460 636 460 496.875 460 c 128,-1,9
 357.75 460 357.75 460 214 391 c 1,10,-1
 156 449 l 1,11,-1
 310 1144 l 1,12,-1
 892 1144 l 1,13,-1
 911 1160 l 1,14,-1
 1039 1160 l 1,15,-1
 1008 1016 l 1,16,-1
 427 1016 l 1,17,-1
 307 528 l 1,18,19
 437.667 577 437.667 577 551.833 577 c 128,-1,20
 666 577 666 577 737.5 550 c 128,-1,21
 809 523 809 523 855 474.5 c 0,22,23
 945 379.609 945 379.609 945 210 c 0,24,25
 945 50.1538 945 50.1538 835 -81 c 0,26,27
 675.168 -271.569 675.168 -271.569 369.5 -328 c 0,28,29
 272 -346 272 -346 214.5 -346 c 128,-1,30
 157 -346 157 -346 140.5 -345.5 c 128,-1,31
 124 -345 124 -345 106.5 -343 c 0,32,33
 67.6956 -338.565 67.6956 -338.565 39 -329 c 1,34,-1
 57 -221 l 1,0,1
EndSplineSet
EndChar

StartChar: six
Encoding: 54 54 20
Width: 1244
Flags: HW
LayerCount: 2
Fore
SplineSet
368 844 m 1,0,1
 529.364 986 529.364 986 742 986 c 0,2,3
 924.491 986 924.491 986 1018 868 c 0,4,5
 1098 767.048 1098 767.048 1098 605 c 256,6,7
 1098 368.913 1098 368.913 957 185 c 0,8,9
 860.856 59.5951 860.856 59.5951 714.5 9.5 c 0,10,11
 640 -16 640 -16 545 -16 c 128,-1,12
 450 -16 450 -16 374 24.5 c 128,-1,13
 298 65 298 65 248 134 c 0,14,15
 149 270.62 149 270.62 149 474.31 c 128,-1,16
 149 678 149 678 212 851.5 c 128,-1,17
 275 1025 275 1025 388 1168 c 0,18,19
 626.823 1470.23 626.823 1470.23 996 1572 c 1,20,-1
 1029 1484 l 1,21,22
 666.907 1356.2 666.907 1356.2 468.5 1050 c 0,23,24
 405 952 405 952 368 844 c 1,0,1
328 702 m 1,25,26
 300 588 300 588 300 489 c 128,-1,27
 300 390 300 390 317.5 319.5 c 128,-1,28
 335 249 335 249 370.5 198 c 0,29,30
 445.676 90 445.676 90 586 90 c 0,31,32
 703.039 90 703.039 90 791.5 173 c 0,33,34
 865.784 242.699 865.784 242.699 909.5 366 c 0,35,36
 947 471.769 947 471.769 947 562.885 c 128,-1,37
 947 654 947 654 929.5 707.5 c 128,-1,38
 912 761 912 761 880.5 797 c 0,39,40
 816.625 870 816.625 870 721.812 870 c 128,-1,41
 627 870 627 870 564.5 850.5 c 128,-1,42
 502 831 502 831 455 804 c 0,43,44
 387.961 765.488 387.961 765.488 328 702 c 1,25,26
EndSplineSet
EndChar

StartChar: seven
Encoding: 55 55 21
Width: 1063
Flags: HW
LayerCount: 2
Fore
SplineSet
862 1024 m 1,0,-1
 98 1021 l 1,1,-1
 124 1144 l 1,2,-1
 1007 1144 l 1,3,-1
 1033 1109 l 1,4,-1
 415 -315 l 1,5,-1
 278 -264 l 1,6,-1
 862 1024 l 1,0,-1
EndSplineSet
EndChar

StartChar: eight
Encoding: 56 56 22
Width: 1249
Flags: HW
LayerCount: 2
Fore
SplineSet
120 343 m 0,0,1
 120 431 120 431 155.5 503.5 c 128,-1,2
 191 576 191 576 247.5 636 c 0,3,4
 353.574 748.645 353.574 748.645 517 820 c 1,5,6
 416.26 898.073 416.26 898.073 375.63 953.537 c 0,7,8
 296 1062.24 296 1062.24 296 1165.12 c 128,-1,9
 296 1268 296 1268 332 1342 c 128,-1,10
 368 1416 368 1416 430 1466.5 c 0,11,12
 555.842 1569 555.842 1569 758 1569 c 0,13,14
 920.429 1569 920.429 1569 1024 1482 c 0,15,16
 1132 1391.28 1132 1391.28 1132 1243 c 0,17,18
 1132 1100.59 1132 1100.59 1022.5 977 c 0,19,20
 920.745 862.148 920.745 862.148 762 805 c 1,21,22
 897.714 711.234 897.714 711.234 953.357 645.117 c 0,23,24
 1062 516.024 1062 516.024 1062 409.512 c 128,-1,25
 1062 303 1062 303 1021 225.5 c 128,-1,26
 980 148 980 148 909.5 94 c 0,27,28
 764.583 -17 764.583 -17 546 -17 c 0,29,30
 377.5 -17 377.5 -17 256.5 73 c 0,31,32
 120 174.529 120 174.529 120 343 c 0,0,1
683 864 m 1,33,34
 880.68 953.15 880.68 953.15 954.5 1107.5 c 0,35,36
 982 1165 982 1165 982 1228.5 c 128,-1,37
 982 1292 982 1292 962 1336.5 c 128,-1,38
 942 1381 942 1381 908.5 1411 c 0,39,40
 842.617 1470 842.617 1470 741 1470 c 0,41,42
 617.889 1470 617.889 1470 534.5 1394 c 0,43,44
 449 1316.08 449 1316.08 449 1198 c 0,45,46
 449 1057.29 449 1057.29 594 933 c 0,47,48
 636 897 636 897 683 864 c 1,33,34
281.5 372 m 0,49,50
 281 307 281 307 300.5 256 c 128,-1,51
 320 205 320 205 357.5 167.5 c 0,52,53
 438 87 438 87 573 87 c 0,54,55
 705.8 87 705.8 87 800 165.5 c 0,56,57
 899 248 899 248 899 373 c 0,58,59
 899 527.027 899 527.027 716.5 675 c 0,60,61
 661 720 661 720 597 763 c 1,62,63
 473.953 704.959 473.953 704.959 387 609.5 c 0,64,65
 282.444 494.716 282.444 494.716 281.5 372 c 0,49,50
EndSplineSet
EndChar

StartChar: nine
Encoding: 57 57 23
Width: 1244
Flags: HW
LayerCount: 2
Fore
SplineSet
869 301 m 1,0,1
 725.25 151 725.25 151 521 151 c 0,2,3
 327.706 151 327.706 151 226 271.5 c 0,4,5
 139 374.576 139 374.576 139 540 c 0,6,7
 139 777.391 139 777.391 279 960 c 0,8,9
 433.1 1161 433.1 1161 683 1161 c 0,10,11
 877.717 1161 877.717 1161 987.5 1011 c 0,12,13
 1088 873.683 1088 873.683 1088 657 c 0,14,15
 1088 278.158 1088 278.158 848 -25 c 0,16,17
 695.088 -218.152 695.088 -218.152 472.5 -337 c 0,18,19
 362 -396 362 -396 239 -430 c 1,20,-1
 205 -341 l 1,21,22
 441.721 -260.12 441.721 -260.12 619.5 -86.5 c 0,23,24
 790.793 80.7865 790.793 80.7865 869 301 c 1,0,1
447 286 m 0,25,26
 496 267 496 267 563 267 c 128,-1,27
 630 267 630 267 688 287.5 c 128,-1,28
 746 308 746 308 789.5 336 c 128,-1,29
 833 364 833 364 862 394 c 2,30,-1
 908 443 l 1,31,32
 938 574.538 938 574.538 938 664.769 c 128,-1,33
 938 755 938 755 920 825.5 c 128,-1,34
 902 896 902 896 866 947 c 0,35,36
 789.765 1055 789.765 1055 649 1055 c 0,37,38
 474.18 1055 474.18 1055 375 884 c 0,39,40
 290 737.448 290 737.448 290 561 c 0,41,42
 290 346.878 290 346.878 447 286 c 0,25,26
EndSplineSet
EndChar

StartChar: less
Encoding: 60 60 26
Width: 1368
Flags: HW
LayerCount: 2
Fore
SplineSet
209 800 m 1,0,-1
 1220 1324 l 1,1,-1
 1201 1175 l 1,2,-1
 368 743 l 1,3,-1
 1100 311 l 1,4,-1
 1085 176 l 1,5,-1
 197 702 l 1,6,-1
 209 800 l 1,0,-1
EndSplineSet
EndChar

StartChar: equal
Encoding: 61 61 27
Width: 1063
Flags: HW
LayerCount: 2
Fore
SplineSet
182 987 m 1,0,-1
 997 987 l 1,1,-1
 983 867 l 1,2,-1
 169 867 l 1,3,-1
 182 987 l 1,0,-1
112 478 m 1,4,-1
 927 478 l 1,5,-1
 913 358 l 1,6,-1
 99 358 l 1,7,-1
 112 478 l 1,4,-1
EndSplineSet
EndChar

StartChar: question
Encoding: 63 63 29
Width: 1020
Flags: HW
LayerCount: 2
Fore
SplineSet
364 470 m 1,0,1
 307.58 523.101 307.58 523.101 287.5 623.5 c 0,2,3
 281 656 281 656 281 696.5 c 128,-1,4
 281 737 281 737 300.5 776.5 c 128,-1,5
 320 816 320 816 357 852.5 c 0,6,7
 417.433 912.116 417.433 912.116 515.716 964.058 c 2,8,-1
 657.5 1040.5 l 1,9,10
 817.97 1130.88 817.97 1130.88 838 1211 c 1,11,12
 850 1248.71 850 1248.71 850 1325.36 c 128,-1,13
 850 1402 850 1402 817.5 1468 c 128,-1,14
 785 1534 785 1534 732 1575.5 c 0,15,16
 629.193 1656 629.193 1656 479 1656 c 0,17,18
 365.4 1656 365.4 1656 264 1617 c 1,19,-1
 286 1726 l 1,20,21
 321.222 1761.22 321.222 1761.22 428 1775 c 0,22,23
 459 1779 459 1779 522.5 1779 c 128,-1,24
 586 1779 586 1779 661 1760 c 128,-1,25
 736 1741 736 1741 791.5 1708.5 c 128,-1,26
 847 1676 847 1676 884.5 1632 c 128,-1,27
 922 1588 922 1588 945.5 1538 c 0,28,29
 989 1445.45 989 1445.45 989 1346.22 c 128,-1,30
 989 1247 989 1247 965 1187.5 c 128,-1,31
 941 1128 941 1128 901.5 1083 c 128,-1,32
 862 1038 862 1038 811.5 1003.5 c 128,-1,33
 761 969 761 969 708 940 c 2,34,-1
 604.5 884.5 l 1,35,36
 493.618 826.314 493.618 826.314 451 761.5 c 0,37,38
 427 725 427 725 427 689 c 128,-1,39
 427 653 427 653 432 629.5 c 128,-1,40
 437 606 437 606 444.5 583.5 c 128,-1,41
 452 561 452 561 460.5 541.5 c 128,-1,42
 469 522 469 522 475 507 c 1,43,-1
 377 469 l 1,44,-1
 364 470 l 1,0,1
352.86 69.056 m 0,45,46
 352.86 71.9825 352.86 71.9825 352.93 86.4912 c 128,-1,47
 353 101 353 101 361.5 124.5 c 128,-1,48
 370 148 370 148 386 165.5 c 0,49,50
 420.286 203 420.286 203 471.643 203 c 128,-1,51
 523 203 523 203 542.589 177.678 c 128,-1,52
 562.178 152.356 562.178 152.356 562.178 133.411 c 128,-1,53
 562.178 114.467 562.178 114.467 562 111 c 0,54,55
 561 48 561 48 529 15.5 c 128,-1,56
 497 -17 497 -17 450.5 -17 c 128,-1,57
 404 -17 404 -17 378.43 6.64035 c 128,-1,58
 352.86 30.2807 352.86 30.2807 352.86 69.056 c 0,45,46
EndSplineSet
EndChar

StartChar: at
Encoding: 64 64 30
Width: 1968
Flags: HW
LayerCount: 2
Fore
SplineSet
1353 141 m 0,0,1
 1441.71 141 1441.71 141 1536 246 c 0,2,3
 1682.45 409.093 1682.45 409.093 1734 682 c 0,4,5
 1751 772 1751 772 1751 899 c 128,-1,6
 1751 1026 1751 1026 1705.5 1136.5 c 128,-1,7
 1660 1247 1660 1247 1580.5 1315.5 c 0,8,9
 1431.36 1444 1431.36 1444 1161 1444 c 0,10,11
 892.049 1444 892.049 1444 675.5 1294 c 0,12,13
 471.797 1152.9 471.797 1152.9 354.5 910 c 0,14,15
 238 668.752 238 668.752 238 391 c 0,16,17
 238 29.9293 238 29.9293 437 -161.5 c 0,18,19
 615.282 -333 615.282 -333 909 -333 c 0,20,21
 1065.2 -333 1065.2 -333 1230.5 -276 c 0,22,23
 1274 -261 1274 -261 1298 -248 c 1,24,-1
 1324 -324 l 1,25,26
 1218.03 -405.036 1218.03 -405.036 1025 -431.5 c 0,27,28
 963 -440 963 -440 898 -440 c 0,29,30
 553.476 -440 553.476 -440 341.5 -227 c 0,31,32
 121 -5.43478 121 -5.43478 121 373 c 0,33,34
 121 725.295 121 725.295 266.5 998.5 c 0,35,36
 404.474 1257.57 404.474 1257.57 650 1402 c 0,37,38
 893.1 1545 893.1 1545 1189 1545 c 0,39,40
 1502.28 1545 1502.28 1545 1686 1366.5 c 0,41,42
 1869 1188.7 1869 1188.7 1869 889 c 0,43,44
 1869 498.051 1869 498.051 1671 243 c 0,45,46
 1552.08 89.8134 1552.08 89.8134 1412 35 c 0,47,48
 1343 8 1343 8 1293 8 c 128,-1,49
 1243 8 1243 8 1223 25.5 c 128,-1,50
 1203 43 1203 43 1193 71.5 c 0,51,52
 1179 111.4 1179 111.4 1179 172.7 c 128,-1,53
 1179 234 1179 234 1181.5 262.5 c 128,-1,54
 1184 291 1184 291 1188.5 324 c 128,-1,55
 1193 357 1193 357 1199 392.5 c 2,56,-1
 1211 461 l 1,57,58
 1130.23 266.2 1130.23 266.2 1061.61 176.1 c 128,-1,59
 993 86 993 86 938 45.5 c 128,-1,60
 883 5 883 5 828 5 c 128,-1,61
 773 5 773 5 722 30.5 c 0,62,63
 612.985 85.0073 612.985 85.0073 565.5 242 c 0,64,65
 542.849 316.887 542.849 316.887 542.849 371.255 c 128,-1,66
 542.849 425.623 542.849 425.623 543.425 466.311 c 128,-1,67
 544 507 544 507 559.5 584 c 128,-1,68
 575 661 575 661 604.5 734 c 128,-1,69
 634 807 634 807 678 872 c 128,-1,70
 722 937 722 937 782 986 c 0,71,72
 911.796 1092 911.796 1092 1086 1092 c 0,73,74
 1176.95 1092 1176.95 1092 1237.48 1071.5 c 128,-1,75
 1298 1051 1298 1051 1319 1038 c 1,76,-1
 1447 1062 l 1,77,78
 1379.93 802.657 1379.93 802.657 1333 446 c 0,79,80
 1314 297.8 1314 297.8 1314 219.4 c 128,-1,81
 1314 141 1314 141 1353 141 c 0,0,1
725 208 m 128,-1,83
 769 123 769 123 847 122 c 1,84,85
 951.611 122 951.611 122 1094.5 409.5 c 0,86,87
 1225.36 672.805 1225.36 672.805 1282 926 c 1,88,89
 1243.22 973.086 1243.22 973.086 1131 990.5 c 0,90,91
 1102 995 1102 995 1058.5 995 c 128,-1,92
 1015 995 1015 995 960 971 c 128,-1,93
 905 947 905 947 861 906.5 c 128,-1,94
 817 866 817 866 783 812 c 128,-1,95
 749 758 749 758 726.5 696.5 c 0,96,97
 681 572.133 681 572.133 681 432.567 c 128,-1,82
 681 293 681 293 725 208 c 128,-1,83
EndSplineSet
EndChar

StartChar: A
Encoding: 65 65 31
Width: 1265
Flags: HW
LayerCount: 2
Fore
SplineSet
695 1530 m 1,0,-1
 863 1530 l 1,1,-1
 1152 0 l 1,2,-1
 1002 0 l 1,3,-1
 926 431 l 1,4,-1
 312 431 l 1,5,-1
 111 0 l 1,6,-1
 -50 0 l 1,7,-1
 695 1530 l 1,0,-1
906 546 m 1,8,-1
 777 1280 l 1,9,-1
 762 1395 l 1,10,-1
 366 546 l 1,11,-1
 906 546 l 1,8,-1
EndSplineSet
EndChar

StartChar: B
Encoding: 66 66 32
Width: 1240
Flags: HW
LayerCount: 2
Fore
SplineSet
458 -14 m 1,0,-1
 191 0 l 1,1,-1
 121 0 l 1,2,-1
 314 1530 l 1,3,-1
 396 1530 l 1,4,5
 467 1531 467 1531 540.5 1538.5 c 128,-1,6
 614 1546 614 1546 717.5 1546 c 128,-1,7
 821 1546 821 1546 906.5 1518.5 c 128,-1,8
 992 1491 992 1491 1043.5 1445.5 c 0,9,10
 1139.04 1361.09 1139.04 1361.09 1139.04 1210.9 c 0,11,12
 1139.04 973.343 1139.04 973.343 952 858 c 0,13,14
 892 821 892 821 819 800 c 1,15,16
 948.756 785.583 948.756 785.583 1036.5 703 c 0,17,18
 1131.08 613.987 1131.08 613.987 1131.08 482.165 c 128,-1,19
 1131.08 350.343 1131.08 350.343 1081.54 256.171 c 128,-1,20
 1032 162 1032 162 941.5 101.5 c 0,21,22
 768.727 -14 768.727 -14 458 -14 c 1,0,-1
453.333 845.667 m 2,23,-1
 612 847 l 1,24,25
 776.867 847 776.867 847 880 938 c 0,26,27
 988.033 1033.32 988.033 1033.32 988.033 1195.29 c 0,28,29
 988.033 1379.53 988.033 1379.53 809 1425 c 0,30,31
 746 1441 746 1441 695.5 1441 c 128,-1,32
 645 1441 645 1441 620 1440 c 128,-1,33
 595 1439 595 1439 565.5 1437 c 2,34,-1
 505 1433 l 2,35,36
 474 1431 474 1431 451 1428 c 1,37,-1
 378 847 l 1,38,39
 413.333 845.667 413.333 845.667 453.333 845.667 c 2,23,-1
286 113 m 1,40,41
 346.8 94 346.8 94 469.4 94 c 128,-1,42
 592 94 592 94 680 113.5 c 0,43,44
 863.939 154.259 863.939 154.259 935 293.5 c 0,45,46
 971.026 364.092 971.026 364.092 971.026 466.444 c 0,47,48
 971.026 600.269 971.026 600.269 874 672.5 c 0,49,50
 784.672 739 784.672 739 626 739 c 0,51,52
 478 739 478 739 364 733 c 1,53,-1
 286 113 l 1,40,41
EndSplineSet
EndChar

StartChar: C
Encoding: 67 67 33
Width: 1141
Flags: HW
LayerCount: 2
Fore
SplineSet
1038 83 m 1,0,1
 879.692 -15 879.692 -15 622 -15 c 0,2,3
 358.008 -15 358.008 -15 225 189.5 c 0,4,5
 109.667 366.825 109.667 366.825 109.667 657.253 c 0,6,7
 109.667 904.244 109.667 904.244 200 1109 c 0,8,9
 290.218 1313.49 290.218 1313.49 455.5 1429.5 c 0,10,11
 621.487 1546 621.487 1546 824 1546 c 0,12,13
 948.059 1546 948.059 1546 1043.5 1516.5 c 2,14,-1
 1147 1484 l 1,15,-1
 1094 1358 l 1,16,-1
 1055.5 1375.5 l 1,17,18
 960.143 1420 960.143 1420 840.072 1420 c 128,-1,19
 720 1420 720 1420 640.5 1386.5 c 128,-1,20
 561 1353 561 1353 498.5 1295.5 c 128,-1,21
 436 1238 436 1238 391 1161.5 c 0,22,23
 263.742 945.161 263.742 945.161 263.742 664.527 c 0,24,25
 263.742 276.739 263.742 276.739 476 148.5 c 0,26,27
 548 105 548 105 629.5 105 c 128,-1,28
 711 105 711 105 768 116 c 128,-1,29
 825 127 825 127 873 143.5 c 0,30,31
 964.566 174.976 964.566 174.976 1015 211 c 1,32,-1
 1038 83 l 1,0,1
EndSplineSet
EndChar

StartChar: D
Encoding: 68 68 34
Width: 1377
Flags: HW
LayerCount: 2
Fore
SplineSet
401 1530 m 1,0,-1
 722 1546 l 1,1,2
 1013.87 1546 1013.87 1546 1160.5 1373 c 0,3,4
 1298.15 1210.59 1298.15 1210.59 1298.15 902.132 c 0,5,6
 1298.15 513.211 1298.15 513.211 1088.5 250 c 0,7,8
 949.035 74.9047 949.035 74.9047 743 12.5 c 0,9,10
 648.043 -16.2609 648.043 -16.2609 542.25 -16.2609 c 0,11,12
 514.783 -16.2609 514.783 -16.2609 498.391 -15.1304 c 2,13,-1
 436 -11 l 2,14,15
 401 -8.66667 401 -8.66667 369.5 -6.33333 c 128,-1,16
 338 -4 338 -4 308 -3 c 2,17,-1
 248.5 -1 l 2,18,19
 219 0 219 0 198 0 c 2,20,-1
 121 0 l 1,21,-1
 314 1530 l 1,22,-1
 401 1530 l 1,0,-1
287 125 m 1,23,24
 445 98.6667 445 98.6667 496.333 98.6667 c 128,-1,25
 547.667 98.6667 547.667 98.6667 558 99 c 0,26,27
 743.395 102.784 743.395 102.784 884.5 224.5 c 0,28,29
 1009.51 332.332 1009.51 332.332 1079.5 524 c 0,30,31
 1142.06 695.32 1142.06 695.32 1142.06 897.884 c 0,32,33
 1142.06 1181.17 1142.06 1181.17 1032.5 1308.5 c 0,34,35
 924.512 1434 924.512 1434 679 1434 c 0,36,37
 605.571 1434 605.571 1434 539.286 1426 c 2,38,-1
 449 1415 l 1,39,-1
 287 125 l 1,23,24
EndSplineSet
EndChar

StartChar: E
Encoding: 69 69 35
Width: 1138
Flags: HW
LayerCount: 2
Fore
SplineSet
314 1530 m 1,0,-1
 1070 1530 l 1,1,-1
 1064 1410 l 1,2,-1
 450 1417 l 1,3,-1
 377 838 l 1,4,-1
 851 844 l 1,5,-1
 842 717 l 1,6,-1
 363 728 l 1,7,-1
 285 114 l 1,8,-1
 1022 127 l 1,9,-1
 1011 0 l 1,10,-1
 121 0 l 1,11,-1
 314 1530 l 1,0,-1
EndSplineSet
EndChar

StartChar: F
Encoding: 70 70 36
Width: 1057
Flags: HW
LayerCount: 2
Fore
SplineSet
314 1530 m 1,0,-1
 1093 1530 l 1,1,-1
 1082 1410 l 1,2,-1
 450 1417 l 1,3,-1
 377 835 l 1,4,-1
 885 843 l 1,5,-1
 875 713 l 1,6,-1
 363 725 l 1,7,-1
 271 0 l 1,8,-1
 121 0 l 1,9,-1
 314 1530 l 1,0,-1
EndSplineSet
EndChar

StartChar: G
Encoding: 71 71 37
Width: 1340
Flags: HW
LayerCount: 2
Fore
SplineSet
1199 1342 m 1,0,1
 1060.23 1424 1060.23 1424 843 1424 c 0,2,3
 656.714 1424 656.714 1424 518.5 1304 c 0,4,5
 331.009 1141.22 331.009 1141.22 279.5 830.5 c 0,6,7
 264.939 742.667 264.939 742.667 264.939 696.151 c 128,-1,8
 264.939 649.636 264.939 649.636 265.47 596.818 c 128,-1,9
 266 544 266 544 286 447 c 128,-1,10
 306 350 306 350 351 273 c 0,11,12
 451.519 101 451.519 101 643 101 c 0,13,14
 785.562 101 785.562 101 1014 186 c 1,15,-1
 1068 607 l 1,16,-1
 787 608 l 1,17,-1
 802 729 l 1,18,-1
 1232 729 l 1,19,-1
 1150 94 l 1,20,21
 1121 91 1121 91 1087.5 82 c 2,22,-1
 930.5 36.5 l 1,23,24
 630.162 -54.6139 630.162 -54.6139 454 9 c 0,25,26
 252.547 81.7471 252.547 81.7471 165 322.5 c 0,27,28
 111.679 469.134 111.679 469.134 111.679 623.076 c 128,-1,29
 111.679 777.018 111.679 777.018 135.339 892.009 c 128,-1,30
 159 1007 159 1007 206 1109 c 128,-1,31
 253 1211 253 1211 319.5 1292 c 128,-1,32
 386 1373 386 1373 468.5 1429.5 c 0,33,34
 638.611 1546 638.611 1546 845 1546 c 0,35,36
 1036.12 1546 1036.12 1546 1208 1491 c 1,37,-1
 1247 1479 l 1,38,-1
 1199 1342 l 1,0,1
EndSplineSet
EndChar

StartChar: H
Encoding: 72 72 38
Width: 1410
Flags: HW
LayerCount: 2
Fore
SplineSet
314 1530 m 1,0,-1
 464 1530 l 1,1,-1
 375 829 l 1,2,-1
 1101 829 l 1,3,-1
 1190 1530 l 1,4,-1
 1340 1530 l 1,5,-1
 1148 0 l 1,6,-1
 997 0 l 1,7,-1
 1087 714 l 1,8,-1
 361 714 l 1,9,-1
 271 0 l 1,10,-1
 121 0 l 1,11,-1
 314 1530 l 1,0,-1
EndSplineSet
EndChar

StartChar: I
Encoding: 73 73 39
Width: 572
Flags: HW
LayerCount: 2
Fore
SplineSet
338 1530 m 1,0,-1
 489 1530 l 1,1,-1
 296 0 l 1,2,-1
 145 0 l 1,3,-1
 338 1530 l 1,0,-1
EndSplineSet
EndChar

StartChar: J
Encoding: 74 74 40
Width: 584
Flags: HW
LayerCount: 2
Fore
SplineSet
168.5 108 m 0,0,1
 184 182 184 182 202.5 296.5 c 128,-1,2
 221 411 221 411 237.5 535 c 128,-1,3
 254 659 254 659 269 789.5 c 2,4,-1
 324 1298.5 l 2,5,6
 337 1421 337 1421 350 1530 c 1,7,-1
 501 1530 l 1,8,9
 450.481 1073.28 450.481 1073.28 428.74 897.639 c 2,10,11
 389.5 586.5 l 1,12,13
 334.119 157.694 334.119 157.694 306.56 64.8472 c 128,-1,14
 279 -28 279 -28 233 -98 c 128,-1,15
 187 -168 187 -168 129 -213.5 c 0,16,17
 26.4064 -293.983 26.4064 -293.983 -141 -323 c 1,18,-1
 -169 -255 l 1,19,20
 -32.0528 -217.48 -32.0528 -217.48 59.5 -116 c 0,21,22
 140.353 -26.38 140.353 -26.38 168.5 108 c 0,0,1
EndSplineSet
EndChar

StartChar: K
Encoding: 75 75 41
Width: 1245
Flags: HW
LayerCount: 2
Fore
SplineSet
314 1530 m 1,0,-1
 464 1530 l 1,1,-1
 359 702 l 1,2,-1
 1105 1530 l 1,3,-1
 1283 1530 l 1,4,-1
 661 854 l 1,5,6
 1066 150.5 l 2,7,8
 1117 63 1117 63 1163 0 c 1,9,-1
 982 0 l 1,10,11
 974 8 974 8 956.5 38.5 c 0,12,13
 594.953 696.38 594.953 696.38 564 749 c 1,14,-1
 333 497 l 1,15,-1
 271 0 l 1,16,-1
 121 0 l 1,17,-1
 314 1530 l 1,0,-1
EndSplineSet
EndChar

StartChar: L
Encoding: 76 76 42
Width: 978
Flags: HW
LayerCount: 2
Fore
SplineSet
314 1530 m 1,0,-1
 464 1530 l 1,1,-1
 287 126 l 1,2,-1
 880 130 l 1,3,-1
 864 0 l 1,4,-1
 121 0 l 1,5,-1
 314 1530 l 1,0,-1
EndSplineSet
EndChar

StartChar: M
Encoding: 77 77 43
Width: 1791
Flags: HW
LayerCount: 2
Fore
SplineSet
452 1530 m 1,0,-1
 646 1530 l 1,1,-1
 819 462 l 1,2,-1
 850 226 l 1,3,-1
 942 460 l 1,4,-1
 1402 1530 l 1,5,-1
 1620 1530 l 1,6,-1
 1576 0 l 1,7,-1
 1423 0 l 1,8,-1
 1472 1022 l 1,9,-1
 1496 1431 l 1,10,-1
 872 -4 l 1,11,-1
 765 -18 l 1,12,-1
 595 1045 l 1,13,-1
 545 1431 l 1,14,-1
 468 1037 l 1,15,-1
 225 0 l 1,16,-1
 72 0 l 1,17,-1
 452 1530 l 1,0,-1
EndSplineSet
EndChar

StartChar: N
Encoding: 78 78 44
Width: 1402
Flags: HW
LayerCount: 2
Fore
SplineSet
314 1530 m 1,0,-1
 472 1530 l 1,1,-1
 963 403 l 1,2,-1
 1035 196 l 1,3,-1
 1056 434 l 1,4,-1
 1190 1530 l 1,5,-1
 1333 1530 l 1,6,-1
 1140 0 l 1,7,-1
 991 0 l 1,8,-1
 497 1122 l 1,9,-1
 425 1361 l 1,10,-1
 396 1073 l 1,11,-1
 262 0 l 1,12,-1
 121 0 l 1,13,-1
 314 1530 l 1,0,-1
EndSplineSet
EndChar

StartChar: O
Encoding: 79 79 45
Width: 1378
Flags: HW
LayerCount: 2
Fore
SplineSet
597 -17 m 0,0,1
 486 -17 486 -17 395 31 c 128,-1,2
 304 79 304 79 242 163.5 c 0,3,4
 111.654 341.149 111.654 341.149 111.654 643.526 c 0,5,6
 111.654 1019.93 111.654 1019.93 307.5 1279 c 0,7,8
 436.532 1449.69 436.532 1449.69 620 1514.5 c 0,9,10
 712 1547 712 1547 822.5 1547 c 128,-1,11
 933 1547 933 1547 1023.5 1497 c 128,-1,12
 1114 1447 1114 1447 1174.5 1361 c 0,13,14
 1300.17 1182.36 1300.17 1182.36 1300.17 893.945 c 0,15,16
 1300.17 513.346 1300.17 513.346 1111 254 c 0,17,18
 913.329 -17 913.329 -17 597 -17 c 0,0,1
1143.22 864.302 m 0,19,20
 1143.22 1427 1143.22 1427 789 1427 c 0,21,22
 564.669 1427 564.669 1427 412 1191.5 c 0,23,24
 318.584 1047.4 318.584 1047.4 284 846 c 0,25,26
 268.789 757.421 268.789 757.421 268.789 705.684 c 128,-1,27
 268.789 653.947 268.789 653.947 269 643 c 0,28,29
 273 368 273 368 366 233.5 c 128,-1,30
 459 99 459 99 629 99 c 0,31,32
 855.848 99 855.848 99 1004 332.5 c 0,33,34
 1143.22 551.926 1143.22 551.926 1143.22 864.302 c 0,19,20
EndSplineSet
EndChar

StartChar: P
Encoding: 80 80 46
Width: 1180
Flags: HW
LayerCount: 2
Fore
SplineSet
402 1530 m 1,0,-1
 709 1546 l 1,1,2
 1160.14 1546 1160.14 1546 1166 1157 c 0,3,4
 1166.19 1147.72 1166.19 1147.72 1166.19 1138.55 c 0,5,6
 1166.19 861.664 1166.19 861.664 998 694.5 c 0,7,8
 828.466 526 828.466 526 552 526 c 0,9,10
 485.2 526 485.2 526 439.6 530 c 2,11,-1
 372.5 536 l 2,12,13
 351 538 351 538 340 540 c 1,14,-1
 271 0 l 1,15,-1
 121 0 l 1,16,-1
 314 1530 l 1,17,-1
 402 1530 l 1,0,-1
1014.01 1146.43 m 0,18,19
 1014.01 1433 1014.01 1433 686 1433 c 0,20,21
 628 1433 628 1433 551.5 1424.5 c 2,22,-1
 449 1413 l 1,23,-1
 355 662 l 1,24,25
 440 645 440 645 557 645 c 0,26,27
 781 646 781 646 897.081 776.213 c 128,-1,28
 1013.16 906.426 1013.16 906.426 1014.01 1146.43 c 0,18,19
EndSplineSet
EndChar

StartChar: Q
Encoding: 81 81 47
Width: 1378
Flags: HW
LayerCount: 2
Fore
SplineSet
1217 -185 m 1,0,-1
 1217 -302 l 1,1,2
 1161.65 -340.745 1161.65 -340.745 999.5 -355 c 0,3,4
 954 -359 954 -359 897.5 -359 c 128,-1,5
 841 -359 841 -359 776.5 -338 c 0,6,7
 639.295 -293.329 639.295 -293.329 591.5 -167.5 c 0,8,9
 574.592 -122.986 574.592 -122.986 574.592 -82.9718 c 128,-1,10
 574.592 -42.9577 574.592 -42.9577 578 -16 c 1,11,12
 359.751 -4.41155 359.751 -4.41155 235.5 174 c 0,13,14
 111.654 351.83 111.654 351.83 111.654 643.526 c 0,15,16
 111.654 1019.93 111.654 1019.93 307.5 1279 c 0,17,18
 436.532 1449.69 436.532 1449.69 620 1514.5 c 0,19,20
 712 1547 712 1547 822.5 1547 c 128,-1,21
 933 1547 933 1547 1023.5 1497 c 128,-1,22
 1114 1447 1114 1447 1174.5 1361 c 0,23,24
 1300.19 1182.33 1300.19 1182.33 1300.19 892.606 c 0,25,26
 1300.19 541.889 1300.19 541.889 1135 289 c 0,27,28
 1054 165 1054 165 939.5 86.5 c 128,-1,29
 825 8 825 8 686 -11 c 1,30,31
 686 -131.18 686 -131.18 787.5 -182.5 c 0,32,33
 861.667 -220 861.667 -220 994.611 -220 c 128,-1,34
 1127.56 -220 1127.56 -220 1217 -185 c 1,0,-1
1143.22 864.302 m 0,35,36
 1143.22 1427 1143.22 1427 789 1427 c 0,37,38
 564.669 1427 564.669 1427 412 1191.5 c 0,39,40
 318.584 1047.4 318.584 1047.4 284 846 c 0,41,42
 268.789 757.421 268.789 757.421 268.789 705.684 c 128,-1,43
 268.789 653.947 268.789 653.947 269 643 c 0,44,45
 273 368 273 368 366 233.5 c 128,-1,46
 459 99 459 99 629 99 c 0,47,48
 855.848 99 855.848 99 1004 332.5 c 0,49,50
 1143.22 551.926 1143.22 551.926 1143.22 864.302 c 0,35,36
EndSplineSet
EndChar

StartChar: R
Encoding: 82 82 48
Width: 1256
Flags: HW
LayerCount: 2
Fore
SplineSet
388 1530 m 1,0,-1
 698 1546 l 1,1,2
 925 1546 925 1546 1045.5 1457 c 0,3,4
 1169.15 1365.67 1169.15 1365.67 1169.15 1179.99 c 0,5,6
 1169.15 999.01 1169.15 999.01 1072.5 864.5 c 0,7,8
 971.208 723.526 971.208 723.526 799 678 c 1,9,10
 871.725 613.831 871.725 613.831 966 386 c 1,11,12
 1090.4 92.042 1090.4 92.042 1111.2 53.521 c 128,-1,13
 1132 15 1132 15 1144 -1 c 1,14,-1
 972 1 l 1,15,16
 946.776 38.8358 946.776 38.8358 914.388 118.418 c 2,17,-1
 859 258 l 1,18,19
 759.773 535.835 759.773 535.835 682 619.5 c 0,20,21
 649 655 649 655 615 656 c 1,22,-1
 576.5 656 l 2,23,24
 545 656 545 656 504.5 656.5 c 2,25,-1
 422 657.5 l 2,26,27
 380 658 380 658 353 658 c 1,28,-1
 271 0 l 1,29,-1
 120 0 l 1,30,-1
 312 1530 l 1,31,-1
 388 1530 l 1,0,-1
368 779 m 1,32,33
 410 777 410 777 478 777 c 0,34,35
 557 777 557 777 640.5 777 c 128,-1,36
 724 777 724 777 793.5 807.5 c 0,37,38
 933.5 868.939 933.5 868.939 983.5 1022 c 0,39,40
 1006.15 1091.34 1006.15 1091.34 1006.15 1135.77 c 128,-1,41
 1006.15 1180.21 1006.15 1180.21 1006 1187 c 0,42,43
 1002.02 1430 1002.02 1430 677 1430 c 0,44,45
 600 1430 600 1430 448 1414 c 1,46,-1
 368 779 l 1,32,33
EndSplineSet
EndChar

StartChar: S
Encoding: 83 83 49
Width: 1044
Flags: HW
LayerCount: 2
Fore
SplineSet
71 196 m 1,0,1
 122.947 140.342 122.947 140.342 299 111 c 0,2,3
 353 102 353 102 414.5 102 c 128,-1,4
 476 102 476 102 540.5 117.5 c 128,-1,5
 605 133 605 133 655 166 c 0,6,7
 765 238.6 765 238.6 765 374 c 0,8,9
 765 516.593 765 516.593 625.5 628.5 c 0,10,11
 580 665 580 665 523 702 c 128,-1,12
 466 739 466 739 407.5 781 c 128,-1,13
 349 823 349 823 300.5 876.5 c 0,14,15
 186.89 1001.82 186.89 1001.82 186.89 1161.24 c 0,16,17
 186.89 1336.35 186.89 1336.35 315.5 1443 c 0,18,19
 440.912 1547 440.912 1547 645 1547 c 0,20,21
 873.308 1547 873.308 1547 991 1462 c 1,22,-1
 943 1346 l 1,23,24
 882.23 1406.77 882.23 1406.77 737.5 1425.5 c 0,25,26
 695 1431 695 1431 652 1431 c 128,-1,27
 609 1431 609 1431 554.5 1421.5 c 128,-1,28
 500 1412 500 1412 452.5 1386 c 0,29,30
 337.814 1323.22 337.814 1323.22 337.814 1177.5 c 0,31,32
 337.814 1062.28 337.814 1062.28 411.5 978.5 c 0,33,34
 462.784 920.191 462.784 920.191 563.392 854.095 c 128,-1,35
 664 788 664 788 719 748.5 c 128,-1,36
 774 709 774 709 818.5 660 c 0,37,38
 922.098 545.926 922.098 545.926 922.098 400.72 c 0,39,40
 922.098 203.16 922.098 203.16 776 91.5 c 0,41,42
 635.346 -16 635.346 -16 404 -16 c 0,43,44
 222.613 -16 222.613 -16 82.5 43.5 c 0,45,46
 46 59 46 59 29 73 c 1,47,-1
 71 196 l 1,0,1
EndSplineSet
EndChar

StartChar: T
Encoding: 84 84 50
Width: 1122
Flags: HW
LayerCount: 2
Fore
SplineSet
589 1419 m 1,0,-1
 138 1410 l 1,1,-1
 155 1530 l 1,2,-1
 1199 1530 l 1,3,-1
 1182 1410 l 1,4,-1
 739 1419 l 1,5,-1
 560 0 l 1,6,-1
 410 0 l 1,7,-1
 589 1419 l 1,0,-1
EndSplineSet
EndChar

StartChar: U
Encoding: 85 85 51
Width: 1360
Flags: HW
LayerCount: 2
Fore
SplineSet
409.5 13 m 0,0,1
 153.8 105.982 153.8 105.982 153.8 437.78 c 0,2,3
 153.8 483.2 153.8 483.2 166 593 c 1,4,-1
 285 1530 l 1,5,-1
 435 1530 l 1,6,-1
 320 619 l 2,7,8
 307.929 518.714 307.929 518.714 307.929 476.321 c 128,-1,9
 307.929 433.929 307.929 433.929 308.464 393.464 c 128,-1,10
 309 353 309 353 329 293 c 128,-1,11
 349 233 349 233 388 191.5 c 0,12,13
 468.349 106 468.349 106 623 106 c 0,14,15
 810.906 106 810.906 106 913 227 c 0,16,17
 1019.71 353.474 1019.71 353.474 1057 640 c 1,18,-1
 1169 1530 l 1,19,-1
 1316 1530 l 1,20,-1
 1202 627 l 1,21,22
 1156.89 279.877 1156.89 279.877 1008.5 127.5 c 0,23,24
 867.778 -17 867.778 -17 602 -17 c 0,25,26
 492 -17 492 -17 409.5 13 c 0,0,1
EndSplineSet
EndChar

StartChar: V
Encoding: 86 86 52
Width: 1169
Flags: HW
LayerCount: 2
Fore
SplineSet
154 1530 m 1,0,-1
 304 1530 l 1,1,-1
 472 434 l 1,2,-1
 511 152 l 1,3,-1
 626 434 l 1,4,-1
 1104 1530 l 1,5,-1
 1264 1530 l 1,6,-1
 569 -4 l 1,7,-1
 408 -5 l 1,8,-1
 154 1530 l 1,0,-1
EndSplineSet
EndChar

StartChar: W
Encoding: 87 87 53
Width: 1770
Flags: HW
LayerCount: 2
Fore
SplineSet
149 1530 m 1,0,-1
 299 1530 l 1,1,-1
 445 434 l 1,2,-1
 485 166 l 1,3,-1
 571 425 l 1,4,-1
 923 1304 l 1,5,-1
 900 1530 l 1,6,-1
 1044 1530 l 1,7,-1
 1153 434 l 1,8,-1
 1173 166 l 1,9,-1
 1272 425 l 1,10,-1
 1715 1530 l 1,11,-1
 1867 1530 l 1,12,-1
 1220 -10 l 1,13,-1
 1066 -10 l 1,14,-1
 977 850 l 1,15,-1
 959 1086 l 1,16,-1
 875 850 l 1,17,-1
 535 -10 l 1,18,-1
 380 -10 l 1,19,-1
 149 1530 l 1,0,-1
EndSplineSet
EndChar

StartChar: X
Encoding: 88 88 54
Width: 1147
Flags: HW
LayerCount: 2
Fore
SplineSet
520 788 m 1,0,-1
 197 1530 l 1,1,-1
 363 1530 l 1,2,-1
 618 895 l 1,3,-1
 1042 1530 l 1,4,-1
 1212 1530 l 1,5,-1
 676 758 l 1,6,-1
 1024 0 l 1,7,-1
 852 0 l 1,8,-1
 578 656 l 1,9,-1
 148 0 l 1,10,-1
 -35 0 l 1,11,-1
 520 788 l 1,0,-1
EndSplineSet
EndChar

StartChar: Y
Encoding: 89 89 55
Width: 1083
Flags: HW
LayerCount: 2
Fore
SplineSet
478 585 m 1,0,-1
 105 1530 l 1,1,-1
 266 1530 l 1,2,-1
 527 820 l 1,3,-1
 568 717 l 1,4,-1
 623 819 l 1,5,-1
 1051 1530 l 1,6,-1
 1213 1530 l 1,7,-1
 621 585 l 1,8,-1
 546 0 l 1,9,-1
 402 0 l 1,10,-1
 478 585 l 1,0,-1
EndSplineSet
EndChar

StartChar: Z
Encoding: 90 90 56
Width: 1157
Flags: HW
LayerCount: 2
Fore
SplineSet
15 70 m 1,0,-1
 837 1227 l 1,1,-1
 988 1413 l 1,2,-1
 244 1402 l 1,3,-1
 260 1530 l 1,4,-1
 1163 1530 l 1,5,-1
 1182 1464 l 1,6,-1
 339 269 l 1,7,-1
 215 121 l 1,8,-1
 1027 130 l 1,9,-1
 1006 0 l 1,10,-1
 36 0 l 1,11,-1
 15 70 l 1,0,-1
EndSplineSet
EndChar

StartChar: bracketleft
Encoding: 91 91 57
Width: 854
Flags: HW
LayerCount: 2
Fore
SplineSet
331 -68 m 1,0,-1
 479.5 -69 l 2,1,2
 523 -69 523 -69 563 -69.5 c 128,-1,3
 603 -70 603 -70 627 -70 c 1,4,-1
 620 -136 l 1,5,6
 455.429 -172 455.429 -172 354.214 -172 c 128,-1,7
 253 -172 253 -172 223.5 -149 c 128,-1,8
 194 -126 194 -126 194 -76 c 128,-1,9
 194 -26 194 -26 197 23 c 128,-1,10
 200 72 200 72 209 149.5 c 128,-1,11
 218 227 218 227 230.5 322.5 c 128,-1,12
 243 418 243 418 259 526 c 2,13,-1
 386 1369 l 2,14,15
 399 1456 399 1456 406.5 1515 c 128,-1,16
 414 1574 414 1574 425.5 1610.5 c 128,-1,17
 437 1647 437 1647 457 1669 c 0,18,19
 494.273 1710 494.273 1710 583 1710 c 0,20,21
 659.75 1710 659.75 1710 756.875 1691.5 c 128,-1,22
 854 1673 854 1673 862 1673 c 1,23,-1
 853 1607 l 1,24,-1
 561 1607 l 1,25,-1
 331 -68 l 1,0,-1
EndSplineSet
EndChar

StartChar: backslash
Encoding: 92 92 58
Width: 854
Flags: HW
LayerCount: 2
Fore
SplineSet
622 -362 m 1,0,-1
 46 1597 l 1,1,-1
 178 1597 l 1,2,-1
 755 -362 l 1,3,-1
 622 -362 l 1,0,-1
EndSplineSet
EndChar

StartChar: asciicircum
Encoding: 94 94 60
Width: 1358
Flags: HW
LayerCount: 2
Fore
SplineSet
704 1530 m 1,0,-1
 857 1530 l 1,1,-1
 1124 510 l 1,2,-1
 993 510 l 1,3,-1
 767 1385 l 1,4,-1
 321 510 l 1,5,-1
 186 510 l 1,6,-1
 704 1530 l 1,0,-1
EndSplineSet
EndChar

StartChar: underscore
Encoding: 95 95 61
Width: 1335
Flags: HW
LayerCount: 2
Fore
SplineSet
1282 -223 m 1,0,-1
 1267 -338 l 1,1,-1
 -111 -338 l 1,2,-1
 -96 -223 l 1,3,-1
 1282 -223 l 1,0,-1
EndSplineSet
EndChar

StartChar: grave
Encoding: 96 96 62
Width: 541
Flags: HW
LayerCount: 2
Fore
SplineSet
416 1249 m 1,0,1
 367.529 1281.31 367.529 1281.31 315.765 1329.16 c 0,2,3
 164.659 1472.47 164.659 1472.47 125.329 1522.24 c 128,-1,4
 86 1572 86 1572 72 1597 c 1,5,-1
 187 1701 l 1,6,-1
 481 1304 l 1,7,-1
 416 1249 l 1,0,1
EndSplineSet
EndChar

StartChar: a
Encoding: 97 97 63
Width: 1130
Flags: HW
LayerCount: 2
Fore
SplineSet
514.5 1123 m 0,0,1
 604 1156 604 1156 706.8 1156 c 128,-1,2
 809.6 1156 809.6 1156 928 1119 c 1,3,-1
 1041 1156 l 1,4,-1
 884 0 l 1,5,-1
 753 0 l 1,6,-1
 772 202 l 1,7,-1
 772 205 l 1,8,9
 671.521 59.8633 671.521 59.8633 516.5 4 c 0,10,11
 461 -16 461 -16 389.5 -16 c 128,-1,12
 318 -16 318 -16 258 15 c 128,-1,13
 198 46 198 46 158.5 103 c 0,14,15
 81 214.835 81 214.835 81 415 c 0,16,17
 81 685.311 81 685.311 232.5 903 c 0,18,19
 341.117 1059.07 341.117 1059.07 514.5 1123 c 0,0,1
235 433 m 0,20,21
 235 100 235 100 424 100 c 0,22,23
 536.122 100 536.122 100 648.5 197 c 0,24,25
 733.83 270.653 733.83 270.653 791 372 c 1,26,-1
 811 557 l 1,27,-1
 875 1008 l 1,28,29
 790.059 1046 790.059 1046 702.529 1046 c 128,-1,30
 615 1046 615 1046 551.5 1019.5 c 128,-1,31
 488 993 488 993 437.5 947.5 c 128,-1,32
 387 902 387 902 349 841.5 c 128,-1,33
 311 781 311 781 285.5 713 c 0,34,35
 235 578.333 235 578.333 235 433 c 0,20,21
EndSplineSet
Substitution2: "Single Substitution lookup 16 subtable" ordfeminine
Substitution2: "'aalt' Access All Alternates in Latin lookup 0 subtable" ordfeminine
EndChar

StartChar: b
Encoding: 98 98 64
Width: 1159
Flags: HW
LayerCount: 2
Fore
SplineSet
619 17 m 0,0,1
 529 -16 529 -16 418.5 -16 c 128,-1,2
 308 -16 308 -16 179 27 c 1,3,-1
 95 2 l 1,4,-1
 313 1637 l 1,5,-1
 454 1637 l 1,6,-1
 396 1147 l 1,7,-1
 361 939 l 1,8,9
 463.363 1081.58 463.363 1081.58 622.5 1136.5 c 0,10,11
 679 1156 679 1156 751 1156 c 128,-1,12
 823 1156 823 1156 883 1124.5 c 128,-1,13
 943 1093 943 1093 982.5 1036 c 0,14,15
 1060 924.165 1060 924.165 1060 723 c 0,16,17
 1060 455.181 1060 455.181 904.5 236 c 0,18,19
 794.881 81.4898 794.881 81.4898 619 17 c 0,0,1
906 706 m 0,20,21
 906 1040 906 1040 716 1040 c 0,22,23
 605.584 1040 605.584 1040 494 950.5 c 0,24,25
 409.2 882.483 409.2 882.483 347 784 c 1,26,-1
 259 129 l 1,27,28
 339.294 94 339.294 94 430.147 94 c 128,-1,29
 521 94 521 94 585.5 121.5 c 128,-1,30
 650 149 650 149 701.5 195.5 c 128,-1,31
 753 242 753 242 791.5 303.5 c 128,-1,32
 830 365 830 365 855.5 433 c 0,33,34
 906 567.667 906 567.667 906 706 c 0,20,21
EndSplineSet
EndChar

StartChar: c
Encoding: 99 99 65
Width: 911
Flags: HW
LayerCount: 2
Fore
SplineSet
241 448 m 0,0,1
 241 98 241 98 483 98 c 0,2,3
 568 98 568 98 636 139 c 128,-1,4
 704 180 704 180 769 245 c 1,5,-1
 819 163 l 1,6,7
 733.115 49.9936 733.115 49.9936 585.5 2.5 c 0,8,9
 528 -16 528 -16 449 -16 c 128,-1,10
 370 -16 370 -16 300.5 15 c 128,-1,11
 231 46 231 46 184 104 c 0,12,13
 89 221.234 89 221.234 89 433 c 0,14,15
 89 696.51 89 696.51 234 912.5 c 0,16,17
 335.306 1063.4 335.306 1063.4 489.5 1124.5 c 0,18,19
 569 1156 569 1156 630 1156 c 128,-1,20
 691 1156 691 1156 720.5 1153.5 c 128,-1,21
 750 1151 750 1151 779 1146 c 0,22,23
 845.808 1134.48 845.808 1134.48 883 1115 c 1,24,-1
 844 987 l 1,25,26
 771.8 1044 771.8 1044 670.4 1044 c 128,-1,27
 569 1044 569 1044 494.5 996 c 128,-1,28
 420 948 420 948 364 866.5 c 0,29,30
 241 687.491 241 687.491 241 448 c 0,0,1
EndSplineSet
EndChar

StartChar: d
Encoding: 100 100 66
Width: 1149
Flags: HW
LayerCount: 2
Fore
SplineSet
519.5 1123 m 0,0,1
 609 1156 609 1156 704.773 1156 c 128,-1,2
 800.545 1156 800.545 1156 896 1131 c 1,3,-1
 966 1637 l 1,4,-1
 1114 1637 l 1,5,-1
 890 0 l 1,6,-1
 758 0 l 1,7,-1
 778 208 l 1,8,9
 673.684 58.9767 673.684 58.9767 517 4 c 0,10,11
 460 -16 460 -16 388 -16 c 128,-1,12
 316 -16 316 -16 256 15.5 c 128,-1,13
 196 47 196 47 156.5 104 c 0,14,15
 79 215.835 79 215.835 79 416 c 0,16,17
 79 684.819 79 684.819 234.5 904 c 0,18,19
 343.95 1058.27 343.95 1058.27 519.5 1123 c 0,0,1
233 434 m 0,20,21
 233 100 233 100 423 100 c 0,22,23
 531.595 100 531.595 100 644 192.5 c 0,24,25
 729.247 262.651 729.247 262.651 791 363 c 1,26,-1
 880 1011 l 1,27,28
 797.412 1047 797.412 1047 707.706 1047 c 128,-1,29
 618 1047 618 1047 553.5 1019.5 c 128,-1,30
 489 992 489 992 437.5 945 c 128,-1,31
 386 898 386 898 347.5 836.5 c 128,-1,32
 309 775 309 775 283.5 707 c 0,33,34
 233 572.333 233 572.333 233 434 c 0,20,21
EndSplineSet
EndChar

StartChar: e
Encoding: 101 101 67
Width: 1031
Flags: HW
LayerCount: 2
Fore
SplineSet
496 102 m 0,0,1
 675.954 102 675.954 102 844 272 c 1,2,-1
 887 186 l 1,3,4
 837.237 114.91 837.237 114.91 734 55.5 c 0,5,6
 609.754 -16 609.754 -16 490.377 -16 c 128,-1,7
 371 -16 371 -16 295.5 24 c 0,8,9
 89.8139 132.973 89.8139 132.973 89.814 425.389 c 0,10,11
 89.814 577.724 89.814 577.724 136.407 714.362 c 128,-1,12
 183 851 183 851 260.5 947.5 c 0,13,14
 427.948 1156 427.948 1156 680 1156 c 0,15,16
 885.396 1156 885.396 1156 942 1004.5 c 0,17,18
 959 959 959 959 959 891 c 128,-1,19
 959 823 959 823 922.5 757.5 c 128,-1,20
 886 692 886 692 826 641.5 c 128,-1,21
 766 591 766 591 689.5 555 c 128,-1,22
 613 519 613 519 534 495 c 0,23,24
 386.602 450.221 386.602 450.221 247 443 c 1,25,26
 246.217 427.87 246.217 427.87 246.217 398.543 c 128,-1,27
 246.217 369.217 246.217 369.217 253.609 316.609 c 128,-1,28
 261 264 261 264 289 214.5 c 0,29,30
 352.636 102 352.636 102 496 102 c 0,0,1
252 550 m 1,31,32
 445.853 556.923 445.853 556.923 615.5 645.5 c 0,33,34
 810 747.053 810 747.053 810 895.027 c 128,-1,35
 810 1043 810 1043 650.109 1043 c 128,-1,36
 490.219 1043 490.219 1043 379.181 888.512 c 128,-1,37
 268.142 734.024 268.142 734.024 252 550 c 1,31,32
EndSplineSet
EndChar

StartChar: f
Encoding: 102 102 68
Width: 695
Flags: HW
LayerCount: 2
Fore
SplineSet
851 1531 m 1,0,1
 805.553 1562.1 805.553 1562.1 728.71 1562.1 c 0,2,3
 723.952 1562.1 723.952 1562.1 697.976 1562.05 c 128,-1,4
 672 1562 672 1562 633 1541 c 128,-1,5
 594 1520 594 1520 564.5 1485 c 0,6,7
 504.493 1413.81 504.493 1413.81 490 1302 c 2,8,-1
 469 1140 l 1,9,-1
 712 1140 l 1,10,-1
 703 1021 l 1,11,-1
 453 1021 l 1,12,-1
 315 0 l 1,13,-1
 167 0 l 1,14,-1
 304 1021 l 1,15,-1
 152 1021 l 1,16,-1
 174 1139 l 1,17,-1
 320 1140 l 1,18,-1
 338 1264 l 1,19,20
 362.512 1451.92 362.512 1451.92 464.5 1563 c 0,21,22
 570.091 1678 570.091 1678 738 1678 c 0,23,24
 832.412 1678 832.412 1678 889 1652 c 1,25,-1
 851 1531 l 1,0,1
EndSplineSet
EndChar

StartChar: g
Encoding: 103 103 69
Width: 1149
Flags: HW
LayerCount: 2
Fore
SplineSet
519.5 1123 m 0,0,1
 609 1156 609 1156 712.286 1156 c 128,-1,2
 815.571 1156 815.571 1156 939 1120 c 1,3,-1
 1055 1156 l 1,4,-1
 879 -89 l 2,5,6
 848.124 -305.13 848.124 -305.13 682 -415.5 c 0,7,8
 547.289 -505 547.289 -505 371 -505 c 0,9,10
 202.5 -505 202.5 -505 115 -470 c 1,11,-1
 153 -344 l 1,12,13
 259.105 -392 259.105 -392 398.553 -392 c 128,-1,14
 538 -392 538 -392 621 -314.5 c 128,-1,15
 704 -237 704 -237 730 -92 c 1,16,-1
 778 207 l 1,17,18
 671.699 58.9376 671.699 58.9376 516.5 4 c 0,19,20
 460 -16 460 -16 388 -16 c 128,-1,21
 316 -16 316 -16 256 15.5 c 128,-1,22
 196 47 196 47 156.5 104 c 0,23,24
 79 215.835 79 215.835 79 416 c 0,25,26
 79 684.819 79 684.819 234.5 904 c 0,27,28
 343.95 1058.27 343.95 1058.27 519.5 1123 c 0,0,1
233 434 m 0,29,30
 233 100 233 100 423 100 c 0,31,32
 581.099 100 581.099 100 726 273.5 c 0,33,34
 764 319 764 319 788 358 c 1,35,-1
 884 1010 l 1,36,37
 799.294 1046 799.294 1046 708.647 1046 c 128,-1,38
 618 1046 618 1046 553.5 1018.5 c 128,-1,39
 489 991 489 991 437.5 944.5 c 128,-1,40
 386 898 386 898 347.5 836 c 128,-1,41
 309 774 309 774 283.5 706 c 0,42,43
 233 571.333 233 571.333 233 434 c 0,29,30
EndSplineSet
EndChar

StartChar: h
Encoding: 104 104 70
Width: 1198
Flags: HW
LayerCount: 2
Fore
SplineSet
308 1637 m 1,0,-1
 456 1637 l 1,1,-1
 401 1158 l 1,2,-1
 357 869 l 1,3,4
 507.113 1063.46 507.113 1063.46 701 1132.5 c 0,5,6
 767 1156 767 1156 832 1156 c 0,7,8
 955 1156 955 1156 1008.51 1085.65 c 128,-1,9
 1062.02 1015.29 1062.02 1015.29 1062.02 875.212 c 0,10,11
 1062.02 872.618 1062.02 872.618 1062.01 857.809 c 128,-1,12
 1062 843 1062 843 1058.5 804.5 c 128,-1,13
 1055 766 1055 766 1049 719.5 c 128,-1,14
 1043 673 1043 673 1035.5 620.5 c 2,15,-1
 1020 513 l 2,16,17
 1014 469 1014 469 1003.5 401 c 2,18,-1
 942 0 l 1,19,-1
 793 0 l 1,20,21
 797 32 797 32 803.5 74 c 0,22,23
 851.895 395.114 851.895 395.114 858.947 439.057 c 128,-1,24
 866 483 866 483 872 524 c 2,25,-1
 885.5 615.5 l 2,26,27
 911 787.2 911 787.2 911 865.6 c 128,-1,28
 911 944 911 944 880.5 981 c 128,-1,29
 850 1018 850 1018 786.5 1018 c 128,-1,30
 723 1018 723 1018 665 993 c 128,-1,31
 607 968 607 968 549 926.5 c 0,32,33
 424.896 837.701 424.896 837.701 343 721 c 1,34,-1
 245 0 l 1,35,-1
 97 0 l 1,36,-1
 308 1637 l 1,0,-1
EndSplineSet
EndChar

StartChar: dotlessi
Encoding: 305 305 72
Width: 564
Flags: HW
LayerCount: 2
Fore
SplineSet
287 1144 m 1,0,-1
 436 1144 l 1,1,-1
 281 0 l 1,2,-1
 133 0 l 1,3,-1
 287 1144 l 1,0,-1
EndSplineSet
EndChar

StartChar: dotaccent
Encoding: 729 729 73
Width: 387
Flags: HW
LayerCount: 2
Fore
SplineSet
190.5 1435.5 m 0,0,1
 170 1426 170 1426 149 1426 c 128,-1,2
 128 1426 128 1426 111.5 1433.5 c 0,3,4
 60.5294 1456.67 60.5294 1456.67 60.5294 1515.26 c 0,5,6
 60.5294 1520.06 60.5294 1520.06 61.2647 1534.53 c 128,-1,7
 62 1549 62 1549 71.5 1570 c 128,-1,8
 81 1591 81 1591 96.5 1606.5 c 0,9,10
 130 1640 130 1640 173.5 1640 c 128,-1,11
 217 1640 217 1640 240.575 1614.5 c 128,-1,12
 264.151 1589 264.151 1589 264.151 1552.11 c 0,13,14
 264.151 1469.63 264.151 1469.63 190.5 1435.5 c 0,0,1
EndSplineSet
EndChar

StartChar: dotlessj
Encoding: 567 567 75
Width: 576
Flags: HW
LayerCount: 2
Fore
SplineSet
-204 -391 m 1,0,1
 -179 -411 -179 -411 -118.5 -411 c 128,-1,2
 -58 -411 -58 -411 -10.5 -375 c 128,-1,3
 37 -339 37 -339 68 -276 c 0,4,5
 118.897 -172.565 118.897 -172.565 149 59 c 1,6,-1
 295 1144 l 1,7,-1
 444 1144 l 1,8,-1
 291 5 l 1,9,10
 238.439 -375.295 238.439 -375.295 39.5 -480 c 0,11,12
 -27 -515 -27 -515 -92 -515 c 0,13,14
 -192.429 -515 -192.429 -515 -244 -477 c 1,15,-1
 -204 -391 l 1,0,1
EndSplineSet
EndChar

StartChar: k
Encoding: 107 107 76
Width: 1023
Flags: HW
LayerCount: 2
Fore
SplineSet
305 1637 m 1,0,-1
 453 1637 l 1,1,-1
 246 0 l 1,2,-1
 97 0 l 1,3,-1
 305 1637 l 1,0,-1
376 628 m 1,4,-1
 375 629 l 1,5,6
 459 678 l 1,7,8
 626.5 778.5 626.5 778.5 709 876 c 1,9,10
 815.561 999.276 815.561 999.276 860 1140 c 1,11,-1
 1003 1140 l 1,12,13
 991.856 1011.85 991.856 1011.85 891 876 c 0,14,15
 773.542 718.271 773.542 718.271 547 605 c 1,16,-1
 967 3 l 1,17,-1
 794 3 l 1,18,-1
 375 628 l 1,19,-1
 376 628 l 1,4,-1
EndSplineSet
EndChar

StartChar: l
Encoding: 108 108 77
Width: 563
Flags: HW
LayerCount: 2
Fore
SplineSet
356 1637 m 1,0,-1
 504 1637 l 1,1,-1
 282 3 l 1,2,-1
 133 3 l 1,3,-1
 356 1637 l 1,0,-1
EndSplineSet
EndChar

StartChar: m
Encoding: 109 109 78
Width: 1782
Flags: HW
LayerCount: 2
Fore
SplineSet
248 1140 m 1,0,-1
 389 1140 l 1,1,-1
 361 887 l 1,2,3
 501.814 1072.46 501.814 1072.46 673.5 1134.5 c 0,4,5
 733 1156 733 1156 792 1156 c 0,6,7
 901 1156 901 1156 954 1099 c 128,-1,8
 1007 1042 1007 1042 1016 925 c 1,9,10
 1150.17 1086 1150.17 1086 1310.5 1138 c 0,11,12
 1366 1156 1366 1156 1421.5 1156 c 128,-1,13
 1477 1156 1477 1156 1520 1140.5 c 128,-1,14
 1563 1125 1563 1125 1591.5 1091.5 c 0,15,16
 1649 1023.91 1649 1023.91 1649 872 c 0,17,18
 1649 768.667 1649 768.667 1626 625.833 c 128,-1,19
 1603 483 1603 483 1597 442.5 c 0,20,21
 1562.33 213.021 1562.33 213.021 1554.66 165.511 c 2,22,-1
 1540.5 76 l 2,23,24
 1534 34 1534 34 1530 3 c 1,25,-1
 1380 3 l 1,26,27
 1384 35 1384 35 1390.5 77 c 0,28,29
 1439.73 401.333 1439.73 401.333 1446.36 442.167 c 128,-1,30
 1453 483 1453 483 1463.5 550.5 c 0,31,32
 1497 765.857 1497 765.857 1497 854.929 c 128,-1,33
 1497 944 1497 944 1467 981 c 128,-1,34
 1437 1018 1437 1018 1379.5 1018 c 128,-1,35
 1322 1018 1322 1018 1277 999.5 c 128,-1,36
 1232 981 1232 981 1185.5 950 c 0,37,38
 1091.68 887.452 1091.68 887.452 1012 791 c 1,39,40
 1007 734 1007 734 996.5 662.5 c 2,41,-1
 975 513 l 2,42,43
 969 469 969 469 959 401.5 c 2,44,-1
 898 3 l 1,45,-1
 749 3 l 1,46,47
 758.077 75.6152 758.077 75.6152 769.038 144.308 c 128,-1,48
 780 213 780 213 787 262 c 128,-1,49
 794 311 794 311 801.5 357 c 2,50,-1
 815 443 l 1,51,-1
 840.5 615.5 l 2,52,53
 866 787.2 866 787.2 866 866.1 c 128,-1,54
 866 945 866 945 836 982 c 128,-1,55
 806 1019 806 1019 746 1019 c 128,-1,56
 686 1019 686 1019 633 994 c 128,-1,57
 580 969 580 969 527 928 c 0,58,59
 416.799 842.75 416.799 842.75 339 725 c 1,60,-1
 241 3 l 1,61,-1
 93 3 l 1,62,-1
 248 1140 l 1,0,-1
EndSplineSet
EndChar

StartChar: n
Encoding: 110 110 79
Width: 1194
Flags: HW
LayerCount: 2
Fore
SplineSet
247 1140 m 1,0,-1
 388 1140 l 1,1,-1
 359 875 l 1,2,3
 508.463 1065.23 508.463 1065.23 700 1133 c 0,4,5
 765 1156 765 1156 830 1156 c 0,6,7
 953 1156 953 1156 1006.51 1086.14 c 128,-1,8
 1060.02 1016.28 1060.02 1016.28 1060.02 877.176 c 0,9,10
 1060.02 874.6 1060.02 874.6 1060.01 859.8 c 128,-1,11
 1060 845 1060 845 1056.5 806 c 128,-1,12
 1053 767 1053 767 1047 720.5 c 128,-1,13
 1041 674 1041 674 1033.5 621 c 2,14,-1
 1018 513 l 2,15,16
 1012 469 1012 469 1001.5 401.5 c 2,17,-1
 941 3 l 1,18,-1
 792 3 l 1,19,20
 801.077 75.6152 801.077 75.6152 812.038 144.308 c 128,-1,21
 823 213 823 213 830 262 c 128,-1,22
 837 311 837 311 844.5 357 c 2,23,-1
 858 443 l 1,24,-1
 883.5 615.5 l 2,25,26
 909 787.2 909 787.2 909 866.1 c 128,-1,27
 909 945 909 945 878.5 981.5 c 128,-1,28
 848 1018 848 1018 783.5 1018 c 128,-1,29
 719 1018 719 1018 660.5 992.5 c 128,-1,30
 602 967 602 967 543.5 924.5 c 0,31,32
 422.76 836.783 422.76 836.783 338 716 c 1,33,-1
 241 3 l 1,34,-1
 93 3 l 1,35,-1
 247 1140 l 1,0,-1
EndSplineSet
EndChar

StartChar: o
Encoding: 111 111 80
Width: 1135
Flags: HW
LayerCount: 2
Fore
SplineSet
317 15 m 0,0,1
 97.8 110.707 97.8 110.707 97.8 462.17 c 0,2,3
 97.8 730.712 97.8 730.712 251 936 c 0,4,5
 354.035 1074.07 354.035 1074.07 501.5 1128.5 c 0,6,7
 576 1156 576 1156 664.5 1156 c 128,-1,8
 753 1156 753 1156 822.5 1125 c 128,-1,9
 892 1094 892 1094 938.5 1035 c 0,10,11
 1035.06 912.489 1035.06 912.489 1035.06 686.008 c 0,12,13
 1035.06 410.178 1035.06 410.178 885 205 c 0,14,15
 723.373 -16 723.373 -16 481 -16 c 0,16,17
 388 -16 388 -16 317 15 c 0,0,1
251.909 459.211 m 0,18,19
 251.909 97 251.909 97 505 97 c 0,20,21
 681.154 97 681.154 97 787.5 294.5 c 0,22,23
 879.091 464.597 879.091 464.597 879.091 680.793 c 0,24,25
 879.091 1044 879.091 1044 635 1044 c 0,26,27
 455.568 1044 455.568 1044 346.5 846 c 0,28,29
 251.909 674.281 251.909 674.281 251.909 459.211 c 0,18,19
EndSplineSet
Substitution2: "Single Substitution lookup 16 subtable" ordmasculine
Substitution2: "'aalt' Access All Alternates in Latin lookup 0 subtable" ordmasculine
EndChar

StartChar: p
Encoding: 112 112 81
Width: 1162
Flags: HW
LayerCount: 2
Fore
SplineSet
616 16.5 m 0,0,1
 526 -16 526 -16 434.9 -16 c 128,-1,2
 343.8 -16 343.8 -16 243 8 c 1,3,-1
 174 -515 l 1,4,-1
 26 -515 l 1,5,-1
 245 1140 l 1,6,-1
 379 1140 l 1,7,-1
 357 935 l 1,8,9
 462.302 1081.67 462.302 1081.67 618.5 1136 c 0,10,11
 676 1156 676 1156 748 1156 c 128,-1,12
 820 1156 820 1156 880 1124.5 c 128,-1,13
 940 1093 940 1093 979.5 1036 c 0,14,15
 1057 924.165 1057 924.165 1057 723 c 0,16,17
 1057 452.2 1057 452.2 901.5 234.5 c 0,18,19
 790.898 79.6577 790.898 79.6577 616 16.5 c 0,0,1
259 129 m 1,20,21
 342.125 94 342.125 94 428.562 94 c 128,-1,22
 515 94 515 94 579 120.5 c 128,-1,23
 643 147 643 147 694 192.5 c 128,-1,24
 745 238 745 238 784 298 c 128,-1,25
 823 358 823 358 849.5 426 c 0,26,27
 902 560.717 902 560.717 902 676.859 c 128,-1,28
 902 793 902 793 888.5 856.5 c 128,-1,29
 875 920 875 920 850 960.5 c 0,30,31
 800.926 1040 800.926 1040 713 1040 c 0,32,33
 603 1040 603 1040 491 949 c 0,34,35
 402.04 876.72 402.04 876.72 345 780 c 1,36,-1
 259 129 l 1,20,21
EndSplineSet
EndChar

StartChar: q
Encoding: 113 113 82
Width: 1146
Flags: HW
LayerCount: 2
Fore
SplineSet
519.5 1123 m 0,0,1
 609 1156 609 1156 709.643 1156 c 128,-1,2
 810.286 1156 810.286 1156 922 1122 c 1,3,-1
 1043 1160 l 1,4,-1
 822 -507 l 1,5,-1
 674 -507 l 1,6,-1
 752 73 l 1,7,-1
 776 205 l 1,8,9
 671.283 59.1445 671.283 59.1445 515.5 4 c 0,10,11
 459 -16 459 -16 387.5 -16 c 128,-1,12
 316 -16 316 -16 256 15.5 c 128,-1,13
 196 47 196 47 156.5 104 c 0,14,15
 79 215.835 79 215.835 79 416 c 0,16,17
 79 684.819 79 684.819 234.5 904 c 0,18,19
 343.95 1058.27 343.95 1058.27 519.5 1123 c 0,0,1
874 1011 m 1,20,21
 790.875 1046 790.875 1046 705.438 1046 c 128,-1,22
 620 1046 620 1046 556.5 1019.5 c 128,-1,23
 493 993 493 993 441.5 947.5 c 128,-1,24
 390 902 390 902 351 842 c 128,-1,25
 312 782 312 782 286 714 c 0,26,27
 233 575.385 233 575.385 233 460.692 c 128,-1,28
 233 346 233 346 246.5 283 c 128,-1,29
 260 220 260 220 285 179.5 c 0,30,31
 334.074 100 334.074 100 423 100 c 0,32,33
 534.939 100 534.939 100 648.5 196 c 0,34,35
 736.015 269.982 736.015 269.982 795 370 c 1,36,37
 798 398 798 398 800 424.5 c 128,-1,38
 802 451 802 451 804.5 474 c 128,-1,39
 807 497 807 497 808.5 515 c 128,-1,40
 810 533 810 533 811 542 c 2,41,-1
 874 1011 l 1,20,21
EndSplineSet
EndChar

StartChar: r
Encoding: 114 114 83
Width: 778
Flags: HW
LayerCount: 2
Fore
SplineSet
773 985 m 1,0,1
 747 998 747 998 693.5 998 c 128,-1,2
 640 998 640 998 591 975 c 128,-1,3
 542 952 542 952 494 910.5 c 0,4,5
 387.889 818.758 387.889 818.758 332 680 c 1,6,-1
 241 0 l 1,7,-1
 93 0 l 1,8,-1
 246 1140 l 1,9,-1
 386 1140 l 1,10,-1
 360 889 l 1,11,12
 411.275 989.108 411.275 989.108 504.5 1063.5 c 0,13,14
 620.418 1156 620.418 1156 742 1156 c 0,15,16
 791.375 1156 791.375 1156 806 1143 c 1,17,-1
 773 985 l 1,0,1
EndSplineSet
EndChar

StartChar: s
Encoding: 115 115 84
Width: 872
Flags: HW
LayerCount: 2
Fore
SplineSet
73 178 m 1,0,1
 190.818 97 190.818 97 347 97 c 256,2,3
 510.091 97 510.091 97 563 194 c 0,4,5
 581 227 581 227 581 270.5 c 128,-1,6
 581 314 581 314 564 347.5 c 128,-1,7
 547 381 547 381 520 410 c 128,-1,8
 493 439 493 439 458.5 465.5 c 2,9,-1
 389 520 l 2,10,11
 284.162 601.25 284.162 601.25 247.581 648.625 c 0,12,13
 173 745.213 173 745.213 173 836.607 c 128,-1,14
 173 928 173 928 203.5 984.5 c 128,-1,15
 234 1041 234 1041 285.5 1079 c 0,16,17
 389.855 1156 389.855 1156 550 1156 c 0,18,19
 716 1156 716 1156 804 1112 c 1,20,-1
 775 972 l 1,21,22
 742.188 1011.38 742.188 1011.38 638.5 1035 c 0,23,24
 599 1044 599 1044 547.5 1044 c 128,-1,25
 496 1044 496 1044 452.5 1032 c 128,-1,26
 409 1020 409 1020 379 997.5 c 0,27,28
 316 950.25 316 950.25 316 873 c 0,29,30
 316 765.016 316 765.016 428 676.5 c 1,31,-1
 567.5 568.5 l 1,32,33
 729 442.024 729 442.024 729 289 c 0,34,35
 729 142.267 729 142.267 617.5 60.5 c 0,36,37
 513.182 -16 513.182 -16 339 -16 c 0,38,39
 191.391 -16 191.391 -16 87.5 24.5 c 0,40,41
 58 36 58 36 45 48 c 1,42,-1
 73 178 l 1,0,1
EndSplineSet
EndChar

StartChar: t
Encoding: 116 116 85
Width: 739
Flags: HW
LayerCount: 2
Fore
SplineSet
341 -16 m 0,0,1
 166 -16 166 -16 166 156 c 0,2,3
 166 198.5 166 198.5 178 290 c 2,4,-1
 271 1021 l 1,5,-1
 136 1021 l 1,6,-1
 167 1139 l 1,7,-1
 294 1140 l 1,8,-1
 350 1419 l 1,9,-1
 476 1419 l 1,10,-1
 440 1140 l 1,11,-1
 731 1140 l 1,12,-1
 713 1021 l 1,13,-1
 423 1021 l 1,14,-1
 324.5 277 l 2,15,16
 320 243 320 243 320 219 c 0,17,18
 320 103 320 103 399 103 c 256,19,20
 461.647 103 461.647 103 576 175 c 0,21,22
 603 192 603 192 618 204 c 1,23,-1
 638 120 l 1,24,25
 603.071 78.0851 603.071 78.0851 539.535 45.5426 c 0,26,27
 419.381 -16 419.381 -16 341 -16 c 0,0,1
EndSplineSet
EndChar

StartChar: u
Encoding: 117 117 86
Width: 1173
Flags: HW
LayerCount: 2
Fore
SplineSet
129 133.5 m 0,0,1
 113 188 113 188 113 238 c 128,-1,2
 113 288 113 288 115 318 c 128,-1,3
 117 348 117 348 121 383 c 0,4,5
 138.824 537.127 138.824 537.127 147.412 598.564 c 2,6,7
 224 1140 l 1,8,-1
 373 1140 l 1,9,-1
 299.5 612.5 l 2,10,11
 293 566 293 566 286 512 c 0,12,13
 265 350 265 350 265 288 c 128,-1,14
 265 226 265 226 275.5 194 c 128,-1,15
 286 162 286 162 306 143.5 c 0,16,17
 341.135 111 341.135 111 405.568 111 c 128,-1,18
 470 111 470 111 525.5 137 c 128,-1,19
 581 163 581 163 635 205.5 c 0,20,21
 745.955 292.825 745.955 292.825 826 415 c 1,22,-1
 921 1140 l 1,23,-1
 1070 1140 l 1,24,-1
 918 0 l 1,25,-1
 780 0 l 1,26,-1
 809 262 l 1,27,28
 672.906 71.4691 672.906 71.4691 492.5 4 c 0,29,30
 431 -19 431 -19 368 -19 c 256,31,32
 173.771 -19 173.771 -19 129 133.5 c 0,0,1
EndSplineSet
EndChar

StartChar: w
Encoding: 119 119 87
Width: 1633
Flags: HW
LayerCount: 2
Fore
SplineSet
292 -14 m 1,0,-1
 118 1140 l 1,1,-1
 284 1140 l 1,2,-1
 368 354 l 1,3,-1
 389 117 l 1,4,-1
 524 294 l 1,5,6
 735.143 588.253 735.143 588.253 794 854 c 1,7,-1
 752 1140 l 1,8,-1
 915 1140 l 1,9,-1
 1001 354 l 1,10,-1
 1024 116 l 1,11,-1
 1160 290 l 1,12,13
 1270.17 437.58 1270.17 437.58 1314.08 540.29 c 0,14,15
 1388.86 715.165 1388.86 715.165 1410 892 c 0,16,17
 1413 919 1413 919 1418 955.5 c 2,18,-1
 1427.5 1028 l 2,19,20
 1437.87 1110.97 1437.87 1110.97 1434 1140 c 1,21,-1
 1580 1140 l 1,22,-1
 1582 1113 l 2,23,24
 1583 1100 1583 1100 1583 1086 c 0,25,26
 1583 839.837 1583 839.837 1463 568 c 0,27,28
 1361.27 337.549 1361.27 337.549 1213 171 c 1,29,-1
 1060 -4 l 1,30,-1
 924 -14 l 1,31,-1
 830 607 l 1,32,33
 709.584 326.029 709.584 326.029 577 176 c 1,34,-1
 427 -4 l 1,35,-1
 292 -14 l 1,0,-1
EndSplineSet
EndChar

StartChar: x
Encoding: 120 120 88
Width: 949
Flags: HW
LayerCount: 2
Fore
SplineSet
394 591 m 1,0,-1
 133 1140 l 1,1,-1
 311 1140 l 1,2,-1
 487 691 l 1,3,-1
 803 1140 l 1,4,-1
 966 1140 l 1,5,-1
 538 573 l 1,6,-1
 821 3 l 1,7,-1
 647 3 l 1,8,-1
 445 475 l 1,9,-1
 117 3 l 1,10,-1
 -43 3 l 1,11,-1
 394 591 l 1,0,-1
EndSplineSet
EndChar

StartChar: y
Encoding: 121 121 89
Width: 1048
Flags: HW
LayerCount: 2
Fore
SplineSet
982 1140 m 1,0,1
 985.6 1108.8 985.6 1108.8 985.6 1074.2 c 128,-1,2
 985.6 1039.6 985.6 1039.6 982.3 974.8 c 128,-1,3
 979 910 979 910 954.5 807.5 c 128,-1,4
 930 705 930 705 893 603 c 0,5,6
 823.332 410.942 823.332 410.942 717 216 c 1,7,8
 635.879 72.3197 635.879 72.3197 596.44 11.1599 c 1,9,-1
 522 -99.5 l 1,10,11
 487 -149 487 -149 452.5 -192.5 c 1,12,-1
 371 -290.5 l 1,13,14
 265.795 -412.493 265.795 -412.493 124 -470.5 c 0,15,16
 47 -502 47 -502 -21 -502 c 0,17,18
 -123.636 -502 -123.636 -502 -200 -472 c 1,19,-1
 -157 -348 l 1,20,21
 -150 -351 -150 -351 -139 -356.5 c 128,-1,22
 -128 -362 -128 -362 -112 -367.5 c 0,23,24
 -75.6364 -380 -75.6364 -380 -25.3182 -380 c 128,-1,25
 25 -380 25 -380 75 -364 c 128,-1,26
 125 -348 125 -348 177 -310.5 c 0,27,28
 283.137 -233.959 283.137 -233.959 405 -56 c 1,29,-1
 312 -56 l 1,30,-1
 250 299 l 1,31,-1
 123 1140 l 1,32,-1
 287 1140 l 1,33,-1
 396 299 l 1,34,-1
 439 -2 l 1,35,-1
 547.5 184 l 1,36,37
 690.539 426.732 690.539 426.732 754.769 622.366 c 128,-1,38
 819 818 819 818 833 1005 c 1,39,40
 836.86 1086.06 836.86 1086.06 835 1140 c 1,41,-1
 982 1140 l 1,0,1
EndSplineSet
EndChar

StartChar: z
Encoding: 122 122 90
Width: 963
Flags: HW
LayerCount: 2
Fore
SplineSet
-21 46 m 1,0,-1
 600 838 l 1,1,-1
 767 1021 l 1,2,-1
 184 1021 l 1,3,-1
 201 1140 l 1,4,-1
 924 1140 l 1,5,-1
 960 1099 l 1,6,-1
 312 271 l 1,7,-1
 170 119 l 1,8,-1
 812 119 l 1,9,-1
 801 0 l 1,10,-1
 25 0 l 1,11,-1
 -21 46 l 1,0,-1
EndSplineSet
EndChar

StartChar: braceleft
Encoding: 123 123 91
Width: 1024
Flags: HW
LayerCount: 2
Fore
SplineSet
979 1674 m 1,0,1
 969 1624 969 1624 969 1607 c 1,2,-1
 693 1607 l 1,3,-1
 597 969 l 2,4,5
 585.634 891.331 585.634 891.331 489 844 c 1,6,-1
 452.5 827 l 2,7,8
 429 816 429 816 403.5 805.5 c 2,9,-1
 356.5 786.5 l 2,10,11
 335 778 335 778 327 776 c 1,12,13
 433.459 727.206 433.459 727.206 472.729 696.103 c 0,14,15
 545.469 638.492 545.469 638.492 536 576 c 2,16,-1
 442 -55 l 1,17,-1
 717 -55 l 1,18,19
 716 -60 716 -60 715 -70.5 c 128,-1,20
 714 -81 714 -81 712 -94 c 128,-1,21
 710 -107 710 -107 708 -123 c 1,22,23
 555 -159 555 -159 476.5 -159 c 128,-1,24
 398 -159 398 -159 373 -154 c 128,-1,25
 348 -149 348 -149 332.5 -136 c 0,26,27
 303.081 -111.326 303.081 -111.326 305 -48 c 0,28,29
 305 -44 305 -44 309 -15 c 0,30,31
 353.541 307.919 353.541 307.919 395 579 c 1,32,33
 400.071 637.312 400.071 637.312 254.5 696.5 c 0,34,35
 209 715 209 715 162 728 c 1,36,-1
 176 825 l 1,37,38
 389.82 882.567 389.82 882.567 431.5 926.5 c 0,39,40
 450 946 450 946 454 968 c 2,41,-1
 536 1519 l 1,42,43
 554.438 1633.73 554.438 1633.73 582.219 1662.86 c 128,-1,44
 610 1692 610 1692 640 1701 c 128,-1,45
 670 1710 670 1710 709 1710 c 0,46,47
 795.4 1710 795.4 1710 979 1674 c 1,0,1
EndSplineSet
EndChar

StartChar: bar
Encoding: 124 124 92
Width: 854
Flags: HW
LayerCount: 2
Fore
SplineSet
375 1780 m 1,0,-1
 506 1780 l 1,1,-1
 506 -186 l 1,2,-1
 375 -186 l 1,3,-1
 375 1780 l 1,0,-1
EndSplineSet
EndChar

StartChar: asciitilde
Encoding: 126 126 94
Width: 1137
Flags: HW
LayerCount: 2
Fore
SplineSet
413 915 m 0,0,1
 278.934 915 278.934 915 195 787 c 1,2,-1
 140 844 l 1,3,4
 162.725 912.174 162.725 912.174 243.5 972.5 c 0,5,6
 335.22 1041 335.22 1041 442 1041 c 0,7,8
 527.467 1041 527.467 1041 625.5 954.5 c 128,-1,9
 723.533 868 723.533 868 786 868 c 0,10,11
 914.75 868 914.75 868 996 998 c 1,12,-1
 1052 941 l 1,13,14
 1027.89 864.296 1027.89 864.296 950.5 806 c 0,15,16
 864.207 741 864.207 741 757 741 c 0,17,18
 671.348 741 671.348 741 573 828 c 128,-1,19
 474.652 915 474.652 915 413 915 c 0,0,1
EndSplineSet
EndChar

StartChar: exclam
Encoding: 33 33 96
Width: 621
Flags: HW
LayerCount: 2
Fore
SplineSet
399 1778 m 1,0,-1
 571 1778 l 1,1,-1
 356 488 l 1,2,-1
 236 488 l 1,3,-1
 399 1778 l 1,0,-1
267 203 m 0,4,5
 358.333 203 358.333 203 358.333 120.185 c 0,6,7
 358.333 51.3939 358.333 51.3939 315.167 17.197 c 128,-1,8
 272 -17 272 -17 236.5 -17 c 128,-1,9
 201 -17 201 -17 183 -10.5 c 0,10,11
 130.941 8.29902 130.941 8.29902 130.941 68.1003 c 0,12,13
 130.941 130.653 130.941 130.653 178.5 170.5 c 0,14,15
 217.29 203 217.29 203 267 203 c 0,4,5
EndSplineSet
EndChar

StartChar: sterling
Encoding: 163 163 97
Width: 1368
Flags: HW
LayerCount: 2
Fore
SplineSet
74 -15 m 0,0,1
 13.7143 -15 13.7143 -15 13.7143 38.9388 c 0,2,3
 13.7143 96.6487 13.7143 96.6487 90.5 147 c 0,4,5
 160.65 193 160.65 193 222 193 c 1,6,7
 301.423 256.538 301.423 256.538 340 488 c 2,8,-1
 384 751 l 1,9,-1
 197 751 l 1,10,-1
 211 851 l 1,11,-1
 401 851 l 1,12,-1
 423 980 l 1,13,14
 458.291 1218.22 458.291 1218.22 584 1371 c 0,15,16
 727.165 1545 727.165 1545 955 1545 c 0,17,18
 1092.75 1545 1092.75 1545 1161.5 1505 c 0,19,20
 1189 1489 1189 1489 1213 1464 c 1,21,-1
 1142 1357 l 1,22,23
 1106.23 1408.66 1106.23 1408.66 1009 1429.5 c 0,24,25
 974 1437 974 1437 926 1437 c 128,-1,26
 878 1437 878 1437 824 1412 c 128,-1,27
 770 1387 770 1387 722 1332.5 c 0,28,29
 617.604 1213.97 617.604 1213.97 578 982 c 1,30,-1
 554 851 l 1,31,-1
 883 851 l 1,32,-1
 870 751 l 1,33,-1
 537 751 l 1,34,-1
 517 639 l 1,35,36
 485.525 452.401 485.525 452.401 465.263 386.7 c 0,37,38
 428.317 266.906 428.317 266.906 368 181 c 1,39,40
 405 171 405 171 450.5 154.5 c 128,-1,41
 496 138 496 138 548.5 122 c 0,42,43
 676.469 83 676.469 83 774.234 83 c 128,-1,44
 872 83 872 83 931 99.5 c 128,-1,45
 990 116 990 116 1027.5 146 c 0,46,47
 1100 204 1100 204 1100 312 c 0,48,49
 1100 396 1100 396 1040.5 464 c 0,50,51
 1023 484 1023 484 1004 496 c 1,52,-1
 1123 587 l 1,53,54
 1257 476.103 1257 476.103 1257 315 c 0,55,56
 1257 181.312 1257 181.312 1172 91 c 0,57,58
 1062.82 -25 1062.82 -25 807 -25 c 0,59,60
 658.513 -25 658.513 -25 548.757 6 c 128,-1,61
 439 37 439 37 382 57.5 c 128,-1,62
 325 78 325 78 276 93 c 1,63,64
 218.289 21.7105 218.289 21.7105 129 -6 c 0,65,66
 100 -15 100 -15 74 -15 c 0,0,1
EndSplineSet
EndChar

StartChar: currency
Encoding: 164 164 98
Width: 1514
Flags: HW
LayerCount: 2
Fore
SplineSet
1031 340 m 1,0,1
 913.667 252 913.667 252 768.654 252 c 128,-1,2
 623.641 252 623.641 252 508 334 c 1,3,-1
 317 143 l 1,4,-1
 230 229 l 1,5,-1
 419 419 l 1,6,7
 326 539.477 326 539.477 326 690.193 c 128,-1,8
 326 840.909 326 840.909 418 958 c 1,9,-1
 227 1149 l 1,10,-1
 314 1236 l 1,11,-1
 505 1043 l 1,12,13
 621.875 1128 621.875 1128 769.699 1128 c 128,-1,14
 917.523 1128 917.523 1128 1038 1035 c 1,15,-1
 1225 1223 l 1,16,-1
 1312 1136 l 1,17,-1
 1122 946 l 1,18,19
 1206 832.6 1206 832.6 1206 687.419 c 128,-1,20
 1206 542.238 1206 542.238 1118 427 c 1,21,-1
 1310 235 l 1,22,-1
 1223 149 l 1,23,-1
 1031 340 l 1,0,1
440 690 m 256,24,25
 440 550.146 440 550.146 535.5 452.5 c 0,26,27
 631.835 354 631.835 354 766 354 c 256,28,29
 901.747 354 901.747 354 997 452.5 c 0,30,31
 1092 550.739 1092 550.739 1092 690 c 256,32,33
 1092 829.261 1092 829.261 997 927.5 c 0,34,35
 901.747 1026 901.747 1026 766 1026 c 256,36,37
 631.835 1026 631.835 1026 535.5 927.5 c 0,38,39
 440 829.854 440 829.854 440 690 c 256,24,25
EndSplineSet
EndChar

StartChar: brokenbar
Encoding: 166 166 99
Width: 854
Flags: HW
LayerCount: 2
Fore
SplineSet
375 1780 m 1,0,-1
 506 1780 l 1,1,-1
 506 886 l 1,2,-1
 375 886 l 1,3,-1
 375 1780 l 1,0,-1
375 708 m 1,4,-1
 506 708 l 1,5,-1
 506 -186 l 1,6,-1
 375 -186 l 1,7,-1
 375 708 l 1,4,-1
EndSplineSet
EndChar

StartChar: section
Encoding: 167 167 100
Width: 1194
Flags: HW
LayerCount: 2
Fore
SplineSet
949 376 m 1,0,1
 1044.09 292.229 1044.09 292.229 1044.09 192.024 c 128,-1,2
 1044.09 91.8182 1044.09 91.8182 1003.05 23.4091 c 128,-1,3
 962 -45 962 -45 888.5 -92 c 0,4,5
 741.5 -186 741.5 -186 508 -186 c 0,6,7
 325.762 -186 325.762 -186 181.5 -103 c 0,8,9
 145 -82 145 -82 128 -65 c 1,10,-1
 171 51 l 1,11,12
 233.897 -22.3793 233.897 -22.3793 404.5 -56.5 c 0,13,14
 457 -67 457 -67 518 -67 c 128,-1,15
 579 -67 579 -67 647 -56.5 c 128,-1,16
 715 -46 715 -46 768.5 -20.5 c 0,17,18
 888 36.4579 888 36.4579 888 154 c 0,19,20
 888 264.183 888 264.183 709.5 348 c 0,21,22
 652 375 652 375 580.5 403.5 c 128,-1,23
 509 432 509 432 441.5 468.5 c 128,-1,24
 374 505 374 505 321.5 553.5 c 0,25,26
 201.929 663.961 201.929 663.961 201.929 821.708 c 128,-1,27
 201.929 979.455 201.929 979.455 388 1066 c 1,28,29
 241.975 1186.53 241.975 1186.53 241.975 1346.99 c 0,30,31
 241.975 1500.38 241.975 1500.38 388 1589.5 c 0,32,33
 524.819 1673 524.819 1673 738 1673 c 0,34,35
 965.312 1673 965.312 1673 1090 1568 c 1,36,-1
 1042 1452 l 1,37,38
 984.205 1526.31 984.205 1526.31 813 1550.5 c 0,39,40
 767 1557 767 1557 716 1557 c 128,-1,41
 665 1557 665 1557 606.5 1544.5 c 128,-1,42
 548 1532 548 1532 503 1507 c 0,43,44
 399.667 1449.59 399.667 1449.59 399.667 1344.02 c 0,45,46
 399.667 1241.16 399.667 1241.16 489.5 1169.5 c 0,47,48
 534 1134 534 1134 597 1103.5 c 2,49,-1
 736 1038 l 1,50,51
 894.203 967.417 894.203 967.417 961.102 907.208 c 128,-1,52
 1028 847 1028 847 1059.51 790.582 c 128,-1,53
 1091.03 734.164 1091.03 734.164 1091.03 661.106 c 0,54,55
 1091.03 490.051 1091.03 490.051 949 376 c 1,0,1
482 1001 m 1,56,57
 360.617 940.309 360.617 940.309 360.617 818.472 c 0,58,59
 360.617 717.697 360.617 717.697 439.5 650.5 c 0,60,61
 493.659 604.365 493.659 604.365 669 524 c 1,62,63
 774 484.333 774 484.333 844 446 c 1,64,65
 934 521.789 934 521.789 934 639 c 0,66,67
 934 759.266 934 759.266 782.5 851 c 0,68,69
 728 884 728 884 667.5 910.5 c 2,70,-1
 565 957 l 2,71,72
 523 977 523 977 482 1001 c 1,56,57
EndSplineSet
EndChar

StartChar: dieresis
Encoding: 168 168 101
Width: 809
Flags: HW
LayerCount: 2
Fore
SplineSet
539.842 1436.05 m 128,-1,1
 515.684 1462.11 515.684 1462.11 515.684 1499.12 c 0,2,3
 515.684 1581.91 515.684 1581.91 587 1614 c 0,4,5
 607 1623 607 1623 639.5 1623 c 128,-1,6
 672 1623 672 1623 695.575 1597.5 c 128,-1,7
 719.151 1572 719.151 1572 719.151 1535.11 c 0,8,9
 719.151 1481.15 719.151 1481.15 682 1444 c 0,10,11
 648 1410 648 1410 606 1410 c 128,-1,0
 564 1410 564 1410 539.842 1436.05 c 128,-1,1
118.842 1436.05 m 128,-1,13
 94.6842 1462.11 94.6842 1462.11 94.6842 1499.12 c 0,14,15
 94.6842 1581.91 94.6842 1581.91 166 1614 c 0,16,17
 186 1623 186 1623 218.5 1623 c 128,-1,18
 251 1623 251 1623 274.575 1597.5 c 128,-1,19
 298.151 1572 298.151 1572 298.151 1535.11 c 0,20,21
 298.151 1481.15 298.151 1481.15 261 1444 c 0,22,23
 227 1410 227 1410 185 1410 c 128,-1,12
 143 1410 143 1410 118.842 1436.05 c 128,-1,13
EndSplineSet
EndChar

StartChar: copyright
Encoding: 169 169 102
Width: 2061
Flags: HW
LayerCount: 2
Fore
SplineSet
196 938 m 256,0,1
 196 1289.9 196 1289.9 440.5 1536 c 0,2,3
 596.473 1692.99 596.473 1692.99 811.5 1753 c 0,4,5
 919 1783 919 1783 1036 1783 c 256,6,7
 1267 1783 1267 1783 1462.5 1668 c 0,8,9
 1652.23 1556.39 1652.23 1556.39 1763.5 1365.5 c 0,10,11
 1877 1170.78 1877 1170.78 1877 938 c 256,12,13
 1877 709 1877 709 1763 509.5 c 0,14,15
 1655.15 320.769 1655.15 320.769 1462 205.5 c 0,16,17
 1268.46 90 1268.46 90 1036 90 c 256,18,19
 686.89 90 686.89 90 440.5 338 c 0,20,21
 286.762 492.742 286.762 492.742 226 712.5 c 0,22,23
 196 821 196 821 196 938 c 256,0,1
306 938 m 256,24,25
 306 735.581 306 735.581 403.5 560.5 c 0,26,27
 497.661 391.415 497.661 391.415 662 292 c 0,28,29
 830.612 190 830.612 190 1011.31 190 c 128,-1,30
 1192 190 1192 190 1325.5 249 c 128,-1,31
 1459 308 1459 308 1557.5 409.5 c 128,-1,32
 1656 511 1656 511 1711.5 647 c 128,-1,33
 1767 783 1767 783 1767 912 c 128,-1,34
 1767 1041 1767 1041 1742 1136 c 128,-1,35
 1717 1231 1717 1231 1670.5 1314.5 c 128,-1,36
 1624 1398 1624 1398 1558 1466.5 c 128,-1,37
 1492 1535 1492 1535 1411 1583.5 c 0,38,39
 1239.81 1686 1239.81 1686 1036 1686 c 256,40,41
 833.186 1686 833.186 1686 662 1583.5 c 0,42,43
 497.426 1484.96 497.426 1484.96 402.5 1314.5 c 0,44,45
 306 1141.22 306 1141.22 306 938 c 256,24,25
1307 655 m 1,46,-1
 1343 560 l 1,47,48
 1231.4 467 1231.4 467 1032 467 c 0,49,50
 838.719 467 838.719 467 719.5 607 c 0,51,52
 607 739.11 607 739.11 607 932 c 0,53,54
 607 1142.39 607 1142.39 729.5 1274 c 0,55,56
 858.877 1413 858.877 1413 1085 1413 c 0,57,58
 1207.71 1413 1207.71 1413 1317 1362 c 1,59,-1
 1290 1237 l 1,60,61
 1199.13 1292 1199.13 1292 1097.07 1292 c 128,-1,62
 995 1292 995 1292 936 1264.5 c 128,-1,63
 877 1237 877 1237 837 1190 c 0,64,65
 755 1093.65 755 1093.65 755 943 c 0,66,67
 755 773.625 755 773.625 840 678 c 0,68,69
 920 588 920 588 1056.81 588 c 128,-1,70
 1193.62 588 1193.62 588 1307 655 c 1,46,-1
EndSplineSet
EndChar

StartChar: guilsinglleft
Encoding: 8249 8249 104
Width: 1190
Flags: HW
LayerCount: 2
Fore
SplineSet
253 671 m 1,0,-1
 948 1086 l 1,1,-1
 977 997 l 1,2,-1
 421 614 l 1,3,-1
 873 237 l 1,4,-1
 820 152 l 1,5,-1
 237 551 l 1,6,-1
 253 671 l 1,0,-1
EndSplineSet
EndChar

StartChar: registered
Encoding: 174 174 105
Width: 2061
Flags: HW
LayerCount: 2
Fore
SplineSet
196 938 m 256,0,1
 196 1289.9 196 1289.9 440.5 1536 c 0,2,3
 596.473 1692.99 596.473 1692.99 811.5 1753 c 0,4,5
 919 1783 919 1783 1036 1783 c 256,6,7
 1267 1783 1267 1783 1462.5 1668 c 0,8,9
 1652.23 1556.39 1652.23 1556.39 1763.5 1365.5 c 0,10,11
 1877 1170.78 1877 1170.78 1877 938 c 256,12,13
 1877 709 1877 709 1763 509.5 c 0,14,15
 1655.15 320.769 1655.15 320.769 1462 205.5 c 0,16,17
 1268.46 90 1268.46 90 1036 90 c 256,18,19
 686.89 90 686.89 90 440.5 338 c 0,20,21
 286.762 492.742 286.762 492.742 226 712.5 c 0,22,23
 196 821 196 821 196 938 c 256,0,1
306 938 m 256,24,25
 306 735.581 306 735.581 403.5 560.5 c 0,26,27
 497.661 391.415 497.661 391.415 662 292 c 0,28,29
 830.612 190 830.612 190 1011.31 190 c 128,-1,30
 1192 190 1192 190 1325.5 249 c 128,-1,31
 1459 308 1459 308 1557.5 409.5 c 128,-1,32
 1656 511 1656 511 1711.5 647 c 128,-1,33
 1767 783 1767 783 1767 912 c 128,-1,34
 1767 1041 1767 1041 1742 1136 c 128,-1,35
 1717 1231 1717 1231 1670.5 1314.5 c 128,-1,36
 1624 1398 1624 1398 1558 1466.5 c 128,-1,37
 1492 1535 1492 1535 1411 1583.5 c 0,38,39
 1239.81 1686 1239.81 1686 1036 1686 c 256,40,41
 833.186 1686 833.186 1686 662 1583.5 c 0,42,43
 497.426 1484.96 497.426 1484.96 402.5 1314.5 c 0,44,45
 306 1141.22 306 1141.22 306 938 c 256,24,25
1026 839 m 1,46,-1
 953.5 838 l 2,47,48
 910.75 838 910.75 838 868 838 c 1,49,-1
 868 467 l 1,50,-1
 732 467 l 1,51,-1
 732 1404 l 1,52,-1
 792 1404 l 2,53,54
 803.778 1403.78 803.778 1403.78 815.975 1403.78 c 2,55,-1
 1046 1410 l 1,56,57
 1218.92 1410 1218.92 1410 1310.5 1333.5 c 0,58,59
 1394 1263.75 1394 1263.75 1394 1148 c 0,60,61
 1394 904.932 1394 904.932 1181 858 c 1,62,63
 1246.83 810.977 1246.83 810.977 1310 686.5 c 1,64,-1
 1344 621 l 2,65,66
 1353 604 1353 604 1362 589 c 2,67,-1
 1381.5 556 l 2,68,69
 1392 538 1392 538 1406 516.5 c 2,70,-1
 1438 467 l 1,71,-1
 1282 468 l 1,72,73
 1260 498 1260 498 1243 531.5 c 2,74,-1
 1172.5 676 l 1,75,76
 1108.4 811.535 1108.4 811.535 1026 839 c 1,46,-1
1129.74 1296.04 m 0,77,78
 1084.48 1308.07 1084.48 1308.07 1002.56 1308.07 c 128,-1,79
 920.63 1308.07 920.63 1308.07 868 1299 c 1,80,-1
 868 940 l 1,81,82
 892 937 892 937 958 937 c 2,83,-1
 1034 937 l 1,84,85
 1253 938.955 1253 938.955 1253 1131 c 0,86,87
 1253 1263.26 1253 1263.26 1129.74 1296.04 c 0,77,78
EndSplineSet
EndChar

StartChar: macron
Encoding: 175 175 106
Width: 614
Flags: HW
LayerCount: 2
Fore
SplineSet
50 1548 m 1,0,-1
 560 1548 l 1,1,-1
 555 1434 l 1,2,-1
 46 1434 l 1,3,-1
 50 1548 l 1,0,-1
EndSplineSet
EndChar

StartChar: degree
Encoding: 176 176 107
Width: 899
Flags: HW
LayerCount: 2
Fore
SplineSet
464.5 955 m 0,0,1
 395 955 395 955 336.5 980.5 c 0,2,3
 218.039 1032.14 218.039 1032.14 169.5 1154 c 0,4,5
 146.959 1210.59 146.959 1210.59 146.959 1243.45 c 0,6,7
 146.959 1345.66 146.959 1345.66 173.48 1405.33 c 128,-1,8
 200 1465 200 1465 244.5 1508 c 0,9,10
 339.709 1600 339.709 1600 482 1600 c 0,11,12
 618.586 1600 618.586 1600 712 1505.5 c 0,13,14
 801.041 1415.42 801.041 1415.42 801.041 1284.38 c 0,15,16
 801.041 1143.24 801.041 1143.24 702 1047.5 c 0,17,18
 606.31 955 606.31 955 464.5 955 c 0,0,1
469.5 1048 m 0,19,20
 517 1048 517 1048 558 1065.5 c 128,-1,21
 599 1083 599 1083 629 1114 c 0,22,23
 693.059 1180.19 693.059 1180.19 693.059 1284.74 c 0,24,25
 693.059 1378.33 693.059 1378.33 633 1441.5 c 0,26,27
 570.721 1507 570.721 1507 478 1507 c 0,28,29
 381.852 1507 381.852 1507 318.5 1441.5 c 0,30,31
 254.941 1375.79 254.941 1375.79 254.941 1273.37 c 0,32,33
 254.941 1181.33 254.941 1181.33 314.5 1115.5 c 0,34,35
 375.571 1048 375.571 1048 469.5 1048 c 0,19,20
EndSplineSet
EndChar

StartChar: plusminus
Encoding: 177 177 108
Width: 1366
Flags: HW
LayerCount: 2
Fore
SplineSet
601 536 m 1,0,-1
 629 717 l 1,1,-1
 468 712 l 1,2,-1
 243 712 l 1,3,-1
 257 833 l 1,4,-1
 482 833 l 1,5,-1
 641 824 l 1,6,7
 642 839 642 839 644.5 864 c 2,8,-1
 654.5 965.5 l 2,9,10
 657 990 657 990 658 1005 c 2,11,-1
 685 1235 l 1,12,-1
 821 1235 l 1,13,-1
 795 1005 l 1,14,-1
 765 825 l 1,15,-1
 898 833 l 1,16,-1
 1154 833 l 1,17,-1
 1140 712 l 1,18,-1
 884 712 l 1,19,-1
 754 717 l 1,20,21
 751.5 679.5 751.5 679.5 747.75 639.75 c 0,22,23
 741.5 573.5 741.5 573.5 739 536 c 1,24,-1
 710 295 l 1,25,-1
 572 295 l 1,26,-1
 601 536 l 1,0,-1
185 145 m 1,27,-1
 1054 145 l 1,28,-1
 1041 30 l 1,29,-1
 172 30 l 1,30,-1
 185 145 l 1,27,-1
EndSplineSet
EndChar

StartChar: acute
Encoding: 180 180 109
Width: 559
Flags: HW
LayerCount: 2
Fore
SplineSet
58 1304 m 1,0,-1
 366 1704 l 1,1,-1
 481 1600 l 1,2,3
 459.833 1564.02 459.833 1564.02 413.917 1513.51 c 1,4,5
 332.5 1427 l 1,6,7
 209.095 1301.86 209.095 1301.86 121 1249 c 1,8,-1
 58 1304 l 1,0,-1
EndSplineSet
EndChar

StartChar: paragraph
Encoding: 182 182 110
Width: 1364
Flags: HW
LayerCount: 2
Fore
SplineSet
1002 1446 m 1,0,-1
 836.5 1450 l 2,1,2
 800.75 1450 800.75 1450 765 1450 c 1,3,-1
 577 0 l 1,4,-1
 430 0 l 1,5,-1
 534 774 l 1,6,7
 275.195 780.312 275.195 780.312 190 972 c 0,8,9
 160.875 1037.53 160.875 1037.53 160.875 1130.38 c 128,-1,10
 160.875 1223.22 160.875 1223.22 189.938 1304.11 c 128,-1,11
 219 1385 219 1385 285 1445 c 0,12,13
 423.6 1571 423.6 1571 712 1571 c 0,14,15
 813.429 1571 813.429 1571 894.214 1564.5 c 2,16,-1
 1012.5 1555 l 2,17,18
 1050 1552 1050 1552 1088 1552 c 2,19,-1
 1328 1552 l 1,20,-1
 1320 1472 l 1,21,-1
 1150 1447 l 1,22,-1
 996 224 l 2,23,24
 981 105 981 105 969 0 c 1,25,-1
 824 0 l 1,26,-1
 1002 1446 l 1,0,-1
EndSplineSet
EndChar

StartChar: cedilla
Encoding: 184 184 112
Width: 479
Flags: HW
LayerCount: 2
Fore
SplineSet
281 -146 m 0,0,1
 281 -38 281 -38 265 22 c 1,2,-1
 324 26 l 1,3,-1
 365 22 l 1,4,5
 412 -51.8571 412 -51.8571 412 -156.929 c 128,-1,6
 412 -262 412 -262 391 -316.5 c 128,-1,7
 370 -371 370 -371 334 -404 c 0,8,9
 267.455 -465 267.455 -465 149 -465 c 0,10,11
 41.6667 -465 41.6667 -465 3 -436 c 1,12,-1
 23 -321 l 1,13,14
 56.4286 -339 56.4286 -339 111 -339 c 0,15,16
 281 -339 281 -339 281 -146 c 0,0,1
EndSplineSet
EndChar

StartChar: questiondown
Encoding: 191 191 114
Width: 1028
Flags: HW
LayerCount: 2
Fore
SplineSet
657 1220 m 128,-1,1
 635 1210 635 1210 597 1210 c 128,-1,2
 559 1210 559 1210 538.913 1235.35 c 128,-1,3
 518.826 1260.7 518.826 1260.7 518.826 1279.65 c 128,-1,4
 518.826 1298.61 518.826 1298.61 519 1302 c 0,5,6
 520 1365 520 1365 552 1397.5 c 128,-1,7
 584 1430 584 1430 630.5 1430 c 128,-1,8
 677 1430 677 1430 702.57 1406.36 c 128,-1,9
 728.14 1382.72 728.14 1382.72 728.14 1343.08 c 0,10,11
 728.14 1340.09 728.14 1340.09 728.07 1325.54 c 128,-1,12
 728 1311 728 1311 719.5 1287.5 c 128,-1,13
 711 1264 711 1264 695 1247 c 128,-1,0
 679 1230 679 1230 657 1220 c 128,-1,1
102 -22 m 128,-1,15
 92 32 92 32 92 98 c 128,-1,16
 92 164 92 164 116 224 c 128,-1,17
 140 284 140 284 179.5 329.5 c 128,-1,18
 219 375 219 375 269.5 409 c 128,-1,19
 320 443 320 443 373 472 c 2,20,-1
 476.5 527.5 l 1,21,22
 654 620.644 654 620.644 654 737 c 0,23,24
 654 786 654 786 633 838.5 c 2,25,-1
 606 906 l 1,26,-1
 704 944 l 1,27,-1
 718 943 l 1,28,29
 801 860 801 860 801 723 c 0,30,31
 801 596.833 801 596.833 633 489.5 c 0,32,33
 579 455 579 455 523 426 c 2,34,-1
 423.5 372.5 l 1,35,36
 263.03 282.12 263.03 282.12 243 202 c 1,37,38
 231 164.286 231 164.286 231 87.6429 c 128,-1,39
 231 11 231 11 263.5 -55 c 128,-1,40
 296 -121 296 -121 349 -162.5 c 0,41,42
 451.807 -243 451.807 -243 602 -243 c 0,43,44
 717.55 -243 717.55 -243 817 -204 c 1,45,-1
 795 -313 l 1,46,47
 759.778 -348.222 759.778 -348.222 653 -362 c 0,48,49
 622 -366 622 -366 558.5 -366 c 128,-1,50
 495 -366 495 -366 420 -347 c 128,-1,51
 345 -328 345 -328 289.5 -295.5 c 128,-1,52
 234 -263 234 -263 196.5 -219.5 c 128,-1,53
 159 -176 159 -176 135.5 -126 c 128,-1,14
 112 -76 112 -76 102 -22 c 128,-1,15
EndSplineSet
EndChar

StartChar: Eth
Encoding: 208 208 115
Width: 1376
Flags: HW
LayerCount: 2
Fore
SplineSet
401 1531 m 1,0,-1
 722 1547 l 1,1,2
 1013.87 1547 1013.87 1547 1160.5 1374 c 0,3,4
 1298.15 1211.59 1298.15 1211.59 1298.15 903.132 c 0,5,6
 1298.15 514.211 1298.15 514.211 1088.5 251 c 0,7,8
 949.035 75.9047 949.035 75.9047 743 13.5 c 0,9,10
 648.043 -15.2609 648.043 -15.2609 542.25 -15.2609 c 0,11,12
 514.783 -15.2609 514.783 -15.2609 498.391 -14.1304 c 2,13,-1
 436 -10 l 2,14,15
 401 -7.66667 401 -7.66667 369.5 -5.33333 c 128,-1,16
 338 -3 338 -3 308 -2 c 2,17,-1
 248.5 0 l 2,18,19
 219 1 219 1 198 1 c 2,20,-1
 121 1 l 1,21,-1
 213 733 l 1,22,-1
 52 733 l 1,23,-1
 64 833 l 1,24,-1
 226 833 l 1,25,-1
 314 1531 l 1,26,-1
 401 1531 l 1,0,-1
287 126 m 1,27,28
 445 99.6667 445 99.6667 496.333 99.6667 c 128,-1,29
 547.667 99.6667 547.667 99.6667 558 100 c 0,30,31
 743.395 103.784 743.395 103.784 884.5 225.5 c 0,32,33
 1009.51 333.332 1009.51 333.332 1079.5 525 c 0,34,35
 1142.06 696.32 1142.06 696.32 1142.06 898.884 c 0,36,37
 1142.06 1182.17 1142.06 1182.17 1032.5 1309.5 c 0,38,39
 924.512 1435 924.512 1435 679 1435 c 0,40,41
 605.571 1435 605.571 1435 539.286 1427 c 2,42,-1
 449 1416 l 1,43,-1
 375 833 l 1,44,-1
 803 833 l 1,45,-1
 791 733 l 1,46,-1
 363 733 l 1,47,-1
 287 126 l 1,27,28
EndSplineSet
EndChar

StartChar: multiply
Encoding: 215 215 116
Width: 1370
Flags: HW
LayerCount: 2
Fore
SplineSet
244 423 m 1,0,-1
 637 765 l 1,1,-1
 328 1104 l 1,2,-1
 429 1199 l 1,3,-1
 722 841 l 1,4,-1
 1104 1204 l 1,5,-1
 1183 1110 l 1,6,-1
 790 764 l 1,7,-1
 1100 424 l 1,8,-1
 999 329 l 1,9,-1
 705 688 l 1,10,-1
 323 328 l 1,11,-1
 244 423 l 1,0,-1
EndSplineSet
EndChar

StartChar: Thorn
Encoding: 222 222 117
Width: 1195
Flags: HW
LayerCount: 2
Fore
SplineSet
520.167 286 m 0,0,1
 392.333 286 392.333 286 308 297 c 1,2,-1
 271 0 l 1,3,-1
 121 0 l 1,4,-1
 314 1530 l 1,5,-1
 464 1530 l 1,6,-1
 431 1266 l 1,7,8
 637.25 1281 637.25 1281 676 1281 c 0,9,10
 1121.98 1281 1121.98 1281 1126 887 c 0,11,12
 1126.09 881.021 1126.09 881.021 1126.09 875.094 c 0,13,14
 1126.09 608.346 1126.09 608.346 957.5 447 c 0,15,16
 789.276 286 789.276 286 520.167 286 c 0,0,1
324 419 m 1,17,18
 399 404 399 404 513.5 404.5 c 128,-1,19
 628 405 628 405 713 437 c 128,-1,20
 798 469 798 469 855.5 529 c 0,21,22
 974.053 652.707 974.053 652.707 974.053 881.017 c 0,23,24
 974.053 1167 974.053 1167 652 1167 c 0,25,26
 556 1167 556 1167 416 1147 c 1,27,-1
 324 419 l 1,17,18
EndSplineSet
EndChar

StartChar: germandbls
Encoding: 223 223 118
Width: 1180
Flags: HW
LayerCount: 2
Fore
SplineSet
202 929 m 2,0,1
 236.715 1203.07 236.715 1203.07 339 1366.5 c 0,2,3
 457.414 1555.71 457.414 1555.71 667 1581 c 0,4,5
 725 1588 725 1588 786 1588 c 128,-1,6
 847 1588 847 1588 904 1569.5 c 128,-1,7
 961 1551 961 1551 1002 1514.5 c 0,8,9
 1088 1437.94 1088 1437.94 1088 1301 c 0,10,11
 1088 1145 1088 1145 955 1012 c 1,12,-1
 891 947 l 2,13,14
 822 875.7 822 875.7 822 824 c 0,15,16
 822 787.722 822 787.722 851 749.861 c 128,-1,17
 880 712 880 712 902.5 686 c 128,-1,18
 925 660 925 660 947 630 c 128,-1,19
 969 600 969 600 991.5 566 c 128,-1,20
 1014 532 1014 532 1032 492.5 c 0,21,22
 1073 402.528 1073 402.528 1073 318.264 c 128,-1,23
 1073 234 1073 234 1045.5 174.5 c 128,-1,24
 1018 115 1018 115 967 72.5 c 0,25,26
 860.8 -16 860.8 -16 679 -16 c 0,27,28
 572.368 -16 572.368 -16 472.5 18.5 c 0,29,30
 445 28 445 28 429 37 c 1,31,-1
 449 181 l 1,32,33
 503.094 131.067 503.094 131.067 595.5 109 c 0,34,35
 629 101 629 101 678.5 101 c 128,-1,36
 728 101 728 101 774.5 111.5 c 128,-1,37
 821 122 821 122 852.5 146 c 0,38,39
 916 194.381 916 194.381 916 301 c 0,40,41
 916 410.562 916 410.562 819 550 c 1,42,43
 722.723 663.021 722.723 663.021 700.361 718.51 c 128,-1,44
 678 774 678 774 678 805 c 128,-1,45
 678 836 678 836 685 861.5 c 128,-1,46
 692 887 692 887 704 909 c 128,-1,47
 716 931 716 931 732.5 950.5 c 2,48,-1
 768 991 l 1,49,50
 853.46 1078.9 853.46 1078.9 881.23 1123.95 c 0,51,52
 934 1209.56 934 1209.56 934 1296 c 0,53,54
 934 1420.48 934 1420.48 827.5 1464.5 c 0,55,56
 790 1480 790 1480 741 1480 c 128,-1,57
 692 1480 692 1480 650 1470.5 c 128,-1,58
 608 1461 608 1461 570 1436 c 128,-1,59
 532 1411 532 1411 498 1368.5 c 128,-1,60
 464 1326 464 1326 435 1259.5 c 0,61,62
 375.9 1123.98 375.9 1123.98 343 884 c 1,63,-1
 233 3 l 1,64,-1
 85 3 l 1,65,-1
 202 929 l 2,0,1
EndSplineSet
EndChar

StartChar: eth
Encoding: 240 240 119
Width: 1162
Flags: HW
LayerCount: 2
Fore
SplineSet
382 1769 m 1,0,1
 515.193 1735.7 515.193 1735.7 673 1632 c 1,2,-1
 831 1816 l 1,3,-1
 907 1747 l 1,4,-1
 755 1572 l 1,5,-1
 762 1566 l 1,6,7
 1065 1284.23 1065 1284.23 1065 868 c 0,8,9
 1065 494.361 1065 494.361 917.5 246.5 c 0,10,11
 818.298 79.7998 818.298 79.7998 662 15.5 c 0,12,13
 583 -17 583 -17 485 -17 c 128,-1,14
 387 -17 387 -17 312 24 c 128,-1,15
 237 65 237 65 187.5 130 c 0,16,17
 89 259.343 89 259.343 89 432.672 c 128,-1,18
 89 606 89 606 136 739.5 c 128,-1,19
 183 873 183 873 260.5 965.5 c 128,-1,20
 338 1058 338 1058 438 1106.5 c 128,-1,21
 538 1155 538 1155 645 1155 c 0,22,23
 784.395 1155 784.395 1155 873 1091.5 c 0,24,25
 903 1070 903 1070 921 1041 c 1,26,27
 898.88 1187.8 898.88 1187.8 855.94 1266.4 c 0,28,29
 787.261 1392.12 787.261 1392.12 680 1487 c 1,30,-1
 520 1308 l 1,31,-1
 438 1376 l 1,32,-1
 601 1548 l 1,33,34
 455.259 1652.1 455.259 1652.1 348 1677 c 1,35,-1
 382 1769 l 1,0,1
275 659.5 m 128,-1,37
 249 548 249 548 249 455.5 c 128,-1,38
 249 363 249 363 266 301.5 c 128,-1,39
 283 240 283 240 316 192.5 c 0,40,41
 388.6 88 388.6 88 510 88 c 0,42,43
 651.958 88 651.958 88 760 242.5 c 0,44,45
 863.01 389.804 863.01 389.804 894 615 c 0,46,47
 897 644 897 644 901 676.5 c 0,48,49
 913.4 777.25 913.4 777.25 913.4 804.425 c 128,-1,50
 913.4 831.6 913.4 831.6 911.7 845.3 c 128,-1,51
 910 859 910 859 893 894.5 c 128,-1,52
 876 930 876 930 843 964 c 0,53,54
 762.441 1047 762.441 1047 654.721 1047 c 128,-1,55
 547 1047 547 1047 474.5 995 c 128,-1,56
 402 943 402 943 351.5 857 c 128,-1,36
 301 771 301 771 275 659.5 c 128,-1,37
EndSplineSet
EndChar

StartChar: oslash
Encoding: 248 248 120
Width: 1134
Flags: HW
LayerCount: 2
Fore
SplineSet
481 -14 m 0,0,1
 338.556 -14 338.556 -14 244 60 c 1,2,-1
 116 -126 l 1,3,-1
 47 -88 l 1,4,-1
 189 118 l 1,5,6
 97.8 240.291 97.8 240.291 97.8 464.17 c 0,7,8
 97.8 732.712 97.8 732.712 251 938 c 0,9,10
 354.035 1076.07 354.035 1076.07 501.5 1130.5 c 0,11,12
 576 1158 576 1158 673.217 1158 c 128,-1,13
 770.435 1158 770.435 1158 856 1110 c 1,14,-1
 987 1298 l 1,15,-1
 1056 1260 l 1,16,-1
 918 1061 l 1,17,18
 1035.06 937.784 1035.06 937.784 1035.06 688.008 c 0,19,20
 1035.06 412.178 1035.06 412.178 885 207 c 0,21,22
 723.373 -14 723.373 -14 481 -14 c 0,0,1
774 1003 m 1,23,24
 719 1046 719 1046 645.5 1046 c 128,-1,25
 572 1046 572 1046 518.5 1020.5 c 128,-1,26
 465 995 465 995 422 951 c 128,-1,27
 379 907 379 907 346.5 848 c 0,28,29
 251.909 676.281 251.909 676.281 251.909 461.211 c 0,30,31
 251.909 332.227 251.909 332.227 286 247 c 1,32,-1
 774 1003 l 1,23,24
330 172 m 1,33,34
 394 99 394 99 505 99 c 0,35,36
 681.154 99 681.154 99 787.5 296.5 c 0,37,38
 879.091 466.597 879.091 466.597 879.091 682.793 c 0,39,40
 879.091 849.843 879.091 849.843 827 940 c 1,41,-1
 330 172 l 1,33,34
EndSplineSet
EndChar

StartChar: thorn
Encoding: 254 254 121
Width: 1159
Flags: HW
LayerCount: 2
Fore
SplineSet
619 17 m 0,0,1
 529 -16 529 -16 435.9 -16 c 128,-1,2
 342.8 -16 342.8 -16 242 8 c 1,3,-1
 165 -516 l 1,4,-1
 20 -516 l 1,5,-1
 95 2 l 1,6,-1
 313 1637 l 1,7,-1
 454 1637 l 1,8,-1
 396 1147 l 1,9,-1
 361 939 l 1,10,11
 463.363 1081.58 463.363 1081.58 622.5 1136.5 c 0,12,13
 679 1156 679 1156 751 1156 c 128,-1,14
 823 1156 823 1156 883 1124.5 c 128,-1,15
 943 1093 943 1093 982.5 1036 c 0,16,17
 1060 924.165 1060 924.165 1060 723 c 0,18,19
 1060 455.181 1060 455.181 904.5 236 c 0,20,21
 794.881 81.4898 794.881 81.4898 619 17 c 0,0,1
906 706 m 0,22,23
 906 1040 906 1040 716 1040 c 0,24,25
 605.584 1040 605.584 1040 494 950.5 c 0,26,27
 409.2 882.483 409.2 882.483 347 784 c 1,28,-1
 259 129 l 1,29,30
 339.294 94 339.294 94 430.147 94 c 128,-1,31
 521 94 521 94 585.5 121.5 c 128,-1,32
 650 149 650 149 701.5 195.5 c 128,-1,33
 753 242 753 242 791.5 303.5 c 128,-1,34
 830 365 830 365 855.5 433 c 0,35,36
 906 567.667 906 567.667 906 706 c 0,22,23
EndSplineSet
EndChar

StartChar: endash
Encoding: 8211 8211 122
Width: 1535
Flags: HW
LayerCount: 2
Fore
SplineSet
243 833 m 1,0,-1
 1340 833 l 1,1,-1
 1317 712 l 1,2,-1
 220 712 l 1,3,-1
 243 833 l 1,0,-1
EndSplineSet
EndChar

StartChar: emdash
Encoding: 8212 8212 123
Width: 2028
Flags: HW
LayerCount: 2
Fore
SplineSet
242 833 m 1,0,-1
 1833 833 l 1,1,-1
 1810 712 l 1,2,-1
 220 712 l 1,3,-1
 242 833 l 1,0,-1
EndSplineSet
EndChar

StartChar: quoteleft
Encoding: 8216 8216 124
Width: 651
Flags: HW
LayerCount: 2
Fore
SplineSet
362 926 m 1,0,1
 297.03 950.364 297.03 950.364 245 1042.5 c 0,2,3
 192 1136.35 192 1136.35 192 1241.68 c 128,-1,4
 192 1347 192 1347 222.5 1429.5 c 128,-1,5
 253 1512 253 1512 299.5 1573 c 0,6,7
 380.49 1679.24 380.49 1679.24 502 1740 c 1,8,-1
 560 1655 l 1,9,-1
 558 1639 l 1,10,11
 433.895 1572.81 433.895 1572.81 377.5 1405 c 0,12,13
 357 1344 357 1344 357 1292 c 128,-1,14
 357 1240 357 1240 363 1208 c 128,-1,15
 369 1176 369 1176 381.5 1146 c 0,16,17
 408.677 1080.77 408.677 1080.77 459 1044 c 1,18,-1
 455 1013 l 1,19,-1
 362 926 l 1,0,1
EndSplineSet
EndChar

StartChar: dagger
Encoding: 8224 8224 130
Width: 815
Flags: HW
LayerCount: 2
Fore
SplineSet
410 1008 m 1,0,-1
 437 1146 l 1,1,-1
 138 1146 l 1,2,-1
 154 1260 l 1,3,-1
 470 1260 l 1,4,-1
 481 1469 l 1,5,-1
 507 1646 l 1,6,-1
 651 1646 l 1,7,-1
 622 1469 l 1,8,-1
 566 1260 l 1,9,-1
 873 1260 l 1,10,-1
 857 1146 l 1,11,-1
 566 1146 l 1,12,-1
 554 1008 l 1,13,-1
 396 151 l 1,14,-1
 306 151 l 1,15,-1
 410 1008 l 1,0,-1
EndSplineSet
EndChar

StartChar: bullet
Encoding: 8226 8226 131
Width: 858
Flags: HW
LayerCount: 2
Fore
SplineSet
499 575.5 m 128,-1,1
 463 557 463 557 426.5 557 c 128,-1,2
 390 557 390 557 365 567.5 c 128,-1,3
 340 578 340 578 321.5 596.5 c 0,4,5
 282 636 282 636 282 682 c 128,-1,6
 282 728 282 728 297 763 c 128,-1,7
 312 798 312 798 338 826.5 c 0,8,9
 396.842 891 396.842 891 477 891 c 0,10,11
 568.429 891 568.429 891 602.5 811.5 c 0,12,13
 613 787 613 787 613 755 c 128,-1,14
 613 723 613 723 599.5 687.5 c 128,-1,15
 586 652 586 652 560.5 623 c 128,-1,0
 535 594 535 594 499 575.5 c 128,-1,1
EndSplineSet
EndChar

StartChar: mu
Encoding: 181 181 134
Width: 1354
Flags: HW
LayerCount: 2
Fore
SplineSet
1062 114 m 0,0,1
 1118.06 114 1118.06 114 1186 196 c 1,2,-1
 1235 111 l 1,3,4
 1192.63 43.2049 1192.63 43.2049 1093 -1.5 c 0,5,6
 1054 -19 1054 -19 1017 -19 c 128,-1,7
 980 -19 980 -19 955.5 -10 c 0,8,9
 876.909 18.8701 876.909 18.8701 876.909 128.641 c 0,10,11
 876.909 132.273 876.909 132.273 877 136 c 1,12,13
 806.141 62.6108 806.141 62.6108 754.071 35.3054 c 0,14,15
 650.512 -19 650.512 -19 535 -19 c 0,16,17
 474.161 -19 474.161 -19 431.581 5 c 0,18,19
 354.343 48.5339 354.343 48.5339 341 100 c 1,20,-1
 271 -372 l 1,21,-1
 130 -372 l 1,22,-1
 318 894 l 1,23,24
 328.606 975.314 328.606 975.314 316.803 991.657 c 128,-1,25
 305 1008 305 1008 293 1008 c 0,26,27
 245 1008 245 1008 188 951 c 1,28,-1
 138 1039 l 1,29,30
 184.494 1100.99 184.494 1100.99 278.5 1135.5 c 0,31,32
 318 1150 318 1150 356 1150 c 128,-1,33
 394 1150 394 1150 417 1139.5 c 0,34,35
 478.13 1111.59 478.13 1111.59 478.13 1013.41 c 0,36,37
 478.13 992.044 478.13 992.044 475.565 972.522 c 0,38,39
 390.987 361.196 390.987 361.196 389.5 351 c 2,40,-1
 386 327 l 2,41,42
 384.684 311.211 384.684 311.211 384.684 283.776 c 128,-1,43
 384.684 256.342 384.684 256.342 396.842 221.171 c 128,-1,44
 409 186 409 186 436 161.5 c 0,45,46
 487.245 115 487.245 115 576 115 c 0,47,48
 656.333 115 656.333 115 752 178 c 0,49,50
 829.708 229.173 829.708 229.173 883 297 c 1,51,-1
 1001 1140 l 1,52,-1
 1149 1140 l 1,53,-1
 1025 225 l 2,54,55
 1021.34 202.6 1021.34 202.6 1021.34 183.962 c 0,56,57
 1021.34 114 1021.34 114 1062 114 c 0,0,1
EndSplineSet
EndChar

StartChar: logicalnot
Encoding: 172 172 136
Width: 1370
Flags: HW
LayerCount: 2
Fore
SplineSet
226 835 m 1,0,-1
 1186 835 l 1,1,-1
 1126 322 l 1,2,-1
 992 322 l 1,3,-1
 1039 718 l 1,4,-1
 213 718 l 1,5,-1
 226 835 l 1,0,-1
EndSplineSet
EndChar

StartChar: yen
Encoding: 165 165 137
Width: 1483
Flags: HW
LayerCount: 2
Fore
SplineSet
250 482 m 1,0,-1
 668 482 l 1,1,-1
 697 736 l 1,2,-1
 282 736 l 1,3,-1
 295 837 l 1,4,-1
 663 837 l 1,5,-1
 327 1530 l 1,6,-1
 474 1530 l 1,7,-1
 746 956 l 1,8,-1
 795 838 l 1,9,-1
 870 962 l 1,10,-1
 1263 1530 l 1,11,-1
 1412 1530 l 1,12,-1
 896 837 l 1,13,-1
 1273 837 l 1,14,-1
 1260 736 l 1,15,-1
 833 736 l 1,16,-1
 803 482 l 1,17,-1
 1228 482 l 1,18,-1
 1216 382 l 1,19,-1
 791 382 l 1,20,-1
 747 0 l 1,21,-1
 613 0 l 1,22,-1
 656 382 l 1,23,-1
 237 382 l 1,24,-1
 250 482 l 1,0,-1
EndSplineSet
EndChar

StartChar: divide
Encoding: 247 247 138
Width: 1338
Flags: HW
LayerCount: 2
Fore
SplineSet
759 1270 m 0,0,1
 850.333 1270 850.333 1270 850.333 1187.79 c 0,2,3
 850.333 1122.41 850.333 1122.41 801.5 1081.5 c 0,4,5
 763.903 1050 763.903 1050 729.952 1050 c 128,-1,6
 696 1050 696 1050 678 1056.5 c 128,-1,7
 660 1063 660 1063 647 1076 c 0,8,9
 619.214 1103.79 619.214 1103.79 623.607 1141.39 c 128,-1,10
 628 1179 628 1179 641 1200.5 c 128,-1,11
 654 1222 654 1222 673 1237.5 c 0,12,13
 712.839 1270 712.839 1270 759 1270 c 0,0,1
257 836 m 1,14,-1
 1126 836 l 1,15,-1
 1112 714 l 1,16,-1
 243 714 l 1,17,-1
 257 836 l 1,14,-1
664 497 m 0,18,19
 754.359 497 754.359 497 754.359 415.13 c 0,20,21
 754.359 350.142 754.359 350.142 706 308.5 c 0,22,23
 669.419 277 669.419 277 634.71 277 c 128,-1,24
 600 277 600 277 582.5 283.5 c 0,25,26
 529 303.371 529 303.371 529 363 c 0,27,28
 529 424.526 529 424.526 578 464.5 c 0,29,30
 617.839 497 617.839 497 664 497 c 0,18,19
EndSplineSet
EndChar

StartChar: Ccedilla
Encoding: 199 199 139
Width: 1141
Flags: HW
LayerCount: 2
Fore
SplineSet
334 -319 m 1,0,1
 367.429 -337 367.429 -337 422 -337 c 0,2,3
 592 -337 592 -337 592 -144 c 0,4,5
 592 -60.4 592 -60.4 584 -14 c 1,6,7
 339.593 -0.113255 339.593 -0.113255 217 202 c 0,8,9
 109.667 378.955 109.667 378.955 109.667 657.253 c 0,10,11
 109.667 904.244 109.667 904.244 200 1109 c 0,12,13
 290.218 1313.49 290.218 1313.49 455.5 1429.5 c 0,14,15
 621.487 1546 621.487 1546 824 1546 c 0,16,17
 948.059 1546 948.059 1546 1043.5 1516.5 c 2,18,-1
 1147 1484 l 1,19,-1
 1094 1358 l 1,20,-1
 1055.5 1375.5 l 1,21,22
 960.143 1420 960.143 1420 840.072 1420 c 128,-1,23
 720 1420 720 1420 640.5 1386.5 c 128,-1,24
 561 1353 561 1353 498.5 1295.5 c 128,-1,25
 436 1238 436 1238 391 1161.5 c 0,26,27
 263.742 945.161 263.742 945.161 263.742 664.527 c 0,28,29
 263.742 276.739 263.742 276.739 476 148.5 c 0,30,31
 548 105 548 105 629.5 105 c 128,-1,32
 711 105 711 105 768 116 c 128,-1,33
 825 127 825 127 873 143.5 c 0,34,35
 964.566 174.976 964.566 174.976 1015 211 c 1,36,-1
 1038 83 l 1,37,38
 906.741 0.0994837 906.741 0.0994837 695 -12 c 1,39,40
 723 -80.9231 723 -80.9231 723 -170.462 c 128,-1,41
 723 -260 723 -260 702 -314.5 c 128,-1,42
 681 -369 681 -369 645 -402 c 0,43,44
 578.455 -463 578.455 -463 460 -463 c 0,45,46
 352.667 -463 352.667 -463 314 -434 c 1,47,-1
 334 -319 l 1,0,1
EndSplineSet
EndChar

StartChar: AE
Encoding: 198 198 140
Width: 1781
Flags: HW
LayerCount: 2
Fore
SplineSet
-107 0 m 1,0,-1
 699 1436 l 1,1,-1
 401 1453 l 1,2,-1
 412 1530 l 1,3,-1
 1717 1530 l 1,4,-1
 1711 1410 l 1,5,-1
 1097 1417 l 1,6,-1
 1023 838 l 1,7,-1
 1498 844 l 1,8,-1
 1489 717 l 1,9,-1
 1010 728 l 1,10,-1
 932 114 l 1,11,-1
 1669 127 l 1,12,-1
 1658 0 l 1,13,-1
 768 0 l 1,14,-1
 826 459 l 1,15,-1
 306 459 l 1,16,-1
 55 0 l 1,17,-1
 -107 0 l 1,0,-1
840 575 m 1,18,-1
 947 1420 l 1,19,-1
 836 1425 l 1,20,-1
 370 575 l 1,21,-1
 840 575 l 1,18,-1
EndSplineSet
EndChar

StartChar: cent
Encoding: 162 162 141
Width: 1057
Flags: HW
LayerCount: 2
Fore
SplineSet
292 448 m 0,0,1
 292 98 292 98 534 98 c 0,2,3
 619 98 619 98 687 139 c 128,-1,4
 755 180 755 180 820 245 c 1,5,-1
 870 163 l 1,6,7
 784.065 54.4502 784.065 54.4502 646 5.5 c 0,8,9
 591 -14 591 -14 527 -16 c 1,10,-1
 490 -215 l 1,11,-1
 375 -215 l 1,12,-1
 414 -5 l 1,13,14
 211.996 39.5597 211.996 39.5597 157.5 270 c 0,15,16
 140 344 140 344 140 424.5 c 128,-1,17
 140 505 140 505 153.5 582.5 c 128,-1,18
 167 660 167 660 194.5 735 c 128,-1,19
 222 810 222 810 263 878.5 c 128,-1,20
 304 947 304 947 358 1002 c 0,21,22
 475.46 1121.64 475.46 1121.64 628 1148 c 1,23,-1
 678 1358 l 1,24,-1
 794 1358 l 1,25,-1
 744 1155 l 1,26,27
 863.565 1150.22 863.565 1150.22 934 1115 c 1,28,-1
 895 987 l 1,29,30
 822.8 1044 822.8 1044 721.4 1044 c 128,-1,31
 620 1044 620 1044 545.5 996 c 128,-1,32
 471 948 471 948 415 866.5 c 0,33,34
 292 687.491 292 687.491 292 448 c 0,0,1
EndSplineSet
EndChar

StartChar: ae
Encoding: 230 230 142
Width: 1624
Flags: HW
LayerCount: 2
Fore
SplineSet
703 265 m 1,0,1
 556.88 -16 556.88 -16 358 -16 c 0,2,3
 81 -16 81 -16 81 415 c 0,4,5
 81 685.311 81 685.311 232.5 903 c 0,6,7
 341.117 1059.07 341.117 1059.07 514.5 1123 c 0,8,9
 604 1156 604 1156 735.48 1156 c 128,-1,10
 866.96 1156 866.96 1156 998 1078 c 1,11,12
 1121.16 1156 1121.16 1156 1273 1156 c 0,13,14
 1478.4 1156 1478.4 1156 1535 1004.5 c 0,15,16
 1552 959 1552 959 1552 891 c 128,-1,17
 1552 823 1552 823 1515.5 757.5 c 128,-1,18
 1479 692 1479 692 1419 641.5 c 128,-1,19
 1359 591 1359 591 1282.5 555 c 128,-1,20
 1206 519 1206 519 1127 495 c 0,21,22
 979.602 450.221 979.602 450.221 840 443 c 1,23,24
 839.25 428.5 839.25 428.5 839.25 399.188 c 128,-1,25
 839.25 369.875 839.25 369.875 847.125 316.938 c 128,-1,26
 855 264 855 264 882.5 214.5 c 0,27,28
 945 102 945 102 1089 102 c 0,29,30
 1269.89 102 1269.89 102 1437 273 c 1,31,-1
 1480 186 l 1,32,33
 1430.24 114.91 1430.24 114.91 1327 55.5 c 0,34,35
 1202.75 -16 1202.75 -16 1072 -16 c 0,36,37
 849.588 -16 849.588 -16 749 155 c 0,38,39
 719 206 719 206 703 265 c 1,0,1
235 433 m 0,40,41
 235 100 235 100 391 100 c 0,42,43
 531.25 100 531.25 100 684 382 c 1,44,45
 671.796 565.061 671.796 565.061 741.5 750.5 c 0,46,47
 793.816 889.681 793.816 889.681 891 991 c 1,48,49
 793.692 1046 793.692 1046 704.346 1046 c 128,-1,50
 615 1046 615 1046 551.5 1019.5 c 128,-1,51
 488 993 488 993 437.5 947.5 c 128,-1,52
 387 902 387 902 349 841.5 c 128,-1,53
 311 781 311 781 285.5 713 c 0,54,55
 235 578.333 235 578.333 235 433 c 0,40,41
845 550 m 1,56,57
 1038.85 556.923 1038.85 556.923 1208.5 645.5 c 0,58,59
 1403 747.053 1403 747.053 1403 895.027 c 128,-1,60
 1403 1043 1403 1043 1242.61 1043 c 128,-1,61
 1082.22 1043 1082.22 1043 971.75 889.305 c 128,-1,62
 861.281 735.609 861.281 735.609 845 550 c 1,56,57
EndSplineSet
EndChar

StartChar: Lslash
Encoding: 321 321 143
Width: 978
Flags: HW
LayerCount: 2
Fore
SplineSet
195 593 m 1,0,-1
 -1 510 l 1,1,-1
 -29 601 l 1,2,-1
 209 704 l 1,3,-1
 314 1531 l 1,4,-1
 464 1531 l 1,5,-1
 368 772 l 1,6,-1
 796 957 l 1,7,-1
 823 859 l 1,8,-1
 354 660 l 1,9,-1
 287 127 l 1,10,-1
 880 131 l 1,11,-1
 864 1 l 1,12,-1
 121 1 l 1,13,-1
 195 593 l 1,0,-1
EndSplineSet
EndChar

StartChar: circumflex
Encoding: 710 710 144
Width: 795
Flags: HW
LayerCount: 2
Fore
SplineSet
57 1274 m 1,0,-1
 400 1650 l 1,1,-1
 537 1650 l 1,2,-1
 740 1273 l 1,3,-1
 667 1220 l 1,4,-1
 449 1514 l 1,5,-1
 116 1215 l 1,6,-1
 57 1274 l 1,0,-1
EndSplineSet
EndChar

StartChar: caron
Encoding: 711 711 145
Width: 795
Flags: HW
LayerCount: 2
Fore
SplineSet
50 1583 m 1,0,-1
 117 1650 l 1,1,-1
 366 1371 l 1,2,-1
 699 1650 l 1,3,-1
 762 1583 l 1,4,-1
 427 1255 l 1,5,-1
 292 1255 l 1,6,-1
 50 1583 l 1,0,-1
EndSplineSet
EndChar

StartChar: breve
Encoding: 728 728 146
Width: 717
Flags: HW
LayerCount: 2
Fore
SplineSet
478 1333 m 128,-1,1
 419 1305 419 1305 344.5 1305 c 128,-1,2
 270 1305 270 1305 214 1333 c 128,-1,3
 158 1361 158 1361 122 1406 c 0,4,5
 52 1493.5 52 1493.5 52 1627 c 2,6,-1
 52 1637.5 l 2,7,8
 52 1643 52 1643 53 1648 c 1,9,-1
 156 1648 l 1,10,11
 156 1630 156 1630 159.5 1606 c 128,-1,12
 163 1582 163 1582 175 1546.5 c 128,-1,13
 187 1511 187 1511 209.5 1482 c 0,14,15
 259.931 1417 259.931 1417 353 1417 c 0,16,17
 451.5 1417 451.5 1417 517.5 1501 c 0,18,19
 566.015 1562.75 566.015 1562.75 582 1648 c 1,20,-1
 683 1648 l 1,21,22
 683.25 1644.5 683.25 1644.5 683.25 1637 c 128,-1,23
 683.25 1629.5 683.25 1629.5 679.125 1595.25 c 128,-1,24
 675 1561 675 1561 649 1505.5 c 128,-1,25
 623 1450 623 1450 580 1405.5 c 128,-1,0
 537 1361 537 1361 478 1333 c 128,-1,1
EndSplineSet
EndChar

StartChar: ring
Encoding: 730 730 147
Width: 723
Flags: HW
LayerCount: 2
Fore
SplineSet
171.5 1323 m 128,-1,1
 99 1388 99 1388 99 1505 c 0,2,3
 99 1635.79 99 1635.79 210.5 1713.5 c 0,4,5
 307.348 1781 307.348 1781 441 1781 c 0,6,7
 632.957 1781 632.957 1781 692 1636.5 c 0,8,9
 711 1590 711 1590 711 1525.5 c 128,-1,10
 711 1461 711 1461 683.5 1409.5 c 128,-1,11
 656 1358 656 1358 609.5 1324.5 c 0,12,13
 517.194 1258 517.194 1258 380.597 1258 c 128,-1,0
 244 1258 244 1258 171.5 1323 c 128,-1,1
311 1353 m 128,-1,15
 344 1341 344 1341 385 1341 c 128,-1,16
 426 1341 426 1341 465.5 1350.5 c 128,-1,17
 505 1360 505 1360 535 1383.5 c 0,18,19
 602 1435.98 602 1435.98 602 1544 c 0,20,21
 602 1613 602 1613 555.5 1655 c 128,-1,22
 509 1697 509 1697 429 1697 c 0,23,24
 282.066 1697 282.066 1697 226.5 1594 c 0,25,26
 206 1556 206 1556 206 1511 c 128,-1,27
 206 1466 206 1466 219 1437 c 128,-1,28
 232 1408 232 1408 255 1386.5 c 128,-1,14
 278 1365 278 1365 311 1353 c 128,-1,15
EndSplineSet
EndChar

StartChar: tilde
Encoding: 732 732 148
Width: 815
Flags: HW
LayerCount: 2
Fore
SplineSet
9 1481 m 1,0,1
 62.8413 1585.32 62.8413 1585.32 193 1632.5 c 0,2,3
 233 1647 233 1647 280 1647 c 128,-1,4
 327 1647 327 1647 363.5 1624.5 c 128,-1,5
 400 1602 400 1602 429.5 1575 c 128,-1,6
 459 1548 459 1548 487 1525.5 c 128,-1,7
 515 1503 515 1503 548.5 1503 c 128,-1,8
 582 1503 582 1503 605.5 1515 c 128,-1,9
 629 1527 629 1527 647.5 1544.5 c 128,-1,10
 666 1562 666 1562 680.5 1582.5 c 2,11,-1
 707 1620 l 1,12,-1
 773 1550 l 1,13,14
 749.207 1480.61 749.207 1480.61 675.5 1430 c 0,15,16
 601.217 1379 601.217 1379 523 1379 c 0,17,18
 456.531 1379 456.531 1379 419.266 1405.5 c 128,-1,19
 382 1432 382 1432 363 1450.5 c 128,-1,20
 344 1469 344 1469 324.5 1485.5 c 0,21,22
 212.178 1580.54 212.178 1580.54 106.5 1451 c 1,23,-1
 77 1416 l 1,24,-1
 9 1481 l 1,0,1
EndSplineSet
EndChar

StartChar: hungarumlaut
Encoding: 733 733 149
Width: 918
Flags: HW
LayerCount: 2
Fore
SplineSet
474 1292 m 1,0,-1
 722 1706 l 1,1,-1
 832 1617 l 1,2,3
 803.473 1557.75 803.473 1557.75 766.237 1504.88 c 1,4,5
 701 1415.5 l 1,6,7
 610.678 1297.76 610.678 1297.76 547 1250 c 1,8,-1
 474 1292 l 1,0,-1
49 1292 m 1,9,-1
 287 1706 l 1,10,-1
 397 1618 l 1,11,12
 359.009 1534.42 359.009 1534.42 296.505 1449.71 c 0,13,14
 192.022 1308.11 192.022 1308.11 121 1250 c 1,15,-1
 49 1292 l 1,9,-1
EndSplineSet
EndChar

StartChar: ogonek
Encoding: 731 731 150
Width: 487
Flags: HW
LayerCount: 2
Fore
SplineSet
431 -336 m 1,0,1
 324.467 -430 324.467 -430 185 -430 c 0,2,3
 97 -430 97 -430 49 -382 c 0,4,5
 10 -343 10 -343 10 -290.5 c 128,-1,6
 10 -238 10 -238 37.5 -193 c 128,-1,7
 65 -148 65 -148 105 -111.5 c 0,8,9
 171.006 -51.2693 171.006 -51.2693 265 0 c 1,10,-1
 342 46 l 1,11,-1
 387 0 l 1,12,-1
 317.5 -47.5 l 1,13,14
 158 -158.544 158 -158.544 158 -245 c 0,15,16
 158 -284 158 -284 181 -300.5 c 128,-1,17
 204 -317 204 -317 233 -317 c 0,18,19
 316.724 -317 316.724 -317 392 -258 c 1,20,-1
 431 -336 l 1,0,1
EndSplineSet
EndChar

StartChar: Eogonek
Encoding: 280 280 151
Width: 1138
Flags: HW
LayerCount: 2
Fore
SplineSet
994 -342 m 1,0,1
 879.857 -436 879.857 -436 748 -436 c 0,2,3
 655 -436 655 -436 602.5 -383.5 c 0,4,5
 560 -341 560 -341 560 -288 c 128,-1,6
 560 -235 560 -235 588.5 -191 c 128,-1,7
 617 -147 617 -147 658 -110.5 c 0,8,9
 713.199 -61.3593 713.199 -61.3593 823 0 c 1,10,-1
 121 0 l 1,11,-1
 314 1530 l 1,12,-1
 1070 1530 l 1,13,-1
 1064 1410 l 1,14,-1
 450 1417 l 1,15,-1
 377 838 l 1,16,-1
 851 844 l 1,17,-1
 842 717 l 1,18,-1
 363 728 l 1,19,-1
 285 114 l 1,20,-1
 1022 127 l 1,21,-1
 1011 0 l 1,22,-1
 947 0 l 1,23,-1
 876 -47 l 2,24,25
 708 -157.634 708 -157.634 708 -242 c 0,26,27
 708 -281 708 -281 733 -301.5 c 128,-1,28
 758 -322 758 -322 796 -322 c 0,29,30
 880 -322 880 -322 955 -264 c 1,31,-1
 994 -342 l 1,0,1
EndSplineSet
EndChar

StartChar: twosuperior
Encoding: 178 178 153
Width: 1168
Flags: HW
LayerCount: 2
Fore
SplineSet
644 1530 m 0,0,1
 454.391 1530 454.391 1530 309 1378 c 1,2,-1
 255 1450 l 1,3,4
 344.304 1571.78 344.304 1571.78 522.5 1626.5 c 0,5,6
 589.387 1647.04 589.387 1647.04 670.023 1647.04 c 128,-1,7
 750.66 1647.04 750.66 1647.04 815.83 1623.52 c 128,-1,8
 881 1600 881 1600 925.5 1562.5 c 0,9,10
 1013 1488.76 1013 1488.76 1013 1403.38 c 128,-1,11
 1013 1318 1013 1318 988.5 1254 c 128,-1,12
 964 1190 964 1190 921 1132.5 c 128,-1,13
 878 1075 878 1075 819 1023 c 128,-1,14
 760 971 760 971 691.5 922.5 c 128,-1,15
 623 874 623 874 548 827.5 c 2,16,-1
 397 734 l 1,17,-1
 999 759 l 1,18,-1
 994 637 l 1,19,-1
 212 637 l 1,20,-1
 177 712 l 1,21,-1
 292 778 l 1,22,23
 704.838 1017.33 704.838 1017.33 828.5 1224.5 c 0,24,25
 867 1289 867 1289 867 1342 c 128,-1,26
 867 1395 867 1395 851 1428.5 c 128,-1,27
 835 1462 835 1462 805.5 1484.5 c 0,28,29
 745.844 1530 745.844 1530 644 1530 c 0,0,1
EndSplineSet
EndChar

StartChar: onesuperior
Encoding: 185 185 154
Width: 969
Flags: HW
LayerCount: 2
Fore
SplineSet
553 1455 m 1,0,1
 541.539 1448.12 541.539 1448.12 495.27 1434.56 c 2,2,3
 297 1378.5 l 2,4,5
 273 1372 273 1372 263 1369 c 1,6,-1
 258 1464 l 1,7,8
 413.822 1502.96 413.822 1502.96 597 1604.5 c 0,9,10
 643 1630 643 1630 662 1645 c 1,11,-1
 718 1628 l 1,12,-1
 580 636 l 1,13,-1
 438 636 l 1,14,-1
 553 1455 l 1,0,1
EndSplineSet
EndChar

StartChar: fraction
Encoding: 8260 8260 155
Width: 1026
Flags: HW
LayerCount: 2
Fore
SplineSet
839 1530 m 1,0,-1
 962 1530 l 1,1,-1
 281 0 l 1,2,-1
 158 0 l 1,3,-1
 839 1530 l 1,0,-1
EndSplineSet
EndChar

StartChar: foursuperior
Encoding: 8308 8308 157
Width: 1194
Flags: HW
LayerCount: 2
Fore
SplineSet
684 824 m 1,0,-1
 159 824 l 1,1,-1
 131 898 l 1,2,-1
 741 1765 l 1,3,-1
 779 1765 l 1,4,-1
 880 1687 l 1,5,-1
 297 933 l 1,6,-1
 701 945 l 1,7,-1
 740 1225 l 1,8,-1
 895 1243 l 1,9,-1
 855 950 l 1,10,-1
 1118 958 l 1,11,-1
 1103 824 l 1,12,-1
 838 824 l 1,13,-1
 791 476 l 1,14,-1
 635 476 l 1,15,-1
 684 824 l 1,0,-1
EndSplineSet
EndChar

StartChar: threesuperior
Encoding: 179 179 159
Width: 1065
Flags: HW
LayerCount: 2
Fore
SplineSet
240 1523 m 1,0,1
 413.433 1644 413.433 1644 625 1644 c 0,2,3
 766.627 1644 766.627 1644 849.5 1580.5 c 0,4,5
 925.05 1522.61 925.05 1522.61 925.05 1432.39 c 0,6,7
 925.05 1276.46 925.05 1276.46 760.5 1176 c 0,8,9
 713 1147 713 1147 660 1127 c 1,10,11
 798.92 1127 798.92 1127 865 1038.5 c 0,12,13
 912.091 975.432 912.091 975.432 912.091 890.074 c 0,14,15
 912.091 716.742 912.091 716.742 747 617 c 0,16,17
 604.655 531 604.655 531 413 531 c 0,18,19
 308.222 531 308.222 531 198.5 570.5 c 0,20,21
 161 584 161 584 132 602 c 1,22,-1
 146 686 l 1,23,24
 245 631 245 631 397 631 c 0,25,26
 531.379 631 531.379 631 630 686 c 0,27,28
 754.286 755.313 754.286 755.313 754.286 887.214 c 0,29,30
 754.286 999.466 754.286 999.466 644 1043 c 0,31,32
 606 1058 606 1058 557 1058 c 1,33,34
 550 1056 550 1056 524 1049.5 c 2,35,-1
 411 1021.5 l 2,36,37
 384 1015 384 1015 374 1012 c 1,38,-1
 390 1123 l 1,39,40
 555.141 1161.99 555.141 1161.99 625.07 1207 c 128,-1,41
 695 1252 695 1252 725.5 1296.5 c 128,-1,42
 756 1341 756 1341 756 1400 c 0,43,44
 756 1536.09 756 1536.09 578.322 1536.09 c 0,45,46
 425.136 1536.09 425.136 1536.09 275 1436 c 1,47,-1
 240 1523 l 1,0,1
EndSplineSet
EndChar

StartChar: dollar
Encoding: 36 36 160
Width: 1204
Flags: HW
LayerCount: 2
Fore
SplineSet
170 191 m 1,0,1
 222.335 134.926 222.335 134.926 397.5 106 c 0,2,3
 452 97 452 97 513.5 97 c 128,-1,4
 575 97 575 97 639.5 113 c 128,-1,5
 704 129 704 129 754 163 c 0,6,7
 864 237.8 864 237.8 864 374 c 0,8,9
 864 516.593 864 516.593 724.5 628.5 c 0,10,11
 679 665 679 665 622 702 c 128,-1,12
 565 739 565 739 506.5 781 c 128,-1,13
 448 823 448 823 399.5 876 c 0,14,15
 285.875 1000.17 285.875 1000.17 285.875 1160.93 c 0,16,17
 285.875 1326.16 285.875 1326.16 399 1429 c 0,18,19
 510.899 1530.73 510.899 1530.73 695 1543 c 1,20,-1
 725 1729 l 1,21,-1
 862 1729 l 1,22,-1
 832 1541 l 1,23,24
 992.747 1525.84 992.747 1525.84 1090 1461 c 1,25,-1
 1042 1346 l 1,26,27
 982.378 1405.62 982.378 1405.62 836.5 1424.5 c 0,28,29
 794 1430 794 1430 751 1430 c 128,-1,30
 708 1430 708 1430 653.5 1420.5 c 128,-1,31
 599 1411 599 1411 551.5 1384.5 c 0,32,33
 436.814 1320.52 436.814 1320.52 436.814 1176.5 c 0,34,35
 436.814 1016.94 436.814 1016.94 598 900 c 0,36,37
 649 863 649 863 706 825.5 c 1,38,-1
 817.5 748.5 l 1,39,40
 1020.03 601.712 1020.03 601.712 1020.03 405.141 c 0,41,42
 1020.03 220.689 1020.03 220.689 898 109 c 0,43,44
 780.902 1.82599 780.902 1.82599 578 -17 c 1,45,-1
 543 -230 l 1,46,-1
 406 -230 l 1,47,-1
 440 -18 l 1,48,49
 275.453 -5.81132 275.453 -5.81132 173 42 c 0,50,51
 143 56 143 56 128 68 c 1,52,-1
 170 191 l 1,0,1
EndSplineSet
EndChar

StartChar: grave.cap
Encoding: 65537 -1 161
Width: 522
Flags: HW
LayerCount: 2
Fore
SplineSet
363 1601 m 1,0,1
 234.112 1679.76 234.112 1679.76 113 1820 c 0,2,3
 75 1864 75 1864 52 1903 c 1,4,-1
 146 2000 l 1,5,-1
 419 1651 l 1,6,-1
 363 1601 l 1,0,1
EndSplineSet
EndChar

StartChar: dieresis.cap
Encoding: 65538 -1 162
Width: 807
Flags: HW
LayerCount: 2
Fore
SplineSet
635.5 1730.5 m 128,-1,1
 615 1721 615 1721 585 1721 c 128,-1,2
 555 1721 555 1721 530.481 1747.48 c 128,-1,3
 505.962 1773.96 505.962 1773.96 505.962 1808.44 c 128,-1,4
 505.962 1842.92 505.962 1842.92 516.5 1864.5 c 128,-1,5
 527 1886 527 1886 543.5 1901.5 c 0,6,7
 579.161 1935 579.161 1935 621.081 1935 c 128,-1,8
 663 1935 663 1935 686.164 1909.95 c 128,-1,9
 709.327 1884.89 709.327 1884.89 709.327 1864.74 c 128,-1,10
 709.327 1844.58 709.327 1844.58 708.164 1829.79 c 128,-1,11
 707 1815 707 1815 697.5 1793.5 c 128,-1,12
 688 1772 688 1772 672 1756 c 128,-1,0
 656 1740 656 1740 635.5 1730.5 c 128,-1,1
110.926 1747.48 m 128,-1,14
 86.8519 1773.96 86.8519 1773.96 86.8519 1812.71 c 0,15,16
 86.8519 1863.85 86.8519 1863.85 124.5 1901.5 c 0,17,18
 158 1935 158 1935 200 1935 c 128,-1,19
 242 1935 242 1935 265.575 1909.5 c 128,-1,20
 289.151 1884 289.151 1884 289.151 1846.25 c 0,21,22
 289.151 1794.87 289.151 1794.87 251.5 1756 c 0,23,24
 217.594 1721 217.594 1721 176.297 1721 c 128,-1,13
 135 1721 135 1721 110.926 1747.48 c 128,-1,14
EndSplineSet
EndChar

StartChar: commaaccent
Encoding: 63171 63171 163
Width: 367
Flags: HW
LayerCount: 2
Fore
SplineSet
142 -52 m 1,0,1
 225.936 -78.9795 225.936 -78.9795 253 -194 c 0,2,3
 261 -228 261 -228 261 -276 c 128,-1,4
 261 -324 261 -324 244 -375.5 c 128,-1,5
 227 -427 227 -427 201 -465.5 c 0,6,7
 147.833 -544.229 147.833 -544.229 87 -560 c 1,8,-1
 26 -521 l 1,9,-1
 28 -501 l 1,10,11
 116 -441.541 116 -441.541 116 -310 c 0,12,13
 116 -268 116 -268 96 -232.5 c 128,-1,14
 76 -197 76 -197 44 -184 c 1,15,-1
 48 -143 l 1,16,-1
 142 -52 l 1,0,1
EndSplineSet
EndChar

StartChar: acute.cap
Encoding: 65539 -1 164
Width: 526
Flags: HW
LayerCount: 2
Fore
SplineSet
82 1654 m 1,0,-1
 360 2000 l 1,1,-1
 455 1903 l 1,2,3
 413.255 1832.21 413.255 1832.21 339.627 1763.61 c 0,4,5
 221.134 1653.19 221.134 1653.19 139 1603 c 1,6,-1
 82 1654 l 1,0,-1
EndSplineSet
EndChar

StartChar: circumflex.cap
Encoding: 65540 -1 165
Width: 795
Flags: HW
LayerCount: 2
Fore
SplineSet
51 1653 m 1,0,-1
 391 2000 l 1,1,-1
 527 2000 l 1,2,-1
 732 1652 l 1,3,-1
 659 1599 l 1,4,-1
 440 1864 l 1,5,-1
 110 1594 l 1,6,-1
 51 1653 l 1,0,-1
EndSplineSet
EndChar

StartChar: caron.cap
Encoding: 65541 -1 166
Width: 793
Flags: HW
LayerCount: 2
Fore
SplineSet
50 1933 m 1,0,-1
 117 2000 l 1,1,-1
 361 1730 l 1,2,-1
 682 2000 l 1,3,-1
 745 1933 l 1,4,-1
 423 1614 l 1,5,-1
 288 1614 l 1,6,-1
 50 1933 l 1,0,-1
EndSplineSet
EndChar

StartChar: breve.cap
Encoding: 65542 -1 167
Width: 715
Flags: HW
LayerCount: 2
Fore
SplineSet
478 1665 m 128,-1,1
 419 1637 419 1637 344.5 1637 c 128,-1,2
 270 1637 270 1637 214 1665 c 128,-1,3
 158 1693 158 1693 122 1738 c 0,4,5
 52 1825.5 52 1825.5 52 1959 c 2,6,-1
 52 1969.5 l 2,7,8
 52 1975 52 1975 53 1980 c 1,9,-1
 156 1980 l 1,10,11
 156 1962 156 1962 159.5 1938 c 128,-1,12
 163 1914 163 1914 175 1878.5 c 128,-1,13
 187 1843 187 1843 209.5 1814 c 0,14,15
 259.931 1749 259.931 1749 353 1749 c 0,16,17
 451.5 1749 451.5 1749 517.5 1833 c 0,18,19
 566.015 1894.75 566.015 1894.75 582 1980 c 1,20,-1
 683 1980 l 1,21,22
 683.25 1976.5 683.25 1976.5 683.25 1969 c 128,-1,23
 683.25 1961.5 683.25 1961.5 679.125 1927.25 c 128,-1,24
 675 1893 675 1893 649 1837.5 c 128,-1,25
 623 1782 623 1782 580 1737.5 c 128,-1,0
 537 1693 537 1693 478 1665 c 128,-1,1
EndSplineSet
EndChar

StartChar: dotaccent.cap
Encoding: 65543 -1 168
Width: 389
Flags: HW
LayerCount: 2
Fore
SplineSet
82.3393 1733.03 m 128,-1,1
 58.6786 1759.05 58.6786 1759.05 58.6786 1795.96 c 0,2,3
 58.6786 1876.74 58.6786 1876.74 131 1911 c 0,4,5
 150 1920 150 1920 182 1920 c 128,-1,6
 214 1920 214 1920 237.077 1894.52 c 128,-1,7
 260.154 1869.04 260.154 1869.04 260.154 1831.37 c 0,8,9
 260.154 1778.15 260.154 1778.15 223 1741 c 0,10,11
 189 1707 189 1707 147.5 1707 c 128,-1,0
 106 1707 106 1707 82.3393 1733.03 c 128,-1,1
EndSplineSet
EndChar

StartChar: ring.cap
Encoding: 65544 -1 169
Width: 723
Flags: HW
LayerCount: 2
Fore
SplineSet
126.5 1547 m 128,-1,1
 54 1611 54 1611 54 1728 c 0,2,3
 54 1860.67 54 1860.67 165.5 1935 c 0,4,5
 263 2000 263 2000 396 2000 c 0,6,7
 587.548 2000 587.548 2000 647 1854.5 c 0,8,9
 666 1808 666 1808 666 1743.5 c 128,-1,10
 666 1679 666 1679 638.5 1629 c 128,-1,11
 611 1579 611 1579 564.5 1546.5 c 0,12,13
 473.646 1483 473.646 1483 336.323 1483 c 128,-1,0
 199 1483 199 1483 126.5 1547 c 128,-1,1
339 1565 m 0,14,15
 557 1565 557 1565 557 1762 c 0,16,17
 557 1870.28 557 1870.28 456 1905 c 0,18,19
 424 1916 424 1916 384.5 1916 c 128,-1,20
 345 1916 345 1916 305.5 1907 c 128,-1,21
 266 1898 266 1898 234 1876 c 0,22,23
 161 1825.81 161 1825.81 161 1723 c 0,24,25
 161 1654.74 161 1654.74 210 1610 c 0,26,27
 259.286 1565 259.286 1565 339 1565 c 0,14,15
EndSplineSet
EndChar

StartChar: tilde.cap
Encoding: 65545 -1 170
Width: 813
Flags: HW
LayerCount: 2
Fore
SplineSet
30 1798 m 1,0,1
 83.6434 1901.93 83.6434 1901.93 216.5 1949.5 c 0,2,3
 257 1964 257 1964 295 1964 c 128,-1,4
 333 1964 333 1964 360.5 1953 c 128,-1,5
 388 1942 388 1942 411 1925.5 c 128,-1,6
 434 1909 434 1909 453 1890 c 128,-1,7
 472 1871 472 1871 490.5 1854.5 c 0,8,9
 533.667 1816 533.667 1816 568.833 1816 c 128,-1,10
 604 1816 604 1816 627.5 1828.5 c 128,-1,11
 651 1841 651 1841 669.5 1859.5 c 128,-1,12
 688 1878 688 1878 702.5 1899 c 2,13,-1
 728 1937 l 1,14,-1
 794 1867 l 1,15,16
 769.787 1796.38 769.787 1796.38 697 1745 c 0,17,18
 623.333 1693 623.333 1693 545 1693 c 0,19,20
 477.636 1693 477.636 1693 440.818 1720 c 128,-1,21
 404 1747 404 1747 385 1766 c 128,-1,22
 366 1785 366 1785 347 1801 c 0,23,24
 302.622 1838.37 302.622 1838.37 264.811 1839.19 c 128,-1,25
 227 1840 227 1840 203.5 1829.5 c 128,-1,26
 180 1819 180 1819 161 1803 c 128,-1,27
 142 1787 142 1787 126.5 1768 c 2,28,-1
 97 1733 l 1,29,-1
 30 1798 l 1,0,1
EndSplineSet
EndChar

StartChar: hungarumlaut.cap
Encoding: 65546 -1 171
Width: 922
Flags: HW
LayerCount: 2
Fore
SplineSet
472 1621 m 1,0,-1
 784 1996 l 1,1,-1
 887 1906 l 1,2,3
 845.659 1830.83 845.659 1830.83 727.5 1723 c 0,4,5
 618.09 1623.15 618.09 1623.15 529 1571 c 1,6,-1
 472 1621 l 1,0,-1
59 1619 m 1,7,-1
 371 1994 l 1,8,-1
 472 1905 l 1,9,10
 420.613 1799.66 420.613 1799.66 221.5 1638 c 0,11,12
 171 1597 171 1597 131 1569 c 1,13,-1
 59 1619 l 1,7,-1
EndSplineSet
EndChar

StartChar: ordfeminine
Encoding: 170 170 172
Width: 854
Flags: HW
LayerCount: 2
Fore
SplineSet
607 883 m 1,0,1
 490.333 743 490.333 743 343 743 c 0,2,3
 166.182 743 166.182 743 119 916 c 0,4,5
 104 971 104 971 104 1037.5 c 128,-1,6
 104 1104 104 1104 121 1169 c 128,-1,7
 138 1234 138 1234 170 1293.5 c 128,-1,8
 202 1353 202 1353 247 1404.5 c 128,-1,9
 292 1456 292 1456 348 1494.5 c 0,10,11
 468 1577 468 1577 608 1577 c 0,12,13
 690 1577 690 1577 777 1548 c 1,14,-1
 855 1569 l 1,15,-1
 709 743 l 1,16,-1
 581 743 l 1,17,-1
 607 883 l 1,0,1
698 1459 m 1,18,19
 655.1 1498 655.1 1498 583.55 1498 c 128,-1,20
 512 1498 512 1498 447 1457.5 c 128,-1,21
 382 1417 382 1417 335.5 1353 c 0,22,23
 238 1218.81 238 1218.81 238 1051 c 0,24,25
 238 944.216 238 944.216 264.5 904.108 c 128,-1,26
 291 864 291 864 321 849 c 128,-1,27
 351 834 351 834 387.5 834 c 128,-1,28
 424 834 424 834 454.5 846.5 c 128,-1,29
 485 859 485 859 513.5 878 c 0,30,31
 561.696 910.13 561.696 910.13 613 964 c 1,32,-1
 698 1459 l 1,18,19
EndSplineSet
EndChar

StartChar: ordmasculine
Encoding: 186 186 173
Width: 854
Flags: HW
LayerCount: 2
Fore
SplineSet
723 856 m 0,0,1
 661 794 661 794 584.843 763.44 c 128,-1,2
 508.687 732.881 508.687 732.881 433.079 732.881 c 128,-1,3
 357.471 732.881 357.471 732.881 297.736 759.94 c 128,-1,4
 238 787 238 787 194.5 834.5 c 0,5,6
 101 936.598 101 936.598 101 1100 c 0,7,8
 101 1321.63 101 1321.63 244 1463.5 c 0,9,10
 370.535 1589.03 370.535 1589.03 534.392 1589.03 c 0,11,12
 682.613 1589.03 682.613 1589.03 774 1483.5 c 0,13,14
 861 1383.04 861 1383.04 861 1219 c 0,15,16
 861 994 861 994 723 856 c 0,0,1
352.5 849.5 m 0,17,18
 387 829 387 829 446 829 c 128,-1,19
 505 829 505 829 559.5 861 c 128,-1,20
 614 893 614 893 649.5 945.5 c 0,21,22
 719 1048.28 719 1048.28 719 1206 c 0,23,24
 719 1411.83 719 1411.83 614 1476 c 0,25,26
 578 1498 578 1498 518.5 1497.5 c 128,-1,27
 459 1497 459 1497 405 1462.5 c 128,-1,28
 351 1428 351 1428 314.5 1373 c 0,29,30
 241 1262.25 241 1262.25 241 1113 c 0,31,32
 241 915.754 241 915.754 352.5 849.5 c 0,17,18
EndSplineSet
EndChar

StartChar: percent
Encoding: 37 37 174
Width: 1911
Flags: HW
LayerCount: 2
Fore
SplineSet
1361 1530 m 1,0,-1
 1484 1530 l 1,1,-1
 537 0 l 1,2,-1
 414 0 l 1,3,-1
 1361 1530 l 1,0,-1
652 783 m 128,-1,5
 576 745 576 745 494.5 745 c 128,-1,6
 413 745 413 745 360.5 768.5 c 128,-1,7
 308 792 308 792 272.5 834 c 0,8,9
 201 918.592 201 918.592 201 1055 c 0,10,11
 201 1219.84 201 1219.84 316.5 1347 c 0,12,13
 437.308 1480 437.308 1480 611 1480 c 0,14,15
 823.183 1480 823.183 1480 875 1303.5 c 0,16,17
 891 1249 891 1249 891 1176 c 128,-1,18
 891 1103 891 1103 862.5 1024 c 128,-1,19
 834 945 834 945 781 883 c 128,-1,4
 728 821 728 821 652 783 c 128,-1,5
427.5 855 m 0,20,21
 461 839 461 839 514.5 839 c 128,-1,22
 568 839 568 839 616 872.5 c 128,-1,23
 664 906 664 906 696 957 c 0,24,25
 761 1060.59 761 1060.59 761 1166.8 c 0,26,27
 761 1386 761 1386 590 1386 c 0,28,29
 471.714 1386 471.714 1386 394 1274 c 0,30,31
 324 1173.12 324 1173.12 324 1056 c 0,32,33
 324 904.433 324 904.433 427.5 855 c 0,20,21
1037 380.5 m 0,34,35
 1037 453 1037 453 1067.5 529.5 c 128,-1,36
 1098 606 1098 606 1152.5 666 c 0,37,38
 1273.31 799 1273.31 799 1447 799 c 0,39,40
 1659.18 799 1659.18 799 1711 622.5 c 0,41,42
 1727 568 1727 568 1727 495 c 128,-1,43
 1727 422 1727 422 1698.5 343 c 128,-1,44
 1670 264 1670 264 1617 202 c 0,45,46
 1499.03 64 1499.03 64 1318 64 c 0,47,48
 1183.73 64 1183.73 64 1108.5 153 c 0,49,50
 1037 237.592 1037 237.592 1037 380.5 c 0,34,35
1160 377.5 m 0,51,52
 1160 327 1160 327 1172 287.5 c 128,-1,53
 1184 248 1184 248 1207 219 c 0,54,55
 1255.38 158 1255.38 158 1329.69 158 c 128,-1,56
 1404 158 1404 158 1452 191.5 c 128,-1,57
 1500 225 1500 225 1532 276 c 0,58,59
 1597 379.594 1597 379.594 1597 485.797 c 0,60,61
 1597 705 1597 705 1426 705 c 0,62,63
 1307.71 705 1307.71 705 1230 593 c 0,64,65
 1160 492.118 1160 492.118 1160 377.5 c 0,51,52
EndSplineSet
Ligature2: "'frac' Diagonal Fractions in Latin lookup 10 subtable" zero slash zero
EndChar

StartChar: Oslash
Encoding: 216 216 175
Width: 1378
Flags: HW
LayerCount: 2
Fore
SplineSet
605 -16 m 0,0,1
 410.806 -16 410.806 -16 285 114 c 1,2,-1
 125 -122 l 1,3,-1
 55 -83 l 1,4,-1
 233 178 l 1,5,6
 111.654 353.743 111.654 353.743 111.654 644.526 c 0,7,8
 111.654 1020.93 111.654 1020.93 307.5 1280 c 0,9,10
 436.532 1450.69 436.532 1450.69 620 1515.5 c 0,11,12
 712 1548 712 1548 813 1548 c 0,13,14
 979 1548 979 1548 1098 1446 c 1,15,-1
 1242 1659 l 1,16,-1
 1312 1621 l 1,17,-1
 1154 1389 l 1,18,19
 1300.17 1207.83 1300.17 1207.83 1300.17 894.945 c 0,20,21
 1300.17 514.346 1300.17 514.346 1111 255 c 0,22,23
 985.556 83.0199 985.556 83.0199 800.5 17 c 0,24,25
 708 -16 708 -16 605 -16 c 0,0,1
1015 1336 m 1,26,27
 931 1428 931 1428 789 1428 c 0,28,29
 564.669 1428 564.669 1428 412 1192.5 c 0,30,31
 318.584 1048.4 318.584 1048.4 284 847 c 0,32,33
 268.789 758.421 268.789 758.421 268.789 706.684 c 0,34,35
 268.789 441.453 268.789 441.453 328 304 c 1,36,-1
 1015 1336 l 1,26,27
372 226 m 1,37,38
 463 100 463 100 629 100 c 0,39,40
 855.848 100 855.848 100 1004 333.5 c 0,41,42
 1143.22 552.926 1143.22 552.926 1143.22 865.302 c 0,43,44
 1143.22 1122.34 1143.22 1122.34 1065 1267 c 1,45,-1
 372 226 l 1,37,38
EndSplineSet
EndChar

StartChar: aogonek
Encoding: 261 261 181
Width: 1152
Flags: HW
LayerCount: 2
Fore
SplineSet
937 -341 m 1,0,1
 830.467 -435 830.467 -435 690 -435 c 0,2,3
 596.333 -435 596.333 -435 545 -382.5 c 0,4,5
 503 -339.545 503 -339.545 503 -286.773 c 128,-1,6
 503 -234 503 -234 531.5 -189 c 128,-1,7
 560 -144 560 -144 600.5 -107.5 c 0,8,9
 656.076 -57.4133 656.076 -57.4133 765 2 c 1,10,-1
 784 202 l 1,11,-1
 784 205 l 1,12,13
 683.521 59.8633 683.521 59.8633 528.5 4 c 0,14,15
 473 -16 473 -16 401.5 -16 c 128,-1,16
 330 -16 330 -16 270 15 c 128,-1,17
 210 46 210 46 170.5 103 c 0,18,19
 93 214.835 93 214.835 93 415 c 0,20,21
 93 685.311 93 685.311 244.5 903 c 0,22,23
 353.117 1059.07 353.117 1059.07 526.5 1123 c 0,24,25
 616 1156 616 1156 718.8 1156 c 128,-1,26
 821.6 1156 821.6 1156 940 1119 c 1,27,-1
 1053 1156 l 1,28,-1
 896 0 l 1,29,-1
 884 0 l 1,30,-1
 814 -47 l 2,31,32
 651 -157.025 651 -157.025 651 -242 c 0,33,34
 651 -281 651 -281 676 -301.5 c 128,-1,35
 701 -322 701 -322 739 -322 c 0,36,37
 821.724 -322 821.724 -322 897 -263 c 1,38,-1
 937 -341 l 1,0,1
247 433 m 0,39,40
 247 100 247 100 436 100 c 0,41,42
 548.122 100 548.122 100 660.5 197 c 0,43,44
 745.83 270.653 745.83 270.653 803 372 c 1,45,-1
 823 557 l 1,46,-1
 887 1008 l 1,47,48
 802.059 1046 802.059 1046 714.029 1046 c 128,-1,49
 626 1046 626 1046 563 1019.5 c 128,-1,50
 500 993 500 993 449.5 947.5 c 128,-1,51
 399 902 399 902 361 841.5 c 128,-1,52
 323 781 323 781 297.5 713 c 0,53,54
 247 578.333 247 578.333 247 433 c 0,39,40
EndSplineSet
EndChar

StartChar: ccedilla
Encoding: 231 231 183
Width: 911
Flags: HW
LayerCount: 2
Fore
SplineSet
160 -321 m 1,0,1
 193.429 -339 193.429 -339 248 -339 c 0,2,3
 418 -339 418 -339 418 -146 c 0,4,5
 418 -65.2 418 -65.2 409 -13 c 1,6,7
 253.688 4.92062 253.688 4.92062 170.5 122 c 0,8,9
 89 236.704 89 236.704 89 433 c 0,10,11
 89 696.51 89 696.51 234 912.5 c 0,12,13
 335.306 1063.4 335.306 1063.4 489.5 1124.5 c 0,14,15
 569 1156 569 1156 630 1156 c 128,-1,16
 691 1156 691 1156 720.5 1153.5 c 128,-1,17
 750 1151 750 1151 779 1146 c 0,18,19
 845.808 1134.48 845.808 1134.48 883 1115 c 1,20,-1
 844 987 l 1,21,22
 771.8 1044 771.8 1044 670.4 1044 c 128,-1,23
 569 1044 569 1044 494.5 996 c 128,-1,24
 420 948 420 948 364 866.5 c 0,25,26
 241 687.491 241 687.491 241 448 c 0,27,28
 241 98 241 98 483 98 c 0,29,30
 568 98 568 98 636 139 c 128,-1,31
 704 180 704 180 769 245 c 1,32,-1
 819 163 l 1,33,34
 744.911 67.1206 744.911 67.1206 623.5 16 c 0,35,36
 576 -4 576 -4 520 -12 c 1,37,38
 549 -78.2857 549 -78.2857 549 -170.143 c 128,-1,39
 549 -262 549 -262 528 -316.5 c 128,-1,40
 507 -371 507 -371 471 -404 c 0,41,42
 404.455 -465 404.455 -465 286 -465 c 0,43,44
 178.667 -465 178.667 -465 140 -436 c 1,45,-1
 160 -321 l 1,0,1
EndSplineSet
EndChar

StartChar: eogonek
Encoding: 281 281 188
Width: 1042
Flags: HW
LayerCount: 2
Fore
SplineSet
607 2 m 1,0,1
 539.5 -16 539.5 -16 455.25 -16 c 128,-1,2
 371 -16 371 -16 295.5 24 c 0,3,4
 89.8139 132.973 89.8139 132.973 89.814 425.389 c 0,5,6
 89.814 577.724 89.814 577.724 136.407 714.362 c 128,-1,7
 183 851 183 851 260.5 947.5 c 0,8,9
 427.948 1156 427.948 1156 680 1156 c 0,10,11
 885.396 1156 885.396 1156 942 1004.5 c 0,12,13
 959 959 959 959 959 891 c 128,-1,14
 959 823 959 823 922.5 757.5 c 128,-1,15
 886 692 886 692 826 641.5 c 128,-1,16
 766 591 766 591 689.5 555 c 128,-1,17
 613 519 613 519 534 495 c 0,18,19
 386.602 450.221 386.602 450.221 247 443 c 1,20,21
 246.217 427.87 246.217 427.87 246.217 398.543 c 128,-1,22
 246.217 369.217 246.217 369.217 253.609 316.609 c 128,-1,23
 261 264 261 264 289 214.5 c 0,24,25
 352.636 102 352.636 102 496 102 c 0,26,27
 675.954 102 675.954 102 844 272 c 1,28,-1
 887 186 l 1,29,30
 864.752 153.639 864.752 153.639 824 119 c 1,31,-1
 828 121 l 1,32,33
 813 106 813 106 783.5 79.5 c 0,34,35
 634.465 -55.7781 634.465 -55.7781 591.232 -105.389 c 0,36,37
 509 -199.754 509 -199.754 509 -240.377 c 128,-1,38
 509 -281 509 -281 534 -301.5 c 128,-1,39
 559 -322 559 -322 597 -322 c 0,40,41
 679.724 -322 679.724 -322 755 -263 c 1,42,-1
 795 -341 l 1,43,44
 688.467 -435 688.467 -435 549 -435 c 0,45,46
 456 -435 456 -435 403.5 -382.5 c 0,47,48
 361 -340 361 -340 361 -290.5 c 128,-1,49
 361 -241 361 -241 386.5 -199 c 128,-1,50
 412 -157 412 -157 449.5 -119.5 c 0,51,52
 510.077 -58.9231 510.077 -58.9231 607 2 c 1,0,1
252 550 m 1,53,54
 445.853 556.923 445.853 556.923 615.5 645.5 c 0,55,56
 810 747.053 810 747.053 810 895.027 c 128,-1,57
 810 1043 810 1043 650.109 1043 c 128,-1,58
 490.219 1043 490.219 1043 379.181 888.512 c 128,-1,59
 268.142 734.024 268.142 734.024 252 550 c 1,53,54
EndSplineSet
EndChar

StartChar: lslash
Encoding: 322 322 194
Width: 563
Flags: HW
LayerCount: 2
Fore
SplineSet
238 775 m 1,0,-1
 113 726 l 1,1,-1
 113 831 l 1,2,-1
 254 889 l 1,3,-1
 356 1637 l 1,4,-1
 504 1637 l 1,5,-1
 411 953 l 1,6,-1
 647 1050 l 1,7,-1
 647 937 l 1,8,-1
 395 837 l 1,9,-1
 282 3 l 1,10,-1
 133 3 l 1,11,-1
 238 775 l 1,0,-1
EndSplineSet
EndChar

StartChar: Aogonek
Encoding: 260 260 209
Width: 1265
Flags: HW
LayerCount: 2
Fore
SplineSet
742 -287 m 0,0,1
 742 -140.818 742 -140.818 1002 1 c 1,2,-1
 926 431 l 1,3,-1
 312 431 l 1,4,-1
 111 0 l 1,5,-1
 -50 0 l 1,6,-1
 695 1530 l 1,7,-1
 863 1530 l 1,8,-1
 1152 0 l 1,9,-1
 1124 0 l 1,10,-1
 1053.5 -47 l 2,11,12
 890 -156 890 -156 890 -242 c 0,13,14
 890 -281 890 -281 915 -301.5 c 128,-1,15
 940 -322 940 -322 978 -322 c 0,16,17
 1061 -322 1061 -322 1136 -264 c 1,18,-1
 1176 -342 l 1,19,20
 1061.86 -436 1061.86 -436 930 -436 c 0,21,22
 837 -436 837 -436 784.5 -383.5 c 0,23,24
 742 -341 742 -341 742 -287 c 0,0,1
906 546 m 1,25,-1
 777 1280 l 1,26,-1
 762 1395 l 1,27,-1
 366 546 l 1,28,-1
 906 546 l 1,25,-1
EndSplineSet
EndChar

StartChar: caronvertical
Encoding: 65547 -1 220
Width: 315
Flags: HW
LayerCount: 2
Fore
SplineSet
379 1680 m 1,0,1
 407.571 1624.29 407.571 1624.29 407.571 1490.57 c 0,2,3
 407.571 1299.38 407.571 1299.38 327.5 1125 c 0,4,5
 305 1076 305 1076 279 1038 c 1,6,-1
 201 1068 l 1,7,-1
 197 1088 l 1,8,9
 268.4 1284.35 268.4 1284.35 268.4 1429.64 c 128,-1,10
 268.4 1574.92 268.4 1574.92 239 1620 c 1,11,-1
 246 1645 l 1,12,-1
 379 1680 l 1,0,1
EndSplineSet
EndChar

StartChar: afii61352
Encoding: 8470 8470 237
Width: 2486
Flags: HW
LayerCount: 2
Fore
SplineSet
1560.03 980.601 m 0,0,1
 1560.03 1155.37 1560.03 1155.37 1616.52 1260.19 c 128,-1,2
 1673 1365 1673 1365 1740.5 1422 c 0,3,4
 1870.76 1532 1870.76 1532 2039 1532 c 0,5,6
 2232.19 1532 2232.19 1532 2332 1401 c 0,7,8
 2411.97 1296.04 2411.97 1296.04 2411.97 1125.27 c 0,9,10
 2411.97 917.829 2411.97 917.829 2313.5 773.5 c 0,11,12
 2211.08 623.378 2211.08 623.378 2033.5 582 c 0,13,14
 1982 570 1982 570 1909 570 c 128,-1,15
 1836 570 1836 570 1762 604.5 c 0,16,17
 1560.03 698.66 1560.03 698.66 1560.03 980.601 c 0,0,1
350 1530 m 1,18,-1
 507 1530 l 1,19,-1
 982 437 l 1,20,-1
 1068 202 l 1,21,-1
 1093 469 l 1,22,-1
 1224 1530 l 1,23,-1
 1367 1530 l 1,24,-1
 1173 0 l 1,25,-1
 1027 0 l 1,26,-1
 531 1122 l 1,27,-1
 461 1357 l 1,28,-1
 433 1073 l 1,29,-1
 301 0 l 1,30,-1
 159 0 l 1,31,-1
 350 1530 l 1,18,-1
1816.5 1340.5 m 0,32,33
 1703.14 1227.14 1703.14 1227.14 1703.14 993.276 c 0,34,35
 1703.14 866.223 1703.14 866.223 1743.07 800.111 c 0,36,37
 1815.64 679.965 1815.64 679.965 1943.39 679.965 c 0,38,39
 1945.68 679.965 1945.68 679.965 1977.34 679.982 c 128,-1,40
 2009 680 2009 680 2062.5 701 c 128,-1,41
 2116 722 2116 722 2158 765.5 c 0,42,43
 2268.86 880.316 2268.86 880.316 2268.86 1111.63 c 0,44,45
 2268.86 1238.09 2268.86 1238.09 2228.93 1303.54 c 0,46,47
 2156.04 1423.04 2156.04 1423.04 2028.61 1423.04 c 0,48,49
 2026.32 1423.04 2026.32 1423.04 1996.16 1423.02 c 128,-1,50
 1966 1423 1966 1423 1912.5 1403 c 128,-1,51
 1859 1383 1859 1383 1816.5 1340.5 c 0,32,33
1515 121 m 1,52,-1
 2275 121 l 1,53,-1
 2264 0 l 1,54,-1
 1504 0 l 1,55,-1
 1515 121 l 1,52,-1
EndSplineSet
EndChar

StartChar: oe
Encoding: 339 339 242
Width: 1767
Flags: HW
LayerCount: 2
Fore
SplineSet
877 183 m 1,0,1
 715.176 -16 715.176 -16 489 -16 c 0,2,3
 302.462 -16 302.462 -16 200.5 104.5 c 0,4,5
 97.8 225.873 97.8 225.873 97.8 460.975 c 0,6,7
 97.8 727.68 97.8 727.68 251 934.5 c 0,8,9
 352.988 1072.18 352.988 1072.18 501.5 1128 c 0,10,11
 576 1156 576 1156 660 1156 c 0,12,13
 906.563 1156 906.563 1156 997 949 c 1,14,15
 1163.45 1156 1163.45 1156 1416 1156 c 0,16,17
 1622.4 1156 1622.4 1156 1679 1004.5 c 0,18,19
 1696 959 1696 959 1696 891 c 128,-1,20
 1696 823 1696 823 1659 757.5 c 128,-1,21
 1622 692 1622 692 1562.5 641.5 c 128,-1,22
 1503 591 1503 591 1426.5 555 c 128,-1,23
 1350 519 1350 519 1271 495 c 0,24,25
 1124.11 450.374 1124.11 450.374 984 443 c 1,26,27
 983.217 427.87 983.217 427.87 983.217 398.543 c 128,-1,28
 983.217 369.217 983.217 369.217 990.609 316.609 c 128,-1,29
 998 264 998 264 1025.5 214.5 c 0,30,31
 1088 102 1088 102 1232 102 c 0,32,33
 1411 102 1411 102 1581 272 c 1,34,-1
 1623 186 l 1,35,36
 1573.24 114.91 1573.24 114.91 1470 55.5 c 0,37,38
 1345.75 -16 1345.75 -16 1215 -16 c 0,39,40
 971.977 -16 971.977 -16 877 183 c 1,0,1
988 550 m 1,41,42
 1181.85 556.923 1181.85 556.923 1351.5 645.5 c 0,43,44
 1546 747.053 1546 747.053 1546 895.027 c 128,-1,45
 1546 1043 1546 1043 1385.02 1043 c 128,-1,46
 1224.04 1043 1224.04 1043 1114.02 887.673 c 128,-1,47
 1004 732.346 1004 732.346 988 550 c 1,41,42
251.909 457.037 m 0,48,49
 251.909 96 251.909 96 512 96 c 0,50,51
 672.168 96 672.168 96 774.5 275.5 c 0,52,53
 805 329 805 329 826 389 c 1,54,55
 819.123 560.919 819.123 560.919 877 727 c 1,56,-1
 874 774 l 1,57,58
 845.031 1043 845.031 1043 636 1043 c 0,59,60
 516.409 1043 516.409 1043 421.5 947 c 0,61,62
 294.643 818.685 294.643 818.685 261 581.5 c 0,63,64
 251.909 517.409 251.909 517.409 251.909 457.037 c 0,48,49
EndSplineSet
EndChar

StartChar: daggerdbl
Encoding: 8225 8225 243
Width: 815
Flags: HW
LayerCount: 2
Fore
SplineSet
344 510 m 1,0,-1
 373 649 l 1,1,-1
 131 650 l 1,2,-1
 149 764 l 1,3,-1
 400 764 l 1,4,-1
 408 981 l 1,5,-1
 447 1146 l 1,6,-1
 176 1146 l 1,7,-1
 192 1260 l 1,8,-1
 479 1260 l 1,9,-1
 488 1469 l 1,10,-1
 514 1646 l 1,11,-1
 658 1646 l 1,12,-1
 630 1469 l 1,13,-1
 575 1260 l 1,14,-1
 869 1260 l 1,15,-1
 852 1146 l 1,16,-1
 575 1146 l 1,17,-1
 563 981 l 1,18,-1
 509 764 l 1,19,-1
 757 764 l 1,20,-1
 741 650 l 1,21,-1
 501 649 l 1,22,-1
 488 510 l 1,23,-1
 380 -51 l 1,24,-1
 292 -51 l 1,25,-1
 344 510 l 1,0,-1
EndSplineSet
EndChar

StartChar: Euro
Encoding: 8364 8364 244
Width: 1381
Flags: HW
LayerCount: 2
Fore
SplineSet
727 97 m 0,0,1
 934.826 97 934.826 97 1099 215 c 1,2,-1
 1142 111 l 1,3,4
 1063.85 23.0807 1063.85 23.0807 849 -6.5 c 0,5,6
 780 -16 780 -16 703.5 -16 c 128,-1,7
 627 -16 627 -16 563.5 6.5 c 128,-1,8
 500 29 500 29 450 69.5 c 128,-1,9
 400 110 400 110 362.5 164.5 c 128,-1,10
 325 219 325 219 299 283.5 c 0,11,12
 247.461 411.355 247.461 411.355 237 562 c 1,13,-1
 26 562 l 1,14,-1
 42 670 l 1,15,-1
 234 670 l 1,16,17
 236 802 236 802 261 917 c 1,18,-1
 75 917 l 1,19,-1
 91 1025 l 1,20,-1
 289 1025 l 1,21,22
 367.341 1268.06 367.341 1268.06 540.5 1407 c 128,-1,23
 713.731 1546 713.731 1546 935 1546 c 0,24,25
 1072.53 1546 1072.53 1546 1186.5 1510.5 c 1,26,-1
 1244 1492 l 1,27,-1
 1195 1371 l 1,28,29
 1141.4 1409.28 1141.4 1409.28 1003.5 1426 c 0,30,31
 954 1432 954 1432 882 1432 c 128,-1,32
 810 1432 810 1432 739.5 1403.5 c 128,-1,33
 669 1375 669 1375 613 1321.5 c 0,34,35
 502.479 1215.91 502.479 1215.91 445 1025 c 1,36,-1
 1028 1025 l 1,37,-1
 1013 917 l 1,38,-1
 419 917 l 1,39,40
 398.154 807.085 398.154 807.085 394 670 c 1,41,-1
 979 670 l 1,42,-1
 964 562 l 1,43,-1
 395 562 l 1,44,45
 411.399 230.746 411.399 230.746 584 131.5 c 0,46,47
 644 97 644 97 727 97 c 0,0,1
EndSplineSet
EndChar

StartChar: infinity
Encoding: 8734 8734 245
Width: 1804
Flags: HW
LayerCount: 2
Fore
SplineSet
613.5 254.5 m 0,0,1
 552 231 552 231 514.985 230.438 c 128,-1,2
 477.969 229.877 477.969 229.877 472.022 229.877 c 0,3,4
 294.271 229.877 294.271 229.877 181.5 340.5 c 0,5,6
 74 445.952 74 445.952 74 600 c 0,7,8
 74 790.053 74 790.053 198 901 c 0,9,10
 313.118 1004 313.118 1004 494 1004 c 0,11,12
 690.2 1004 690.2 1004 831 828 c 0,13,14
 871 778 871 778 905 726 c 1,15,16
 1026.11 909.494 1026.11 909.494 1196 978 c 0,17,18
 1260.56 1004.03 1260.56 1004.03 1346.52 1004.03 c 128,-1,19
 1432.48 1004.03 1432.48 1004.03 1508.24 974.516 c 128,-1,20
 1584 945 1584 945 1633.5 893.5 c 0,21,22
 1731 792.061 1731 792.061 1731 638 c 0,23,24
 1731 451.761 1731 451.761 1613.5 340.5 c 0,25,26
 1495.75 229 1495.75 229 1299 229 c 0,27,28
 1105.42 229 1105.42 229 973 401.5 c 0,29,30
 935 451 935 451 902 502 c 1,31,32
 780.857 318.449 780.857 318.449 613.5 254.5 c 0,0,1
982 622 m 1,33,34
 1148.2 345 1148.2 345 1325 345 c 0,35,36
 1443.49 345 1443.49 345 1516 434.5 c 0,37,38
 1580 513.5 1580 513.5 1580 624 c 0,39,40
 1580 797.039 1580 797.039 1430.5 858 c 0,41,42
 1379 879 1379 879 1317.5 879 c 128,-1,43
 1256 879 1256 879 1208 855 c 128,-1,44
 1160 831 1160 831 1118.5 793.5 c 0,45,46
 1046.19 728.159 1046.19 728.159 982 622 c 1,33,34
375 368.5 m 0,47,48
 427 346 427 346 486.5 346 c 128,-1,49
 546 346 546 346 590.5 365 c 128,-1,50
 635 384 635 384 676 418.5 c 0,51,52
 759.899 489.098 759.899 489.098 827 605 c 1,53,-1
 768 697 l 1,54,55
 646.667 879 646.667 879 508 879 c 0,56,57
 377.2 879 377.2 879 298 796.5 c 0,58,59
 225 720.458 225 720.458 225 609 c 0,60,61
 225 433.404 225 433.404 375 368.5 c 0,47,48
EndSplineSet
EndChar

StartChar: lessequal
Encoding: 8804 8804 246
Width: 1368
Flags: HW
LayerCount: 2
Fore
SplineSet
205 759 m 1,0,-1
 1204 1204 l 1,1,-1
 1188 1063 l 1,2,-1
 418 727 l 1,3,-1
 1109 385 l 1,4,-1
 1093 246 l 1,5,-1
 199 700 l 1,6,-1
 205 759 l 1,0,-1
153 113 m 1,7,-1
 1101 113 l 1,8,-1
 1087 -1 l 1,9,-1
 139 -1 l 1,10,-1
 153 113 l 1,7,-1
EndSplineSet
EndChar

StartChar: greaterequal
Encoding: 8805 8805 247
Width: 1368
Flags: HW
LayerCount: 2
Fore
SplineSet
197 246 m 1,0,-1
 216 395 l 1,1,-1
 993 734 l 1,2,-1
 305 1067 l 1,3,-1
 324 1204 l 1,4,-1
 1211 758 l 1,5,-1
 1203 699 l 1,6,-1
 197 246 l 1,0,-1
141 -1 m 1,7,-1
 156 113 l 1,8,-1
 1104 113 l 1,9,-1
 1089 -1 l 1,10,-1
 141 -1 l 1,7,-1
EndSplineSet
EndChar

StartChar: partialdiff
Encoding: 8706 8706 248
Width: 1367
Flags: HW
LayerCount: 2
Fore
SplineSet
745 1050 m 0,0,1
 871.026 1050 871.026 1050 990 977.5 c 1,2,-1
 1048 941 l 1,3,4
 1041.3 1117.37 1041.3 1117.37 1006.15 1213.69 c 128,-1,5
 971 1310 971 1310 933 1368 c 128,-1,6
 895 1426 895 1426 840.5 1468.5 c 0,7,8
 724.447 1559 724.447 1559 549 1559 c 0,9,10
 388.2 1559 388.2 1559 273 1487 c 1,11,-1
 217 1582 l 1,12,13
 316.457 1656.59 316.457 1656.59 489.5 1678 c 0,14,15
 538 1684 538 1684 620 1684 c 128,-1,16
 702 1684 702 1684 797 1649.5 c 128,-1,17
 892 1615 892 1615 962.5 1555.5 c 128,-1,18
 1033 1496 1033 1496 1081.5 1415.5 c 128,-1,19
 1130 1335 1130 1335 1159.5 1243.5 c 0,20,21
 1215 1071.36 1215 1071.36 1215 861 c 0,22,23
 1215 329.922 1215 329.922 985 112.5 c 0,24,25
 849.066 -16 849.066 -16 638 -16 c 0,26,27
 438.444 -16 438.444 -16 304.354 119.179 c 128,-1,28
 170.265 254.359 170.265 254.359 170.265 495.583 c 128,-1,29
 170.265 736.808 170.265 736.808 329.912 893.404 c 128,-1,30
 489.558 1050 489.558 1050 745 1050 c 0,0,1
447 813.5 m 128,-1,32
 391 755 391 755 360.778 674.722 c 128,-1,33
 330.556 594.444 330.556 594.444 330.556 502.341 c 128,-1,34
 330.556 410.237 330.556 410.237 351.278 336.618 c 128,-1,35
 372 263 372 263 410 213.5 c 0,36,37
 490.99 108 490.99 108 652 108 c 0,38,39
 929.897 108 929.897 108 1016.5 494 c 0,40,41
 1045.61 623.739 1045.61 623.739 1053 811 c 1,42,43
 979.901 868.435 979.901 868.435 930.45 889.718 c 0,44,45
 829.882 933 829.882 933 740.441 933 c 128,-1,46
 651 933 651 933 577 902.5 c 128,-1,31
 503 872 503 872 447 813.5 c 128,-1,32
EndSplineSet
EndChar

StartChar: summation
Encoding: 8721 8721 249
Width: 1529
Flags: HW
LayerCount: 2
Fore
SplineSet
788 678 m 1,0,-1
 228 1459 l 1,1,-1
 251 1522 l 1,2,-1
 1287 1522 l 1,3,-1
 1287 1396 l 1,4,-1
 447 1396 l 1,5,-1
 964 682 l 1,6,-1
 459 -51 l 1,7,-1
 1302 -51 l 1,8,-1
 1302 -170 l 1,9,-1
 247 -170 l 1,10,-1
 227 -128 l 1,11,-1
 788 678 l 1,0,-1
EndSplineSet
EndChar

StartChar: product
Encoding: 8719 8719 250
Width: 1609
Flags: HW
LayerCount: 2
Fore
SplineSet
335 1396 m 1,0,-1
 139 1396 l 1,1,-1
 139 1522 l 1,2,-1
 1508 1522 l 1,3,-1
 1508 1396 l 1,4,-1
 1312 1396 l 1,5,-1
 1312 -170 l 1,6,-1
 1142 -170 l 1,7,-1
 1142 1396 l 1,8,-1
 505 1396 l 1,9,-1
 505 -170 l 1,10,-1
 335 -170 l 1,11,-1
 335 1396 l 1,0,-1
EndSplineSet
EndChar

StartChar: pi
Encoding: 960 960 251
Width: 1556
Flags: HW
LayerCount: 2
Fore
SplineSet
121 70 m 1,0,1
 180.158 81.8316 180.158 81.8316 232.079 119.916 c 128,-1,2
 284 158 284 158 308.5 192.5 c 128,-1,3
 333 227 333 227 348 269.5 c 0,4,5
 370.357 332.844 370.357 332.844 389 475 c 1,6,-1
 481 1002 l 1,7,-1
 411 1002 l 2,8,9
 322 1002 322 1002 267 966.5 c 128,-1,10
 212 931 212 931 187 878 c 1,11,-1
 100 920 l 1,12,13
 126 1037 126 1037 207 1089.5 c 128,-1,14
 288 1142 288 1142 435 1142 c 2,15,-1
 1165 1142 l 2,16,17
 1233 1142 1233 1142 1268 1157.5 c 128,-1,18
 1303 1173 1303 1173 1317 1215 c 1,19,-1
 1425 1215 l 1,20,21
 1410.87 1045.44 1410.87 1045.44 1269.5 1012 c 0,22,23
 1223 1001 1223 1001 1162 1001 c 2,24,-1
 1116 1001 l 1,25,-1
 1024.5 299 l 2,26,27
 1017 244 1017 244 1014 217.5 c 128,-1,28
 1011 191 1011 191 1016 170.5 c 128,-1,29
 1021 150 1021 150 1032 137.5 c 0,30,31
 1051.8 115 1051.8 115 1084.4 115 c 128,-1,32
 1117 115 1117 115 1145 128 c 128,-1,33
 1173 141 1173 141 1200 164.5 c 0,34,35
 1261.42 217.959 1261.42 217.959 1288 292 c 1,36,-1
 1372 256 l 1,37,38
 1352.36 151.229 1352.36 151.229 1265 72 c 0,39,40
 1167.97 -16 1167.97 -16 1054.49 -16 c 128,-1,41
 941 -16 941 -16 899.484 37.752 c 128,-1,42
 857.969 91.5039 857.969 91.5039 857.969 165.765 c 0,43,44
 857.969 190.78 857.969 190.78 861.984 217.89 c 2,45,-1
 961 893.5 l 2,46,47
 971 960 971 960 978 1001 c 1,48,-1
 620 1002 l 1,49,-1
 534 431 l 1,50,51
 519.321 271.364 519.321 271.364 487.66 204.182 c 128,-1,52
 456 137 456 137 429 105.5 c 128,-1,53
 402 74 402 74 371 47.5 c 0,54,55
 312.621 -2.40421 312.621 -2.40421 222 -23 c 1,56,-1
 121 70 l 1,0,1
EndSplineSet
EndChar

StartChar: integral
Encoding: 8747 8747 252
Width: 1042
Flags: HW
LayerCount: 2
Fore
SplineSet
877 1470 m 1,0,1
 819.927 1560 819.927 1560 665 1560 c 0,2,3
 406 1560 406 1560 406 1206 c 0,4,5
 406 1038.55 406 1038.55 515 802 c 0,6,7
 562 700 562 700 616.5 597.5 c 128,-1,8
 671 495 671 495 718 391.5 c 0,9,10
 827 151.468 827 151.468 827 -28 c 0,11,12
 827 -377.4 827 -377.4 617 -481 c 0,13,14
 542 -518 542 -518 464 -518 c 128,-1,15
 386 -518 386 -518 339 -509 c 128,-1,16
 292 -500 292 -500 249.5 -484 c 0,17,18
 160.573 -450.522 160.573 -450.522 111 -395 c 1,19,-1
 175 -292 l 1,20,21
 231.127 -353.23 231.127 -353.23 327 -381.5 c 0,22,23
 366 -393 366 -393 420.5 -393 c 128,-1,24
 475 -393 475 -393 523 -375 c 128,-1,25
 571 -357 571 -357 605 -315 c 0,26,27
 675 -228.529 675 -228.529 675 -29 c 0,28,29
 675 139.447 675 139.447 566 376 c 0,30,31
 519 478 519 478 464.5 581 c 128,-1,32
 410 684 410 684 363 788 c 0,33,34
 254 1029.19 254 1029.19 254 1206 c 0,35,36
 254 1542.38 254 1542.38 485 1649 c 0,37,38
 563 1685 563 1685 665.5 1685 c 0,39,40
 881.176 1685 881.176 1685 964 1557 c 1,41,-1
 877 1470 l 1,0,1
EndSplineSet
EndChar

StartChar: Omega
Encoding: 8486 8486 253
Width: 1659
Flags: HW
LayerCount: 2
Fore
SplineSet
86 116 m 1,0,-1
 480 116 l 1,1,2
 359.474 201.464 359.474 201.464 261 382 c 0,3,4
 152 581.833 152 581.833 152 773 c 128,-1,5
 152 964 152 964 208.5 1109 c 128,-1,6
 265 1254 265 1254 364 1351 c 0,7,8
 563.021 1546 563.021 1546 891 1546 c 0,9,10
 1164.6 1546 1164.6 1546 1344.5 1376.5 c 0,11,12
 1531 1200.78 1531 1200.78 1531 925 c 0,13,14
 1531 727.077 1531 727.077 1405 488 c 128,-1,15
 1279.06 249.044 1279.06 249.044 1096 123 c 1,16,-1
 1511 123 l 1,17,-1
 1501 0 l 1,18,-1
 923 0 l 1,19,-1
 907 107 l 1,20,21
 1093.97 210.153 1093.97 210.153 1231 429 c 0,22,23
 1380 666.955 1380 666.955 1380 911 c 0,24,25
 1380 1161.92 1380 1161.92 1221 1303 c 0,26,27
 1081.25 1427 1081.25 1427 877 1427 c 0,28,29
 623.473 1427 623.473 1427 467 1261.5 c 0,30,31
 300 1084.87 300 1084.87 300 769 c 0,32,33
 300 557.029 300 557.029 417 354 c 0,34,35
 480.91 243.097 480.91 243.097 565.5 164 c 0,36,37
 604 128 604 128 640 107 c 1,38,-1
 609 0 l 1,39,-1
 72 0 l 1,40,-1
 86 116 l 1,0,-1
EndSplineSet
EndChar

StartChar: radical
Encoding: 8730 8730 254
Width: 1572
Flags: HW
LayerCount: 2
Fore
SplineSet
86 602 m 1,0,-1
 269 714 l 1,1,-1
 410 714 l 1,2,-1
 766 -157 l 1,3,-1
 1415 1870 l 1,4,-1
 1576 1870 l 1,5,-1
 841 -354 l 1,6,-1
 706 -354 l 1,7,-1
 296 571 l 1,8,-1
 154 490 l 1,9,-1
 86 602 l 1,0,-1
EndSplineSet
EndChar

StartChar: Delta
Encoding: 8710 8710 256
Width: 1407
Flags: HW
LayerCount: 2
Fore
SplineSet
-20 22 m 1,0,-1
 733 1508 l 1,1,-1
 763 1508 l 1,2,-1
 1319 26 l 1,3,-1
 1302 0 l 1,4,-1
 -8 0 l 1,5,-1
 -20 22 l 1,0,-1
1108 130 m 1,6,-1
 731 1184 l 1,7,-1
 218 130 l 1,8,-1
 1108 130 l 1,6,-1
EndSplineSet
EndChar

StartChar: v
Encoding: 118 118 257
Width: 1007
Flags: HW
LayerCount: 2
Fore
SplineSet
977 1140 m 1,0,1
 980.6 1106.4 980.6 1106.4 980.6 1072 c 128,-1,2
 980.6 1037.6 980.6 1037.6 975.8 966.8 c 128,-1,3
 971 896 971 896 936.5 787.5 c 128,-1,4
 902 679 902 679 850 576.5 c 0,5,6
 754.287 387.836 754.287 387.836 602 206 c 1,7,-1
 421 -4 l 1,8,-1
 286 -14 l 1,9,-1
 228 354 l 1,10,-1
 114 1140 l 1,11,-1
 279 1140 l 1,12,-1
 361 354 l 1,13,-1
 383 116 l 1,14,-1
 550 325 l 1,15,-1
 639 458.5 l 1,16,17
 724.855 593.564 724.855 593.564 759.927 698.782 c 128,-1,18
 795 804 795 804 804.5 861.5 c 128,-1,19
 814 919 814 919 819.5 955.5 c 128,-1,20
 825 992 825 992 829 1028 c 0,21,22
 838.515 1113.64 838.515 1113.64 835 1140 c 1,23,-1
 977 1140 l 1,0,1
EndSplineSet
EndChar

StartChar: ellipsis
Encoding: 8230 8230 258
Width: 1509
Flags: HW
LayerCount: 2
Fore
SplineSet
1234 203 m 0,0,1
 1324.36 203 1324.36 203 1324.36 120.532 c 0,2,3
 1324.36 51.7145 1324.36 51.7145 1282.68 17.3572 c 128,-1,4
 1241 -17 1241 -17 1197 -17 c 128,-1,5
 1153 -17 1153 -17 1131.71 5.62097 c 128,-1,6
 1110.42 28.2419 1110.42 28.2419 1110.42 50.8629 c 0,7,8
 1110.42 128.975 1110.42 128.975 1149.71 165.987 c 128,-1,9
 1189 203 1189 203 1234 203 c 0,0,1
731 203 m 0,10,11
 822.359 203 822.359 203 822.359 120.532 c 0,12,13
 822.359 52.7364 822.359 52.7364 780.179 17.8682 c 128,-1,14
 738 -17 738 -17 694 -17 c 128,-1,15
 650 -17 650 -17 629.197 5.57377 c 128,-1,16
 608.393 28.1475 608.393 28.1475 608.393 50.7213 c 0,17,18
 608.393 130.008 608.393 130.008 647.697 166.504 c 128,-1,19
 687 203 687 203 731 203 c 0,10,11
228 203 m 0,20,21
 319.358 203 319.358 203 319.358 120.532 c 0,22,23
 319.358 54.1644 319.358 54.1644 272.5 14 c 0,24,25
 236.333 -17 236.333 -17 192.167 -17 c 128,-1,26
 148 -17 148 -17 126.71 5.62097 c 128,-1,27
 105.419 28.2419 105.419 28.2419 105.419 50.8629 c 0,28,29
 105.419 130.032 105.419 130.032 144.71 166.516 c 128,-1,30
 184 203 184 203 228 203 c 0,20,21
EndSplineSet
EndChar

StartChar: perthousand
Encoding: 8240 8240 259
Width: 2701
Flags: HW
LayerCount: 2
Fore
SplineSet
1827 380.5 m 0,0,1
 1827 453 1827 453 1857.5 529.5 c 128,-1,2
 1888 606 1888 606 1943 666 c 0,3,4
 2064.92 799 2064.92 799 2238 799 c 0,5,6
 2449.18 799 2449.18 799 2501 622.5 c 0,7,8
 2517 568 2517 568 2517 495 c 128,-1,9
 2517 422 2517 422 2488.5 343 c 128,-1,10
 2460 264 2460 264 2407 202 c 0,11,12
 2289.03 64 2289.03 64 2108 64 c 0,13,14
 1973.73 64 1973.73 64 1898.5 153 c 0,15,16
 1827 237.592 1827 237.592 1827 380.5 c 0,0,1
1950 377.5 m 0,17,18
 1950 327 1950 327 1962 287.5 c 128,-1,19
 1974 248 1974 248 1997 219 c 0,20,21
 2045.38 158 2045.38 158 2119.69 158 c 128,-1,22
 2194 158 2194 158 2242 191.5 c 128,-1,23
 2290 225 2290 225 2322 276 c 0,24,25
 2387 379.594 2387 379.594 2387 485.797 c 0,26,27
 2387 705 2387 705 2217 705 c 0,28,29
 2097.71 705 2097.71 705 2020 593 c 0,30,31
 1950 492.118 1950 492.118 1950 377.5 c 0,17,18
1361 1530 m 1,32,-1
 1484 1530 l 1,33,-1
 537 0 l 1,34,-1
 414 0 l 1,35,-1
 1361 1530 l 1,32,-1
652 783 m 128,-1,37
 576 745 576 745 494.5 745 c 128,-1,38
 413 745 413 745 360.5 768.5 c 128,-1,39
 308 792 308 792 272.5 834 c 0,40,41
 201 918.592 201 918.592 201 1055 c 0,42,43
 201 1219.84 201 1219.84 316.5 1347 c 0,44,45
 437.308 1480 437.308 1480 611 1480 c 0,46,47
 823.183 1480 823.183 1480 875 1303.5 c 0,48,49
 891 1249 891 1249 891 1176 c 128,-1,50
 891 1103 891 1103 862.5 1024 c 128,-1,51
 834 945 834 945 781 883 c 128,-1,36
 728 821 728 821 652 783 c 128,-1,37
427.5 855 m 0,52,53
 461 839 461 839 514.5 839 c 128,-1,54
 568 839 568 839 616 872.5 c 128,-1,55
 664 906 664 906 696 957 c 0,56,57
 761 1060.59 761 1060.59 761 1166.8 c 0,58,59
 761 1386 761 1386 590 1386 c 0,60,61
 471.714 1386 471.714 1386 394 1274 c 0,62,63
 324 1173.12 324 1173.12 324 1056 c 0,64,65
 324 904.433 324 904.433 427.5 855 c 0,52,53
1037 380.5 m 0,66,67
 1037 453 1037 453 1067.5 529.5 c 128,-1,68
 1098 606 1098 606 1152.5 666 c 0,69,70
 1273.31 799 1273.31 799 1447 799 c 0,71,72
 1659.18 799 1659.18 799 1711 622.5 c 0,73,74
 1727 568 1727 568 1727 495 c 128,-1,75
 1727 422 1727 422 1698.5 343 c 128,-1,76
 1670 264 1670 264 1617 202 c 0,77,78
 1499.03 64 1499.03 64 1318 64 c 0,79,80
 1183.73 64 1183.73 64 1108.5 153 c 0,81,82
 1037 237.592 1037 237.592 1037 380.5 c 0,66,67
1160 377.5 m 0,83,84
 1160 327 1160 327 1172 287.5 c 128,-1,85
 1184 248 1184 248 1207 219 c 0,86,87
 1255.38 158 1255.38 158 1329.69 158 c 128,-1,88
 1404 158 1404 158 1452 191.5 c 128,-1,89
 1500 225 1500 225 1532 276 c 0,90,91
 1597 379.594 1597 379.594 1597 485.797 c 0,92,93
 1597 705 1597 705 1426 705 c 0,94,95
 1307.71 705 1307.71 705 1230 593 c 0,96,97
 1160 492.118 1160 492.118 1160 377.5 c 0,83,84
EndSplineSet
Ligature2: "'frac' Diagonal Fractions in Latin lookup 10 subtable" zero slash zero zero
EndChar

StartChar: florin
Encoding: 402 402 260
Width: 1059
Flags: HW
LayerCount: 2
Fore
SplineSet
1009 1532 m 1,0,1
 955 1559 955 1559 884.5 1559 c 128,-1,2
 814 1559 814 1559 774.5 1546 c 128,-1,3
 735 1533 735 1533 704.5 1500.5 c 0,4,5
 641.81 1433.7 641.81 1433.7 621 1271 c 1,6,-1
 605 1152 l 1,7,-1
 902 1152 l 1,8,-1
 890 1033 l 1,9,-1
 589 1033 l 1,10,-1
 407 -356 l 1,11,-1
 257 -356 l 1,12,-1
 441 1033 l 1,13,-1
 196 1033 l 1,14,-1
 207 1112 l 1,15,-1
 457 1152 l 1,16,-1
 467 1228 l 1,17,18
 493.251 1443.64 493.251 1443.64 616 1567.5 c 0,19,20
 725.505 1678 725.505 1678 856.452 1678 c 128,-1,21
 987.4 1678 987.4 1678 1018 1661 c 1,22,-1
 1009 1532 l 1,0,1
EndSplineSet
EndChar

StartChar: kgreenlandic
Encoding: 312 312 261
Width: 1023
Flags: HW
LayerCount: 2
Fore
SplineSet
375 626 m 1,0,1
 789.419 856.233 789.419 856.233 865 1151 c 1,2,-1
 1007 1151 l 1,3,4
 1002.07 1072.14 1002.07 1072.14 968.536 1001.57 c 128,-1,5
 935 931 935 931 883 868.5 c 128,-1,6
 831 806 831 806 771.5 754.5 c 0,7,8
 664.977 662.299 664.977 662.299 547 602 c 1,9,-1
 967 0 l 1,10,-1
 794 0 l 1,11,-1
 375 625 l 1,12,-1
 376 625 l 1,13,-1
 375 626 l 1,0,1
237 1151 m 1,14,-1
 384 1151 l 1,15,-1
 231 0 l 1,16,-1
 83 0 l 1,17,-1
 237 1151 l 1,14,-1
EndSplineSet
EndChar

StartChar: scedilla
Encoding: 351 351 263
Width: 872
Flags: HW
LayerCount: 2
Fore
SplineSet
160 -339 m 0,0,1
 330 -339 330 -339 330 -146 c 0,2,3
 330 -62.4 330 -62.4 322 -16 c 1,4,5
 180.299 -12.9195 180.299 -12.9195 85.5 25 c 0,6,7
 58 36 58 36 45 48 c 1,8,-1
 73 178 l 1,9,10
 190.818 97 190.818 97 347 97 c 256,11,12
 510.091 97 510.091 97 563 194 c 0,13,14
 581 227 581 227 581 270.5 c 128,-1,15
 581 314 581 314 564 347.5 c 128,-1,16
 547 381 547 381 520 410 c 128,-1,17
 493 439 493 439 458.5 465.5 c 2,18,-1
 389 520 l 2,19,20
 284.162 601.25 284.162 601.25 247.581 648.625 c 0,21,22
 173 745.213 173 745.213 173 836.607 c 128,-1,23
 173 928 173 928 203.5 984.5 c 128,-1,24
 234 1041 234 1041 285.5 1079 c 0,25,26
 389.855 1156 389.855 1156 550 1156 c 0,27,28
 716 1156 716 1156 804 1112 c 1,29,-1
 775 972 l 1,30,31
 742.188 1011.38 742.188 1011.38 638.5 1035 c 0,32,33
 599 1044 599 1044 547.5 1044 c 128,-1,34
 496 1044 496 1044 452.5 1032 c 128,-1,35
 409 1020 409 1020 379 997.5 c 0,36,37
 316 950.25 316 950.25 316 873 c 0,38,39
 316 765.016 316 765.016 428 676.5 c 1,40,-1
 567.5 568.5 l 1,41,42
 729 442.024 729 442.024 729 289 c 0,43,44
 729 163.772 729 163.772 645.5 84.5 c 0,45,46
 566.472 9.47346 566.472 9.47346 431 -9 c 1,47,48
 461 -77.5714 461 -77.5714 461 -169.786 c 128,-1,49
 461 -262 461 -262 440 -316.5 c 128,-1,50
 419 -371 419 -371 383 -404 c 0,51,52
 316.455 -465 316.455 -465 198 -465 c 0,53,54
 90.6667 -465 90.6667 -465 52 -436 c 1,55,-1
 72 -321 l 1,56,57
 105.429 -339 105.429 -339 160 -339 c 0,0,1
EndSplineSet
Substitution2: "'locl' Localized Forms lookup 7 subtable" uni0219
Substitution2: "'locl' Localized Forms lookup 6 subtable" uni0219
Substitution2: "'aalt' Access All Alternates in Latin lookup 0 subtable" uni0219
EndChar

StartChar: trademark
Encoding: 8482 8482 269
Width: 2111
Flags: HW
LayerCount: 2
Fore
SplineSet
1069 1530 m 1,0,-1
 1277 1530 l 1,1,-1
 1435 911 l 1,2,-1
 1727 1530 l 1,3,-1
 1945 1530 l 1,4,-1
 1913 754 l 1,5,-1
 1780 754 l 1,6,-1
 1807 1238 l 1,7,-1
 1821 1458 l 1,8,-1
 1464 746 l 1,9,-1
 1366 746 l 1,10,-1
 1174 1460 l 1,11,-1
 1041 754 l 1,12,-1
 917 754 l 1,13,-1
 1069 1530 l 1,0,-1
444 1419 m 1,14,-1
 178 1419 l 1,15,-1
 195 1530 l 1,16,-1
 861 1530 l 1,17,-1
 848 1419 l 1,18,-1
 575 1419 l 1,19,-1
 485 754 l 1,20,-1
 354 753 l 1,21,-1
 444 1419 l 1,14,-1
EndSplineSet
EndChar

StartChar: estimated
Encoding: 8494 8494 270
Width: 1372
Flags: HW
LayerCount: 2
Fore
SplineSet
1278 832 m 1,0,1
 1278 683.25 1278 683.25 1267 631 c 1,2,-1
 340 631 l 1,3,-1
 340 266 l 1,4,5
 464.235 74 464.235 74 753 74 c 0,6,7
 900.788 74 900.788 74 1060.5 137.5 c 0,8,9
 1102 154 1102 154 1128 169 c 1,10,-1
 1158 82 l 1,11,12
 1062.72 13.515 1062.72 13.515 848.5 -9.5 c 0,13,14
 788 -16 788 -16 736 -16 c 0,15,16
 443.503 -16 443.503 -16 277.5 166.5 c 0,17,18
 113 347.348 113 347.348 113 671 c 0,19,20
 113 975.42 113 975.42 270.5 1158 c 0,21,22
 441.394 1356.11 441.394 1356.11 751.486 1356.11 c 0,23,24
 965.812 1356.11 965.812 1356.11 1113 1219 c 0,25,26
 1270.18 1072.59 1270.18 1072.59 1278 832 c 1,0,1
730 1266 m 0,27,28
 466.25 1266 466.25 1266 340 1064 c 1,29,-1
 340 737 l 1,30,-1
 1066 737 l 1,31,-1
 1066 1117 l 1,32,33
 962.151 1266 962.151 1266 730 1266 c 0,27,28
EndSplineSet
EndChar

StartChar: notequal
Encoding: 8800 8800 271
Width: 1063
Flags: HW
LayerCount: 2
Fore
SplineSet
340 358 m 1,0,-1
 99 358 l 1,1,-1
 112 478 l 1,2,-1
 395 478 l 1,3,-1
 575 867 l 1,4,-1
 169 867 l 1,5,-1
 182 987 l 1,6,-1
 630 987 l 1,7,-1
 786 1324 l 1,8,-1
 907 1324 l 1,9,-1
 751 987 l 1,10,-1
 997 987 l 1,11,-1
 983 867 l 1,12,-1
 696 867 l 1,13,-1
 516 478 l 1,14,-1
 927 478 l 1,15,-1
 913 358 l 1,16,-1
 461 358 l 1,17,-1
 296 0 l 1,18,-1
 175 0 l 1,19,-1
 340 358 l 1,0,-1
EndSplineSet
EndChar

StartChar: minute
Encoding: 8242 8242 272
Width: 623
Flags: HW
LayerCount: 2
Fore
SplineSet
435 1782 m 1,0,-1
 591 1782 l 1,1,-1
 407 1190 l 1,2,-1
 301 1190 l 1,3,-1
 435 1782 l 1,0,-1
EndSplineSet
EndChar

StartChar: quotereversed
Encoding: 8219 8219 274
Width: 651
Flags: HW
LayerCount: 2
Fore
SplineSet
384 892 m 1,0,1
 213.478 1037.57 213.478 1037.57 188 1260.5 c 0,2,3
 185.222 1284.81 185.222 1284.81 185.222 1330.85 c 128,-1,4
 185.222 1376.89 185.222 1376.89 201.111 1439.94 c 128,-1,5
 217 1503 217 1503 244 1549 c 128,-1,6
 271 1595 271 1595 304.5 1630.5 c 0,7,8
 374.288 1704.45 374.288 1704.45 446 1715 c 1,9,-1
 512 1607 l 1,10,-1
 508 1575 l 1,11,12
 422.274 1540.71 422.274 1540.71 375.5 1438.5 c 0,13,14
 342.156 1365.64 342.156 1365.64 342.156 1275.77 c 0,15,16
 342.156 1141 342.156 1141 413.5 1036 c 0,17,18
 440 997 440 997 465 975 c 1,19,-1
 462 959 l 1,20,-1
 384 892 l 1,0,1
EndSplineSet
EndChar

StartChar: OE
Encoding: 338 338 276
Width: 2125
Flags: HW
LayerCount: 2
Fore
SplineSet
593 -17 m 0,0,1
 490 -17 490 -17 398 31 c 128,-1,2
 306 79 306 79 243.5 163.5 c 0,3,4
 111.66 341.747 111.66 341.747 111.66 642.953 c 0,5,6
 111.66 883.375 111.66 883.375 200.5 1091 c 0,7,8
 290.201 1300.64 290.201 1300.64 452 1422.5 c 0,9,10
 617.303 1547 617.303 1547 818 1547 c 0,11,12
 1071.23 1547 1071.23 1547 1196.5 1329 c 0,13,14
 1235 1262 1235 1262 1258 1181 c 1,15,-1
 1302 1530 l 1,16,-1
 2058 1530 l 1,17,-1
 2052 1410 l 1,18,-1
 1438 1417 l 1,19,-1
 1365 838 l 1,20,-1
 1839 844 l 1,21,-1
 1830 717 l 1,22,-1
 1351 728 l 1,23,-1
 1273 114 l 1,24,-1
 2010 127 l 1,25,-1
 1999 0 l 1,26,-1
 1109 0 l 1,27,-1
 1148 309 l 1,28,29
 952.4 -17 952.4 -17 593 -17 c 0,0,1
1154.22 864.941 m 0,30,31
 1154.22 1427 1154.22 1427 794 1427 c 0,32,33
 678 1427 678 1427 580.5 1363.5 c 0,34,35
 383.453 1235.17 383.453 1235.17 305 942 c 0,36,37
 268.9 807.1 268.9 807.1 268.9 658.662 c 0,38,39
 268.9 373.93 268.9 373.93 363.95 236.465 c 128,-1,40
 459 99 459 99 634 99 c 0,41,42
 785.875 99 785.875 99 908.5 208 c 0,43,44
 1088.14 367.682 1088.14 367.682 1139.5 680.5 c 0,45,46
 1154.22 770.135 1154.22 770.135 1154.22 864.941 c 0,30,31
EndSplineSet
EndChar

StartChar: gcommaaccent
Encoding: 291 291 289
Width: 1149
Flags: HW
LayerCount: 2
Fore
SplineSet
697 1253 m 1,0,1
 603.317 1273.49 603.317 1273.49 572 1400.5 c 0,2,3
 563.9 1433.35 563.9 1433.35 563.9 1451.38 c 128,-1,4
 563.9 1469.4 563.9 1469.4 564.95 1501.2 c 128,-1,5
 566 1533 566 1533 585.5 1583.5 c 128,-1,6
 605 1634 605 1634 634 1671.5 c 0,7,8
 691.361 1745.67 691.361 1745.67 759 1762 c 1,9,-1
 820 1723 l 1,10,-1
 818 1703 l 1,11,12
 715.177 1641.8 715.177 1641.8 710 1521 c 0,13,14
 706.674 1447.82 706.674 1447.82 759.5 1403 c 0,15,16
 776 1389 776 1389 796 1385 c 1,17,-1
 791 1345 l 1,18,-1
 697 1253 l 1,0,1
519.5 1123 m 0,19,20
 609 1156 609 1156 712.286 1156 c 128,-1,21
 815.571 1156 815.571 1156 939 1120 c 1,22,-1
 1055 1156 l 1,23,-1
 879 -89 l 2,24,25
 848.124 -305.13 848.124 -305.13 682 -415.5 c 0,26,27
 547.289 -505 547.289 -505 371 -505 c 0,28,29
 202.5 -505 202.5 -505 115 -470 c 1,30,-1
 153 -344 l 1,31,32
 259.105 -392 259.105 -392 398.553 -392 c 128,-1,33
 538 -392 538 -392 621 -314.5 c 128,-1,34
 704 -237 704 -237 730 -92 c 1,35,-1
 778 207 l 1,36,37
 671.699 58.9376 671.699 58.9376 516.5 4 c 0,38,39
 460 -16 460 -16 388 -16 c 128,-1,40
 316 -16 316 -16 256 15.5 c 128,-1,41
 196 47 196 47 156.5 104 c 0,42,43
 79 215.835 79 215.835 79 416 c 0,44,45
 79 684.819 79 684.819 234.5 904 c 0,46,47
 343.95 1058.27 343.95 1058.27 519.5 1123 c 0,19,20
233 434 m 0,48,49
 233 100 233 100 423 100 c 0,50,51
 581.099 100 581.099 100 726 273.5 c 0,52,53
 764 319 764 319 788 358 c 1,54,-1
 884 1010 l 1,55,56
 799.294 1046 799.294 1046 708.647 1046 c 128,-1,57
 618 1046 618 1046 553.5 1018.5 c 128,-1,58
 489 991 489 991 437.5 944.5 c 128,-1,59
 386 898 386 898 347.5 836 c 128,-1,60
 309 774 309 774 283.5 706 c 0,61,62
 233 571.333 233 571.333 233 434 c 0,48,49
EndSplineSet
EndChar

StartChar: macron.cap
Encoding: 65548 -1 313
Width: 614
Flags: HW
LayerCount: 2
Fore
SplineSet
48 1862 m 1,0,-1
 558 1862 l 1,1,-1
 553 1748 l 1,2,-1
 44 1748 l 1,3,-1
 48 1862 l 1,0,-1
EndSplineSet
EndChar

StartChar: hcircumflex
Encoding: 293 293 371
Width: 1198
Flags: HW
LayerCount: 2
Fore
SplineSet
308 1637 m 1,0,-1
 456 1637 l 1,1,-1
 435 1454 l 1,2,-1
 770 1796 l 1,3,-1
 906 1796 l 1,4,-1
 1111 1448 l 1,5,-1
 1038 1395 l 1,6,-1
 819 1660 l 1,7,-1
 489 1390 l 1,8,-1
 434 1445 l 1,9,-1
 401 1158 l 1,10,-1
 357 869 l 1,11,12
 507.113 1063.46 507.113 1063.46 701 1132.5 c 0,13,14
 767 1156 767 1156 832 1156 c 0,15,16
 955 1156 955 1156 1008.51 1085.65 c 128,-1,17
 1062.02 1015.29 1062.02 1015.29 1062.02 875.212 c 0,18,19
 1062.02 872.618 1062.02 872.618 1062.01 857.809 c 128,-1,20
 1062 843 1062 843 1058.5 804.5 c 128,-1,21
 1055 766 1055 766 1049 719.5 c 128,-1,22
 1043 673 1043 673 1035.5 620.5 c 2,23,-1
 1020 513 l 2,24,25
 1014 469 1014 469 1003.5 401 c 2,26,-1
 942 0 l 1,27,-1
 793 0 l 1,28,29
 797 32 797 32 803.5 74 c 0,30,31
 851.895 395.114 851.895 395.114 858.947 439.057 c 128,-1,32
 866 483 866 483 872 524 c 2,33,-1
 885.5 615.5 l 2,34,35
 911 787.2 911 787.2 911 865.6 c 128,-1,36
 911 944 911 944 880.5 981 c 128,-1,37
 850 1018 850 1018 786.5 1018 c 128,-1,38
 723 1018 723 1018 665 993 c 128,-1,39
 607 968 607 968 549 926.5 c 0,40,41
 424.896 837.701 424.896 837.701 343 721 c 1,42,-1
 245 0 l 1,43,-1
 97 0 l 1,44,-1
 308 1637 l 1,0,-1
EndSplineSet
EndChar

StartChar: lozenge
Encoding: 9674 9674 388
Width: 1175
Flags: HW
LayerCount: 2
Fore
SplineSet
57 760 m 1,0,-1
 57 773 l 1,1,-1
 588 1516 l 1,2,-1
 596 1516 l 1,3,-1
 1128 773 l 1,4,-1
 1128 760 l 1,5,-1
 597 0 l 1,6,-1
 586 0 l 1,7,-1
 57 760 l 1,0,-1
593 221 m 1,8,-1
 964 767 l 1,9,-1
 964 770 l 1,10,-1
 593 1298 l 1,11,-1
 590 1298 l 1,12,-1
 222 770 l 1,13,-1
 222 764 l 1,14,-1
 590 221 l 1,15,-1
 593 221 l 1,8,-1
EndSplineSet
EndChar

StartChar: Scedilla
Encoding: 350 350 393
Width: 1044
Flags: HW
LayerCount: 2
Fore
SplineSet
211 -339 m 0,0,1
 381 -339 381 -339 381 -146 c 0,2,3
 381 -61.4 381 -61.4 373 -15 c 1,4,5
 199.354 -9.11369 199.354 -9.11369 78.5 45 c 0,6,7
 45 60 45 60 29 73 c 1,8,-1
 71 196 l 1,9,10
 122.947 140.342 122.947 140.342 299 111 c 0,11,12
 353 102 353 102 414.5 102 c 128,-1,13
 476 102 476 102 540.5 117.5 c 128,-1,14
 605 133 605 133 655 166 c 0,15,16
 765 238.6 765 238.6 765 374 c 0,17,18
 765 516.593 765 516.593 625.5 628.5 c 0,19,20
 580 665 580 665 523 702 c 128,-1,21
 466 739 466 739 407.5 781 c 128,-1,22
 349 823 349 823 300.5 876.5 c 0,23,24
 186.89 1001.82 186.89 1001.82 186.89 1161.24 c 0,25,26
 186.89 1336.35 186.89 1336.35 315.5 1443 c 0,27,28
 440.912 1547 440.912 1547 645 1547 c 0,29,30
 873.308 1547 873.308 1547 991 1462 c 1,31,-1
 943 1346 l 1,32,33
 882.23 1406.77 882.23 1406.77 737.5 1425.5 c 0,34,35
 695 1431 695 1431 652 1431 c 128,-1,36
 609 1431 609 1431 554.5 1421.5 c 128,-1,37
 500 1412 500 1412 452.5 1386 c 0,38,39
 337.814 1323.22 337.814 1323.22 337.814 1177.5 c 0,40,41
 337.814 1062.28 337.814 1062.28 411.5 978.5 c 0,42,43
 462.784 920.191 462.784 920.191 563.392 854.095 c 128,-1,44
 664 788 664 788 719 748.5 c 128,-1,45
 774 709 774 709 818.5 660 c 0,46,47
 922.03 546 922.03 546 922.03 405.201 c 0,48,49
 922.03 222.104 922.03 222.104 800.5 112 c 0,50,51
 684.481 6.88884 684.481 6.88884 483 -12 c 1,52,53
 512 -78.2857 512 -78.2857 512 -170.143 c 128,-1,54
 512 -262 512 -262 491 -316.5 c 128,-1,55
 470 -371 470 -371 434 -404 c 0,56,57
 367.455 -465 367.455 -465 249 -465 c 0,58,59
 141.667 -465 141.667 -465 103 -436 c 1,60,-1
 123 -321 l 1,61,62
 156.429 -339 156.429 -339 211 -339 c 0,0,1
EndSplineSet
Substitution2: "'locl' Localized Forms lookup 7 subtable" uni0218
Substitution2: "'locl' Localized Forms lookup 6 subtable" uni0218
Substitution2: "'aalt' Access All Alternates in Latin lookup 0 subtable" uni0218
EndChar

StartChar: uni0162
Encoding: 354 354 396
Width: 1122
Flags: HW
LayerCount: 2
Fore
SplineSet
173 -321 m 1,0,1
 206.429 -339 206.429 -339 261 -339 c 0,2,3
 431 -339 431 -339 431 -146 c 0,4,5
 431 -55 431 -55 420 0 c 1,6,-1
 410 0 l 1,7,-1
 589 1419 l 1,8,-1
 138 1410 l 1,9,-1
 155 1530 l 1,10,-1
 1199 1530 l 1,11,-1
 1182 1410 l 1,12,-1
 739 1419 l 1,13,-1
 560 0 l 1,14,-1
 527 0 l 1,15,16
 562 -70 562 -70 562 -166 c 128,-1,17
 562 -262 562 -262 541 -316.5 c 128,-1,18
 520 -371 520 -371 484 -404 c 0,19,20
 417.455 -465 417.455 -465 299 -465 c 0,21,22
 191.667 -465 191.667 -465 153 -436 c 1,23,-1
 173 -321 l 1,0,1
EndSplineSet
Substitution2: "'locl' Localized Forms lookup 7 subtable" uni021A
Substitution2: "'aalt' Access All Alternates in Latin lookup 0 subtable" uni021A
EndChar

StartChar: uni0163
Encoding: 355 355 397
Width: 739
Flags: HW
LayerCount: 2
Fore
SplineSet
90 -339 m 0,0,1
 260 -339 260 -339 260 -146 c 0,2,3
 260 -53 260 -53 249 2 c 1,4,5
 166 40 166 40 166 156 c 0,6,7
 166 198.5 166 198.5 178 290 c 2,8,-1
 271 1021 l 1,9,-1
 136 1021 l 1,10,-1
 167 1139 l 1,11,-1
 294 1140 l 1,12,-1
 350 1419 l 1,13,-1
 476 1419 l 1,14,-1
 440 1140 l 1,15,-1
 731 1140 l 1,16,-1
 713 1021 l 1,17,-1
 423 1021 l 1,18,-1
 324.5 277 l 2,19,20
 320 243 320 243 320 219 c 0,21,22
 320 103 320 103 399 103 c 256,23,24
 461.647 103 461.647 103 576 175 c 0,25,26
 603 192 603 192 618 204 c 1,27,-1
 638 120 l 1,28,29
 607.446 82.8983 607.446 82.8983 548.223 50.9492 c 0,30,31
 439.879 -7.49963 439.879 -7.49963 363 -15 c 1,32,33
 391 -81.7692 391 -81.7692 391 -171.885 c 128,-1,34
 391 -262 391 -262 370 -316.5 c 128,-1,35
 349 -371 349 -371 313 -404 c 0,36,37
 246.455 -465 246.455 -465 128 -465 c 0,38,39
 20.6667 -465 20.6667 -465 -18 -436 c 1,40,-1
 2 -321 l 1,41,42
 35.4286 -339 35.4286 -339 90 -339 c 0,0,1
EndSplineSet
Substitution2: "'locl' Localized Forms lookup 7 subtable" uni021B
Substitution2: "'aalt' Access All Alternates in Latin lookup 0 subtable" uni021B
EndChar

StartChar: lacute
Encoding: 314 314 413
Width: 563
Flags: HW
LayerCount: 2
Fore
SplineSet
342 1524 m 1,0,-1
 490 1524 l 1,1,-1
 282 0 l 1,2,-1
 133 0 l 1,3,-1
 342 1524 l 1,0,-1
384 1654 m 1,4,-1
 662 2000 l 1,5,-1
 757 1903 l 1,6,7
 715.255 1832.21 715.255 1832.21 641.627 1763.61 c 0,8,9
 523.134 1653.19 523.134 1653.19 441 1603 c 1,10,-1
 384 1654 l 1,4,-1
EndSplineSet
EndChar

StartChar: iogonek
Encoding: 303 303 414
Width: 606
Flags: HW
LayerCount: 2
Fore
SplineSet
452.5 1435.5 m 0,0,1
 432 1426 432 1426 411 1426 c 128,-1,2
 390 1426 390 1426 373.5 1433.5 c 128,-1,3
 357 1441 357 1441 345.5 1454 c 0,4,5
 319.082 1483.86 319.082 1483.86 321.541 1516.43 c 128,-1,6
 324 1549 324 1549 333.5 1570 c 128,-1,7
 343 1591 343 1591 358.5 1606.5 c 0,8,9
 392 1640 392 1640 435.5 1640 c 128,-1,10
 479 1640 479 1640 502.575 1614.5 c 128,-1,11
 526.151 1589 526.151 1589 526.151 1552.11 c 0,12,13
 526.151 1469.63 526.151 1469.63 452.5 1435.5 c 0,0,1
322 -341 m 1,14,15
 215.467 -435 215.467 -435 75 -435 c 0,16,17
 -18 -435 -18 -435 -70.5 -382.5 c 0,18,19
 -113 -340 -113 -340 -113 -287.5 c 128,-1,20
 -113 -235 -113 -235 -84.5 -190 c 128,-1,21
 -56 -145 -56 -145 -15 -108.5 c 0,22,23
 46.0386 -54.1608 46.0386 -54.1608 149 2 c 1,24,-1
 303 1144 l 1,25,-1
 452 1144 l 1,26,-1
 297 0 l 1,27,-1
 269 0 l 1,28,-1
 199 -47 l 2,29,30
 36 -157.025 36 -157.025 36 -242 c 0,31,32
 36 -281 36 -281 60.5 -301.5 c 128,-1,33
 85 -322 85 -322 123 -322 c 0,34,35
 207 -322 207 -322 282 -264 c 1,36,-1
 322 -341 l 1,14,15
EndSplineSet
EndChar

StartChar: uogonek
Encoding: 371 371 415
Width: 1180
Flags: HW
LayerCount: 2
Fore
SplineSet
949 -341 m 1,0,1
 842.467 -435 842.467 -435 703 -435 c 0,2,3
 610 -435 610 -435 557.5 -382.5 c 0,4,5
 515 -340 515 -340 515 -287 c 128,-1,6
 515 -234 515 -234 543.5 -189 c 128,-1,7
 572 -144 572 -144 613.5 -107.5 c 0,8,9
 674.049 -54.2459 674.049 -54.2459 779 3 c 1,10,-1
 780 4 l 1,11,-1
 809 262 l 1,12,13
 672.906 71.4691 672.906 71.4691 492.5 4 c 0,14,15
 431 -19 431 -19 368 -19 c 256,16,17
 173.771 -19 173.771 -19 129 133.5 c 0,18,19
 113 188 113 188 113 238 c 128,-1,20
 113 288 113 288 115 318 c 128,-1,21
 117 348 117 348 121 383 c 0,22,23
 138.824 537.127 138.824 537.127 147.412 598.564 c 2,24,-1
 224 1140 l 1,25,-1
 373 1140 l 1,26,-1
 299.5 612.5 l 2,27,28
 293 566 293 566 286 512 c 0,29,30
 265 350 265 350 265 288 c 128,-1,31
 265 226 265 226 275.5 194 c 128,-1,32
 286 162 286 162 306 143.5 c 0,33,34
 341.135 111 341.135 111 405.568 111 c 128,-1,35
 470 111 470 111 525.5 137 c 128,-1,36
 581 163 581 163 635 205.5 c 0,37,38
 745.955 292.825 745.955 292.825 826 415 c 1,39,-1
 921 1140 l 1,40,-1
 1070 1140 l 1,41,-1
 918 0 l 1,42,-1
 897 0 l 1,43,-1
 827 -47 l 2,44,45
 663 -157.7 663 -157.7 663 -242 c 0,46,47
 663 -281 663 -281 688 -301.5 c 128,-1,48
 713 -322 713 -322 751 -322 c 0,49,50
 834.724 -322 834.724 -322 910 -263 c 1,51,-1
 949 -341 l 1,0,1
EndSplineSet
EndChar

StartChar: Dcroat
Encoding: 272 272 416
Width: 1376
Flags: HW
LayerCount: 2
Fore
SplineSet
401 1531 m 1,0,-1
 722 1547 l 1,1,2
 1013.87 1547 1013.87 1547 1160.5 1374 c 0,3,4
 1298.15 1211.59 1298.15 1211.59 1298.15 903.132 c 0,5,6
 1298.15 514.211 1298.15 514.211 1088.5 251 c 0,7,8
 949.035 75.9047 949.035 75.9047 743 13.5 c 0,9,10
 648.043 -15.2609 648.043 -15.2609 542.25 -15.2609 c 0,11,12
 514.783 -15.2609 514.783 -15.2609 498.391 -14.1304 c 2,13,-1
 436 -10 l 2,14,15
 401 -7.66667 401 -7.66667 369.5 -5.33333 c 128,-1,16
 338 -3 338 -3 308 -2 c 2,17,-1
 248.5 0 l 2,18,19
 219 1 219 1 198 1 c 2,20,-1
 121 1 l 1,21,-1
 213 733 l 1,22,-1
 53 733 l 1,23,-1
 65 833 l 1,24,-1
 226 833 l 1,25,-1
 314 1531 l 1,26,-1
 401 1531 l 1,0,-1
287 126 m 1,27,28
 445 99.6667 445 99.6667 496.333 99.6667 c 128,-1,29
 547.667 99.6667 547.667 99.6667 558 100 c 0,30,31
 743.395 103.784 743.395 103.784 884.5 225.5 c 0,32,33
 1009.51 333.332 1009.51 333.332 1079.5 525 c 0,34,35
 1142.06 696.32 1142.06 696.32 1142.06 898.884 c 0,36,37
 1142.06 1182.17 1142.06 1182.17 1032.5 1309.5 c 0,38,39
 924.512 1435 924.512 1435 679 1435 c 0,40,41
 605.571 1435 605.571 1435 539.286 1427 c 2,42,-1
 449 1416 l 1,43,-1
 375 833 l 1,44,-1
 804 833 l 1,45,-1
 792 733 l 1,46,-1
 363 733 l 1,47,-1
 287 126 l 1,27,28
EndSplineSet
EndChar

StartChar: Iogonek
Encoding: 302 302 417
Width: 572
Flags: HW
LayerCount: 2
Fore
SplineSet
312 -342 m 1,0,1
 197.857 -436 197.857 -436 65 -436 c 0,2,3
 -28.6667 -436 -28.6667 -436 -80 -383.5 c 0,4,5
 -122 -340.545 -122 -340.545 -122 -287.773 c 128,-1,6
 -122 -235 -122 -235 -93 -190 c 128,-1,7
 -64 -145 -64 -145 -22 -108.5 c 0,8,9
 37.9799 -56.3746 37.9799 -56.3746 145 2 c 1,10,-1
 338 1530 l 1,11,-1
 489 1530 l 1,12,-1
 296 0 l 1,13,-1
 265 0 l 1,14,-1
 194 -47 l 2,15,16
 26 -157.634 26 -157.634 26 -242 c 0,17,18
 26 -281 26 -281 51 -301.5 c 128,-1,19
 76 -322 76 -322 114 -322 c 0,20,21
 197 -322 197 -322 272 -264 c 1,22,-1
 312 -342 l 1,0,1
EndSplineSet
EndChar

StartChar: Uogonek
Encoding: 370 370 418
Width: 1360
Flags: HW
LayerCount: 2
Fore
SplineSet
711 -10 m 1,0,1
 650.333 -17 650.333 -17 571.167 -17 c 128,-1,2
 492 -17 492 -17 409.5 13 c 128,-1,3
 327 43 327 43 270.5 99 c 0,4,5
 153.8 214.667 153.8 214.667 153.8 437.78 c 0,6,7
 153.8 483.2 153.8 483.2 166 593 c 1,8,-1
 285 1530 l 1,9,-1
 435 1530 l 1,10,-1
 320 619 l 2,11,12
 307.929 518.714 307.929 518.714 307.929 476.321 c 128,-1,13
 307.929 433.929 307.929 433.929 308.464 393.464 c 128,-1,14
 309 353 309 353 329 293 c 128,-1,15
 349 233 349 233 388 191.5 c 0,16,17
 468.349 106 468.349 106 623 106 c 0,18,19
 810.906 106 810.906 106 913 227 c 0,20,21
 1019.71 353.474 1019.71 353.474 1057 640 c 1,22,-1
 1169 1530 l 1,23,-1
 1316 1530 l 1,24,-1
 1202 627 l 2,25,26
 1152.3 235.233 1152.3 235.233 966 89.5 c 0,27,28
 904 41 904 41 826 15 c 1,29,-1
 752.5 -51 l 1,30,31
 612 -182.133 612 -182.133 612 -242 c 0,32,33
 612 -281 612 -281 636.5 -301.5 c 128,-1,34
 661 -322 661 -322 699 -322 c 0,35,36
 782.724 -322 782.724 -322 858 -263 c 1,37,-1
 897 -341 l 1,38,39
 790.467 -435 790.467 -435 651 -435 c 0,40,41
 558 -435 558 -435 505.5 -382.5 c 0,42,43
 463 -340 463 -340 463 -290.5 c 128,-1,44
 463 -241 463 -241 489 -200 c 128,-1,45
 515 -159 515 -159 552.5 -123.5 c 0,46,47
 605.577 -73.2539 605.577 -73.2539 711 -10 c 1,0,1
EndSplineSet
EndChar

StartChar: Hbar
Encoding: 294 294 419
Width: 1410
Flags: HW
LayerCount: 2
Fore
SplineSet
251 1036 m 1,0,-1
 56 1036 l 1,1,-1
 67 1151 l 1,2,-1
 266 1151 l 1,3,-1
 314 1530 l 1,4,-1
 464 1530 l 1,5,-1
 416 1151 l 1,6,-1
 1142 1151 l 1,7,-1
 1190 1530 l 1,8,-1
 1340 1530 l 1,9,-1
 1292 1151 l 1,10,-1
 1516 1151 l 1,11,-1
 1505 1036 l 1,12,-1
 1278 1036 l 1,13,-1
 1148 0 l 1,14,-1
 997 0 l 1,15,-1
 1074 610 l 1,16,-1
 348 610 l 1,17,-1
 271 0 l 1,18,-1
 121 0 l 1,19,-1
 251 1036 l 1,0,-1
1088 725 m 1,20,-1
 1127 1036 l 1,21,-1
 401 1036 l 1,22,-1
 362 725 l 1,23,-1
 1088 725 l 1,20,-1
EndSplineSet
EndChar

StartChar: Tbar
Encoding: 358 358 422
Width: 1122
Flags: HW
LayerCount: 2
Fore
SplineSet
502 733 m 1,0,-1
 219 733 l 1,1,-1
 232 833 l 1,2,-1
 515 833 l 1,3,-1
 589 1419 l 1,4,-1
 138 1410 l 1,5,-1
 155 1530 l 1,6,-1
 1199 1530 l 1,7,-1
 1182 1410 l 1,8,-1
 739 1419 l 1,9,-1
 665 833 l 1,10,-1
 974 833 l 1,11,-1
 961 733 l 1,12,-1
 652 733 l 1,13,-1
 560 0 l 1,14,-1
 410 0 l 1,15,-1
 502 733 l 1,0,-1
EndSplineSet
EndChar

StartChar: tbar
Encoding: 359 359 423
Width: 739
Flags: HW
LayerCount: 2
Fore
SplineSet
341 -16 m 0,0,1
 166 -16 166 -16 166 156 c 0,2,3
 166 198.5 166 198.5 178 290 c 2,4,-1
 222 637 l 1,5,-1
 83 637 l 1,6,-1
 95 737 l 1,7,-1
 235 737 l 1,8,-1
 271 1021 l 1,9,-1
 136 1021 l 1,10,-1
 167 1139 l 1,11,-1
 294 1140 l 1,12,-1
 350 1419 l 1,13,-1
 476 1419 l 1,14,-1
 440 1140 l 1,15,-1
 731 1140 l 1,16,-1
 713 1021 l 1,17,-1
 423 1021 l 1,18,-1
 385 737 l 1,19,-1
 677 737 l 1,20,-1
 665 637 l 1,21,-1
 372 637 l 1,22,-1
 324.5 277 l 2,23,24
 320 243 320 243 320 219 c 0,25,26
 320 103 320 103 399 103 c 256,27,28
 461.647 103 461.647 103 576 175 c 0,29,30
 603 192 603 192 618 204 c 1,31,-1
 638 120 l 1,32,33
 603.071 78.0851 603.071 78.0851 539.535 45.5426 c 0,34,35
 419.381 -16 419.381 -16 341 -16 c 0,0,1
EndSplineSet
EndChar

StartChar: dcroat
Encoding: 273 273 425
Width: 1149
Flags: HW
LayerCount: 2
Fore
SplineSet
519.5 1123 m 0,0,1
 609 1156 609 1156 704.773 1156 c 128,-1,2
 800.545 1156 800.545 1156 896 1131 c 1,3,-1
 918 1292 l 1,4,-1
 629 1292 l 1,5,-1
 642 1392 l 1,6,-1
 932 1392 l 1,7,-1
 966 1637 l 1,8,-1
 1114 1637 l 1,9,-1
 1080 1392 l 1,10,-1
 1224 1392 l 1,11,-1
 1211 1292 l 1,12,-1
 1067 1292 l 1,13,-1
 890 0 l 1,14,-1
 758 0 l 1,15,-1
 778 208 l 1,16,17
 673.684 58.9767 673.684 58.9767 517 4 c 0,18,19
 460 -16 460 -16 388 -16 c 128,-1,20
 316 -16 316 -16 256 15.5 c 128,-1,21
 196 47 196 47 156.5 104 c 0,22,23
 79 215.835 79 215.835 79 416 c 0,24,25
 79 684.819 79 684.819 234.5 904 c 0,26,27
 343.95 1058.27 343.95 1058.27 519.5 1123 c 0,0,1
233 434 m 0,28,29
 233 100 233 100 423 100 c 0,30,31
 531.595 100 531.595 100 644 192.5 c 0,32,33
 729.247 262.651 729.247 262.651 791 363 c 1,34,-1
 880 1011 l 1,35,36
 797.412 1047 797.412 1047 707.706 1047 c 128,-1,37
 618 1047 618 1047 553.5 1019.5 c 128,-1,38
 489 992 489 992 437.5 945 c 128,-1,39
 386 898 386 898 347.5 836.5 c 128,-1,40
 309 775 309 775 283.5 707 c 0,41,42
 233 572.333 233 572.333 233 434 c 0,28,29
EndSplineSet
EndChar

StartChar: hbar
Encoding: 295 295 426
Width: 1198
Flags: HW
LayerCount: 2
Fore
SplineSet
263 1292 m 1,0,-1
 133 1292 l 1,1,-1
 146 1392 l 1,2,-1
 276 1392 l 1,3,-1
 308 1637 l 1,4,-1
 456 1637 l 1,5,-1
 428 1392 l 1,6,-1
 728 1392 l 1,7,-1
 715 1292 l 1,8,-1
 416 1292 l 1,9,-1
 401 1158 l 1,10,-1
 357 869 l 1,11,12
 507.113 1063.46 507.113 1063.46 701 1132.5 c 0,13,14
 767 1156 767 1156 832 1156 c 0,15,16
 955 1156 955 1156 1008.51 1085.65 c 128,-1,17
 1062.02 1015.29 1062.02 1015.29 1062.02 875.212 c 0,18,19
 1062.02 872.618 1062.02 872.618 1062.01 857.809 c 128,-1,20
 1062 843 1062 843 1058.5 804.5 c 128,-1,21
 1055 766 1055 766 1049 719.5 c 128,-1,22
 1043 673 1043 673 1035.5 620.5 c 2,23,-1
 1020 513 l 2,24,25
 1014 469 1014 469 1003.5 401 c 2,26,-1
 942 0 l 1,27,-1
 793 0 l 1,28,29
 797 32 797 32 803.5 74 c 0,30,31
 851.895 395.114 851.895 395.114 858.947 439.057 c 128,-1,32
 866 483 866 483 872 524 c 2,33,-1
 885.5 615.5 l 2,34,35
 911 787.2 911 787.2 911 865.6 c 128,-1,36
 911 944 911 944 880.5 981 c 128,-1,37
 850 1018 850 1018 786.5 1018 c 128,-1,38
 723 1018 723 1018 665 993 c 128,-1,39
 607 968 607 968 549 926.5 c 0,40,41
 424.896 837.701 424.896 837.701 343 721 c 1,42,-1
 245 0 l 1,43,-1
 97 0 l 1,44,-1
 263 1292 l 1,0,-1
EndSplineSet
EndChar

StartChar: eng
Encoding: 331 331 427
Width: 1194
Flags: HW
LayerCount: 2
Fore
SplineSet
385 -416 m 1,0,1
 422.8 -437 422.8 -437 488.9 -437 c 128,-1,2
 555 -437 555 -437 609 -396 c 128,-1,3
 663 -355 663 -355 700.5 -287 c 0,4,5
 763.122 -173.446 763.122 -173.446 799 49 c 0,6,7
 809 114 809 114 821.5 187.5 c 2,8,-1
 869.5 487 l 1,9,10
 909 744.609 909 744.609 909 840.304 c 128,-1,11
 909 936 909 936 879.5 977.5 c 128,-1,12
 850 1019 850 1019 787.5 1019 c 128,-1,13
 725 1019 725 1019 666 992.5 c 128,-1,14
 607 966 607 966 547.5 923 c 0,15,16
 421.434 831.893 421.434 831.893 338 713 c 1,17,-1
 241 0 l 1,18,-1
 93 0 l 1,19,-1
 248 1140 l 1,20,-1
 389 1140 l 1,21,-1
 359 872 l 1,22,23
 512.764 1063.35 512.764 1063.35 705.5 1132.5 c 0,24,25
 771 1156 771 1156 836 1156 c 0,26,27
 949 1156 949 1156 1005 1087 c 128,-1,28
 1061 1018 1061 1018 1061 863 c 1,29,30
 1058.12 750.513 1058.12 750.513 1032.56 582.257 c 0,31,32
 985.371 275.38 985.371 275.38 969.185 177.69 c 2,33,-1
 940 0 l 1,34,35
 877.636 -389.035 877.636 -389.035 659.5 -486.5 c 0,36,37
 589 -518 589 -518 523 -518 c 0,38,39
 395.778 -518 395.778 -518 358 -478 c 1,40,-1
 385 -416 l 1,0,1
EndSplineSet
EndChar

StartChar: Eng
Encoding: 330 330 428
Width: 1488
Flags: HW
LayerCount: 2
Fore
SplineSet
314 1530 m 1,0,-1
 472 1530 l 1,1,-1
 963 403 l 1,2,-1
 1035 196 l 1,3,-1
 1056 434 l 1,4,-1
 1190 1530 l 1,5,-1
 1333 1530 l 1,6,-1
 1140 0 l 1,7,-1
 1137 0 l 1,8,9
 1045.08 -254.554 1045.08 -254.554 701 -315 c 1,10,-1
 673 -247 l 1,11,12
 843.572 -199.946 843.572 -199.946 939.5 -71.5 c 0,13,14
 969 -32 969 -32 986 11 c 1,15,-1
 497 1122 l 1,16,-1
 425 1361 l 1,17,-1
 396 1073 l 1,18,-1
 262 0 l 1,19,-1
 121 0 l 1,20,-1
 314 1530 l 1,0,-1
EndSplineSet
EndChar

StartChar: Aring
Encoding: 197 197 431
Width: 1265
Flags: HW
LayerCount: 2
Fore
SplineSet
677 1494 m 1,0,1
 498 1537.21 498 1537.21 498 1728 c 0,2,3
 498 1860.67 498 1860.67 609.5 1935 c 0,4,5
 707 2000 707 2000 840 2000 c 0,6,7
 1031.55 2000 1031.55 2000 1091 1854.5 c 0,8,9
 1110 1808 1110 1808 1110 1750 c 128,-1,10
 1110 1692 1110 1692 1091 1648 c 128,-1,11
 1072 1604 1072 1604 1039.5 1572.5 c 0,12,13
 974.893 1509.88 974.893 1509.88 870 1491 c 1,14,-1
 1152 0 l 1,15,-1
 1002 0 l 1,16,-1
 926 431 l 1,17,-1
 312 431 l 1,18,-1
 111 0 l 1,19,-1
 -50 0 l 1,20,-1
 677 1494 l 1,0,1
783 1565 m 0,21,22
 1001 1565 1001 1565 1001 1762 c 0,23,24
 1001 1870.28 1001 1870.28 900 1905 c 0,25,26
 868 1916 868 1916 828.5 1916 c 128,-1,27
 789 1916 789 1916 749.5 1907 c 128,-1,28
 710 1898 710 1898 678 1876 c 0,29,30
 605 1825.81 605 1825.81 605 1723 c 0,31,32
 605 1654.74 605 1654.74 654 1610 c 0,33,34
 703.286 1565 703.286 1565 783 1565 c 0,21,22
906 546 m 1,35,-1
 777 1280 l 1,36,-1
 762 1395 l 1,37,-1
 366 546 l 1,38,-1
 906 546 l 1,35,-1
EndSplineSet
EndChar

StartChar: uni02c9
Encoding: 713 713 440
Width: 614
Flags: HW
LayerCount: 2
Fore
SplineSet
63 1862 m 1,0,-1
 573 1862 l 1,1,-1
 568 1748 l 1,2,-1
 59 1748 l 1,3,-1
 63 1862 l 1,0,-1
EndSplineSet
EndChar

StartChar: uni2113
Encoding: 8467 8467 441
Width: 1206
Flags: HW
LayerCount: 2
Fore
SplineSet
590 -16 m 0,0,1
 415.592 -16 415.592 -16 336 184 c 1,2,-1
 254.5 114.5 l 2,3,4
 214 80 214 80 172 48 c 1,5,-1
 76 131 l 1,6,7
 226.289 255.805 226.289 255.805 298 322 c 1,8,9
 283 407 283 407 283 528 c 128,-1,10
 283 649 283 649 304 788.5 c 128,-1,11
 325 928 325 928 363 1058 c 128,-1,12
 401 1188 401 1188 455.5 1301.5 c 128,-1,13
 510 1415 510 1415 576.5 1499 c 0,14,15
 719.792 1680 719.792 1680 884 1680 c 0,16,17
 967.933 1680 967.933 1680 1017 1616 c 0,18,19
 1065 1553.39 1065 1553.39 1065 1427.2 c 128,-1,20
 1065 1301 1065 1301 1017.5 1147.5 c 128,-1,21
 970 994 970 994 886.5 844.5 c 0,22,23
 723.864 553.314 723.864 553.314 439 279 c 1,24,25
 464 188 464 188 507.5 147.5 c 128,-1,26
 551 107 551 107 599.5 107 c 128,-1,27
 648 107 648 107 689.5 127 c 128,-1,28
 731 147 731 147 766.5 187.5 c 0,29,30
 843.107 274.897 843.107 274.897 868 430 c 1,31,-1
 992 411 l 1,32,33
 928.27 117.136 928.27 117.136 744 19.5 c 0,34,35
 677 -16 677 -16 590 -16 c 0,0,1
415 437 m 1,36,37
 936 970.504 936 970.504 936 1428 c 0,38,39
 936 1505.85 936 1505.85 884.5 1535.5 c 0,40,41
 868 1545 868 1545 847 1545 c 0,42,43
 738.688 1545 738.688 1545 633.5 1378 c 0,44,45
 483.698 1140.17 483.698 1140.17 429.5 746 c 0,46,47
 413 626 413 626 413 559.5 c 2,48,-1
 413 474 l 2,49,50
 413 455 413 455 415 437 c 1,36,37
EndSplineSet
EndChar

StartChar: uni2215
Encoding: 8725 8725 442
Width: 854
Flags: HW
LayerCount: 2
Fore
SplineSet
-75 -362 m 1,0,-1
 787 1597 l 1,1,-1
 920 1597 l 1,2,-1
 57 -362 l 1,3,-1
 -75 -362 l 1,0,-1
EndSplineSet
EndChar

StartChar: hyphen
Encoding: 45 45 447
Width: 1266
Flags: HW
LayerCount: 2
Fore
SplineSet
234 833 m 1,0,-1
 1071 833 l 1,1,-1
 1057 712 l 1,2,-1
 220 712 l 1,3,-1
 234 833 l 1,0,-1
EndSplineSet
EndChar

StartChar: minus
Encoding: 8722 8722 448
Width: 1266
Flags: HW
LayerCount: 2
Fore
SplineSet
234 833 m 1,0,-1
 1071 833 l 1,1,-1
 1057 712 l 1,2,-1
 220 712 l 1,3,-1
 234 833 l 1,0,-1
EndSplineSet
EndChar

